%TF.GenerationSoftware,KiCad,Pcbnew,7.0.6*%
%TF.CreationDate,2023-12-29T14:00:24-07:00*%
%TF.ProjectId,SparkFun_RGB_CBI_Example,53706172-6b46-4756-9e5f-5247425f4342,rev?*%
%TF.SameCoordinates,Original*%
%TF.FileFunction,Legend,Top*%
%TF.FilePolarity,Positive*%
%FSLAX46Y46*%
G04 Gerber Fmt 4.6, Leading zero omitted, Abs format (unit mm)*
G04 Created by KiCad (PCBNEW 7.0.6) date 2023-12-29 14:00:24*
%MOMM*%
%LPD*%
G01*
G04 APERTURE LIST*
%ADD10C,0.120000*%
%ADD11C,0.177800*%
G04 APERTURE END LIST*
D10*
%TO.C,C2*%
X25540580Y14730000D02*
X25259420Y14730000D01*
X25540580Y15750000D02*
X25259420Y15750000D01*
%TO.C,kibuzzard-6570C446*%
G36*
X39884271Y13285788D02*
G01*
X39931419Y13269198D01*
X39970710Y13220303D01*
X39982934Y13127752D01*
X39970710Y13036947D01*
X39930546Y12988052D01*
X39882524Y12971463D01*
X39822279Y12968843D01*
X38919467Y12968843D01*
X38860968Y12971463D01*
X38812946Y12988052D01*
X38772782Y13036947D01*
X38760559Y13129498D01*
X38772782Y13220303D01*
X38812946Y13269198D01*
X38860968Y13285788D01*
X38921214Y13288407D01*
X39824025Y13288407D01*
X39884271Y13285788D01*
G37*
G36*
X39822279Y7351157D02*
G01*
X39882524Y7348537D01*
X39929673Y7331948D01*
X39968964Y7283053D01*
X39981188Y7190502D01*
X39968964Y7099697D01*
X39928800Y7050802D01*
X39880778Y7034212D01*
X39820533Y7031593D01*
X38919467Y7031593D01*
X38860968Y7034212D01*
X38812946Y7050802D01*
X38772782Y7099697D01*
X38760559Y7192248D01*
X38760559Y7351157D01*
X39080122Y7351157D01*
X39335075Y7351157D01*
X39335075Y7543244D01*
X39303642Y7627064D01*
X39207599Y7667228D01*
X39116794Y7629684D01*
X39080122Y7539752D01*
X39080122Y7351157D01*
X38760559Y7351157D01*
X38760559Y7543244D01*
X38767544Y7614186D01*
X38788499Y7687310D01*
X38822551Y7760216D01*
X38868826Y7830502D01*
X38930600Y7893149D01*
X39011146Y7943136D01*
X39105661Y7975878D01*
X39209345Y7986792D01*
X39340120Y7969717D01*
X39453044Y7918494D01*
X39548118Y7833122D01*
X39715758Y7958852D01*
X39836249Y8006001D01*
X39939278Y7922181D01*
X39987299Y7798197D01*
X39906099Y7700407D01*
X39652893Y7513558D01*
X39652893Y7351157D01*
X39822279Y7351157D01*
G37*
G36*
X39981188Y9492059D02*
G01*
X39968964Y9401254D01*
X39928800Y9352359D01*
X39879905Y9335770D01*
X39818786Y9333151D01*
X38917721Y9333151D01*
X38859222Y9335770D01*
X38811200Y9352359D01*
X38771036Y9401254D01*
X38758812Y9493806D01*
X38758812Y9652714D01*
X39078376Y9652714D01*
X39661624Y9652714D01*
X39661624Y9902428D01*
X39659878Y9926876D01*
X39650273Y9953943D01*
X39620587Y9980136D01*
X39565580Y9989741D01*
X39493111Y9967039D01*
X39476521Y9893697D01*
X39476521Y9870996D01*
X39445962Y9771459D01*
X39342060Y9741773D01*
X39241651Y9773206D01*
X39212837Y9879727D01*
X39212837Y9900682D01*
X39200614Y9942592D01*
X39146480Y9954816D01*
X39092346Y9936480D01*
X39078376Y9864011D01*
X39078376Y9652714D01*
X38758812Y9652714D01*
X38758812Y9902428D01*
X38771133Y10000800D01*
X38808096Y10088695D01*
X38869699Y10166112D01*
X38948184Y10226260D01*
X39035787Y10262350D01*
X39132510Y10274379D01*
X39234666Y10259973D01*
X39328090Y10216753D01*
X39450764Y10286167D01*
X39584789Y10309304D01*
X39689758Y10295625D01*
X39783473Y10256917D01*
X39865935Y10193179D01*
X39929964Y10111978D01*
X39968382Y10020882D01*
X39981188Y9919891D01*
X39981188Y9652714D01*
X39981188Y9492059D01*
G37*
G36*
X39981188Y12067778D02*
G01*
X39968964Y11976973D01*
X39928800Y11928078D01*
X39879905Y11911489D01*
X39818786Y11908869D01*
X38917721Y11908869D01*
X38859222Y11911489D01*
X38811200Y11928078D01*
X38771036Y11976973D01*
X38758812Y12069524D01*
X38758812Y12228433D01*
X39078376Y12228433D01*
X39661624Y12228433D01*
X39661624Y12478147D01*
X39659878Y12502594D01*
X39650273Y12529661D01*
X39620587Y12555855D01*
X39565580Y12565459D01*
X39493111Y12542758D01*
X39476521Y12469416D01*
X39476521Y12446714D01*
X39445962Y12347178D01*
X39342060Y12317492D01*
X39241651Y12348924D01*
X39212837Y12455446D01*
X39212837Y12476401D01*
X39200614Y12518311D01*
X39146480Y12530534D01*
X39092346Y12512199D01*
X39078376Y12439729D01*
X39078376Y12228433D01*
X38758812Y12228433D01*
X38758812Y12478147D01*
X38771133Y12576519D01*
X38808096Y12664414D01*
X38869699Y12741831D01*
X38948184Y12801979D01*
X39035787Y12838068D01*
X39132510Y12850098D01*
X39234666Y12835692D01*
X39328090Y12792472D01*
X39450764Y12861885D01*
X39584789Y12885023D01*
X39689758Y12871344D01*
X39783473Y12832636D01*
X39865935Y12768898D01*
X39929964Y12687697D01*
X39968382Y12596601D01*
X39981188Y12495609D01*
X39981188Y12228433D01*
X39981188Y12067778D01*
G37*
G36*
X39066152Y11795363D02*
G01*
X39136876Y11729879D01*
X39160450Y11669633D01*
X39120286Y11575336D01*
X39112428Y11563985D01*
X39102824Y11549142D01*
X39093219Y11532553D01*
X39084488Y11508978D01*
X39077503Y11481038D01*
X39071391Y11446113D01*
X39069645Y11404203D01*
X39087107Y11304667D01*
X39138622Y11206004D01*
X39233792Y11128296D01*
X39299277Y11106031D01*
X39373493Y11098609D01*
X39468881Y11111925D01*
X39548991Y11151870D01*
X39610328Y11208405D01*
X39649400Y11271488D01*
X39677340Y11404203D01*
X39662933Y11496318D01*
X39619714Y11584067D01*
X39584789Y11671379D01*
X39609673Y11730752D01*
X39684325Y11793617D01*
X39785608Y11832034D01*
X39849346Y11807587D01*
X39902606Y11735991D01*
X39956934Y11632380D01*
X39989531Y11524112D01*
X40000396Y11411188D01*
X39995158Y11337191D01*
X39979441Y11258391D01*
X39951283Y11175881D01*
X39908718Y11090751D01*
X39853711Y11008896D01*
X39788227Y10936208D01*
X39707681Y10873998D01*
X39607490Y10823575D01*
X39491801Y10790178D01*
X39364761Y10779046D01*
X39242524Y10789960D01*
X39130764Y10822702D01*
X39033629Y10872470D01*
X38955266Y10934462D01*
X38891528Y11007150D01*
X38838267Y11089005D01*
X38797012Y11174571D01*
X38769290Y11258391D01*
X38753574Y11339374D01*
X38748335Y11416427D01*
X38759201Y11520426D01*
X38791797Y11627529D01*
X38846125Y11737737D01*
X38879304Y11784886D01*
X38915975Y11817191D01*
X38968362Y11833781D01*
X39066152Y11795363D01*
G37*
G36*
X39844107Y9160272D02*
G01*
X39891910Y9110940D01*
X39932293Y9046766D01*
X39970128Y8950140D01*
X39992829Y8834887D01*
X40000396Y8701008D01*
X39988500Y8579644D01*
X39952811Y8467011D01*
X39893329Y8363109D01*
X39810055Y8267938D01*
X39710191Y8188484D01*
X39600942Y8131731D01*
X39482306Y8097679D01*
X39354284Y8086328D01*
X39232210Y8097842D01*
X39119195Y8132385D01*
X39015238Y8189957D01*
X38920341Y8270557D01*
X38841268Y8367311D01*
X38784788Y8473341D01*
X38750900Y8588648D01*
X38739604Y8713232D01*
X38745934Y8803819D01*
X38764924Y8900954D01*
X38795265Y8992850D01*
X38835647Y9067721D01*
X38870572Y9116616D01*
X38907244Y9148921D01*
X38957885Y9165511D01*
X39055675Y9125347D01*
X39125088Y9060736D01*
X39148226Y8996124D01*
X39108062Y8901827D01*
X39071391Y8812332D01*
X39059167Y8704501D01*
X39080777Y8589685D01*
X39145607Y8493204D01*
X39241869Y8427720D01*
X39357776Y8405892D01*
X39477394Y8428593D01*
X39581296Y8496697D01*
X39653329Y8594923D01*
X39677340Y8707993D01*
X39671665Y8808402D01*
X39654639Y8882618D01*
X39504461Y8882618D01*
X39504461Y8753396D01*
X39501842Y8706247D01*
X39487872Y8669576D01*
X39446835Y8639889D01*
X39368254Y8631158D01*
X39291419Y8640763D01*
X39250382Y8673068D01*
X39236412Y8711486D01*
X39233792Y8758634D01*
X39233792Y9064228D01*
X39246016Y9131459D01*
X39268718Y9172496D01*
X39303642Y9193451D01*
X39342060Y9201309D01*
X39385716Y9202182D01*
X39743698Y9202182D01*
X39844107Y9160272D01*
G37*
D11*
%TO.C,D4*%
X13960000Y11810000D02*
X13160000Y11810000D01*
X7760000Y11810000D02*
X7760000Y10010000D01*
X6360000Y11810000D02*
X7760000Y11810000D01*
X12560000Y10010000D02*
X7760000Y10010000D01*
X13960000Y810000D02*
X13960000Y11810000D01*
X13960000Y810000D02*
X6360000Y810000D01*
X6360000Y810000D02*
X6360000Y11810000D01*
%TO.C,D1*%
X36820000Y11810000D02*
X36020000Y11810000D01*
X30620000Y11810000D02*
X30620000Y10010000D01*
X29220000Y11810000D02*
X30620000Y11810000D01*
X35420000Y10010000D02*
X30620000Y10010000D01*
X36820000Y810000D02*
X36820000Y11810000D01*
X36820000Y810000D02*
X29220000Y810000D01*
X29220000Y810000D02*
X29220000Y11810000D01*
%TO.C,D3*%
X21580000Y11810000D02*
X20780000Y11810000D01*
X15380000Y11810000D02*
X15380000Y10010000D01*
X13980000Y11810000D02*
X15380000Y11810000D01*
X20180000Y10010000D02*
X15380000Y10010000D01*
X21580000Y810000D02*
X21580000Y11810000D01*
X21580000Y810000D02*
X13980000Y810000D01*
X13980000Y810000D02*
X13980000Y11810000D01*
%TO.C,kibuzzard-6570C414*%
G36*
X17249775Y17692886D02*
G01*
X17351375Y17662525D01*
X17445037Y17611923D01*
X17530762Y17541081D01*
X17602299Y17456150D01*
X17653397Y17363281D01*
X17684055Y17262475D01*
X17694275Y17153731D01*
X17684055Y17042061D01*
X17653397Y16938823D01*
X17602299Y16844020D01*
X17530762Y16757650D01*
X17444740Y16685766D01*
X17350184Y16634420D01*
X17247096Y16603613D01*
X17135475Y16593344D01*
X17011650Y16593344D01*
X16865600Y16593344D01*
X16785431Y16604456D01*
X16741775Y16638588D01*
X16725106Y16683038D01*
X16721137Y16739394D01*
X16721137Y17412494D01*
X17011650Y17412494D01*
X17011650Y16883856D01*
X17140237Y16883856D01*
X17240647Y16903105D01*
X17325975Y16960850D01*
X17384316Y17045980D01*
X17403762Y17147381D01*
X17384316Y17248981D01*
X17325975Y17334706D01*
X17240250Y17393047D01*
X17138650Y17412494D01*
X17011650Y17412494D01*
X16721137Y17412494D01*
X16721137Y17560131D01*
X16723519Y17613313D01*
X16738600Y17656969D01*
X16783050Y17692688D01*
X16867187Y17703006D01*
X17140237Y17703006D01*
X17249775Y17692886D01*
G37*
G36*
X18394759Y17705338D02*
G01*
X18497550Y17674233D01*
X18591609Y17622391D01*
X18676938Y17549813D01*
X18747780Y17462252D01*
X18798381Y17365464D01*
X18828742Y17259449D01*
X18838863Y17144206D01*
X18828891Y17030948D01*
X18798977Y16926123D01*
X18749119Y16829732D01*
X18679319Y16741775D01*
X18595529Y16668502D01*
X18503702Y16616164D01*
X18403838Y16584761D01*
X18295937Y16574294D01*
X18288000Y16575032D01*
X18185011Y16584612D01*
X18082419Y16615569D01*
X17988161Y16667162D01*
X17902237Y16739394D01*
X17830701Y16826210D01*
X17779603Y16921559D01*
X17748945Y17025441D01*
X17738725Y17137856D01*
X17739268Y17144206D01*
X18029237Y17144206D01*
X18048486Y17037844D01*
X18106231Y16947356D01*
X18190170Y16885444D01*
X18288000Y16864806D01*
X18389005Y16884848D01*
X18472944Y16944975D01*
X18529498Y17034867D01*
X18548350Y17144206D01*
X18529300Y17252752D01*
X18472150Y17343438D01*
X18388409Y17404755D01*
X18289587Y17425194D01*
X18189575Y17404755D01*
X18105437Y17343438D01*
X18048287Y17252752D01*
X18029237Y17144206D01*
X17739268Y17144206D01*
X17748647Y17253942D01*
X17778412Y17360900D01*
X17828022Y17458730D01*
X17897475Y17547431D01*
X17981116Y17621052D01*
X18073291Y17673638D01*
X18173998Y17705189D01*
X18283237Y17715706D01*
X18394759Y17705338D01*
G37*
%TO.C,kibuzzard-6570C3FB*%
G36*
X23010813Y17615694D02*
G01*
X23261638Y16998156D01*
X23512463Y17615694D01*
X23587075Y17705387D01*
X23704550Y17682369D01*
X23795831Y17606169D01*
X23777575Y17496631D01*
X23401338Y16669544D01*
X23346569Y16611600D01*
X23264813Y16590169D01*
X23175913Y16610012D01*
X23121938Y16669544D01*
X22745700Y17496631D01*
X22729825Y17606962D01*
X22818725Y17682369D01*
X22937788Y17706181D01*
X23010813Y17615694D01*
G37*
G36*
X22494875Y17701419D02*
G01*
X22549644Y17698244D01*
X22592506Y17683163D01*
X22628225Y17638712D01*
X22639338Y17552194D01*
X22629019Y17472819D01*
X22594887Y17430750D01*
X22553613Y17416462D01*
X22502813Y17414081D01*
X22258338Y17414081D01*
X22247225Y17329944D01*
X22274213Y17333119D01*
X22282150Y17333119D01*
X22378635Y17320683D01*
X22467006Y17283377D01*
X22547263Y17221200D01*
X22610763Y17142619D01*
X22648863Y17056100D01*
X22661563Y16961644D01*
X22649215Y16856428D01*
X22612174Y16763030D01*
X22550438Y16681450D01*
X22470533Y16618391D01*
X22378988Y16580556D01*
X22275800Y16567944D01*
X22190075Y16574889D01*
X22110700Y16595725D01*
X22002750Y16650494D01*
X21969412Y16679069D01*
X21909088Y16775906D01*
X21967825Y16883856D01*
X22066250Y16937831D01*
X22174200Y16885444D01*
X22266275Y16860044D01*
X22342475Y16883856D01*
X22369463Y16950531D01*
X22340888Y17016412D01*
X22271038Y17042606D01*
X22209125Y17020381D01*
X22120225Y16982281D01*
X22017038Y17014031D01*
X21946394Y17061656D01*
X21926550Y17107694D01*
X21985288Y17558544D01*
X21993225Y17602994D01*
X22011481Y17646650D01*
X22055931Y17688719D01*
X22131338Y17703006D01*
X22494875Y17701419D01*
G37*
D10*
%TO.C,C1*%
X33160580Y14730000D02*
X32879420Y14730000D01*
X33160580Y15750000D02*
X32879420Y15750000D01*
%TO.C,G\u002A\u002A\u002A*%
G36*
X5114803Y11229838D02*
G01*
X4534717Y10873515D01*
X4667975Y10735377D01*
X5114803Y10735377D01*
X5114803Y10378821D01*
X3517563Y10378821D01*
X3322033Y10735377D01*
X4283885Y10735377D01*
X3816611Y11184877D01*
X3816611Y11606726D01*
X4293993Y11116912D01*
X5114803Y11661679D01*
X5114803Y11229838D01*
G37*
G36*
X4122857Y10227934D02*
G01*
X4120478Y10213261D01*
X4118360Y10197423D01*
X4116542Y10180767D01*
X4115062Y10163643D01*
X4113957Y10146400D01*
X4113266Y10129385D01*
X4113028Y10112947D01*
X4113568Y10088746D01*
X4115171Y10065557D01*
X4117810Y10043366D01*
X4121461Y10022156D01*
X4126098Y10001910D01*
X4131695Y9982614D01*
X4138226Y9964251D01*
X4145665Y9946805D01*
X4153987Y9930259D01*
X4163166Y9914598D01*
X4173177Y9899806D01*
X4183993Y9885866D01*
X4195589Y9872763D01*
X4207939Y9860481D01*
X4221017Y9849003D01*
X4234799Y9838313D01*
X4249257Y9828395D01*
X4264366Y9819234D01*
X4280101Y9810813D01*
X4296436Y9803116D01*
X4313345Y9796127D01*
X4330803Y9789830D01*
X4348783Y9784209D01*
X4367260Y9779248D01*
X4386208Y9774931D01*
X4405602Y9771241D01*
X4445623Y9765681D01*
X4487118Y9762439D01*
X4529880Y9761387D01*
X5114846Y9761387D01*
X5114846Y9404831D01*
X3877183Y9404831D01*
X3816653Y9743844D01*
X4057842Y9743844D01*
X4057842Y9748724D01*
X4042678Y9755376D01*
X4027820Y9762601D01*
X4013281Y9770381D01*
X3999072Y9778701D01*
X3985204Y9787542D01*
X3971689Y9796890D01*
X3958537Y9806726D01*
X3945761Y9817036D01*
X3933373Y9827801D01*
X3921382Y9839005D01*
X3909802Y9850632D01*
X3898643Y9862665D01*
X3887916Y9875088D01*
X3877634Y9887884D01*
X3867808Y9901035D01*
X3858449Y9914527D01*
X3849568Y9928341D01*
X3841177Y9942462D01*
X3833288Y9956873D01*
X3825911Y9971556D01*
X3819059Y9986497D01*
X3812743Y10001677D01*
X3806974Y10017080D01*
X3801764Y10032691D01*
X3797123Y10048491D01*
X3793065Y10064465D01*
X3789599Y10080596D01*
X3786738Y10096867D01*
X3784493Y10113261D01*
X3782875Y10129763D01*
X3781895Y10146355D01*
X3781566Y10163021D01*
X3781627Y10168198D01*
X3781805Y10173318D01*
X3782097Y10178386D01*
X3782498Y10183405D01*
X3783607Y10193309D01*
X3785096Y10203059D01*
X3786927Y10212684D01*
X3789066Y10222212D01*
X3791473Y10231673D01*
X3794114Y10241094D01*
X4125459Y10241094D01*
X4122857Y10227934D01*
G37*
G36*
X3596512Y12485267D02*
G01*
X3594938Y12468979D01*
X3593619Y12452570D01*
X3592548Y12436107D01*
X3591722Y12419655D01*
X3591137Y12403279D01*
X3590789Y12387045D01*
X3590674Y12371017D01*
X3591152Y12353333D01*
X3591757Y12345010D01*
X3592613Y12337029D01*
X3593724Y12329384D01*
X3595096Y12322072D01*
X3596734Y12315088D01*
X3598644Y12308429D01*
X3600829Y12302090D01*
X3603295Y12296068D01*
X3606047Y12290357D01*
X3609091Y12284954D01*
X3612431Y12279855D01*
X3616072Y12275056D01*
X3620020Y12270552D01*
X3624279Y12266339D01*
X3628855Y12262414D01*
X3633752Y12258772D01*
X3638976Y12255409D01*
X3644532Y12252321D01*
X3650425Y12249504D01*
X3656659Y12246953D01*
X3663240Y12244665D01*
X3670174Y12242635D01*
X3677464Y12240860D01*
X3685117Y12239334D01*
X3693136Y12238055D01*
X3701528Y12237017D01*
X3719449Y12235651D01*
X3738920Y12235203D01*
X3816644Y12235203D01*
X3816644Y12481156D01*
X4055161Y12481156D01*
X4055161Y12235203D01*
X5114953Y12235203D01*
X5114953Y11878647D01*
X4055161Y11878647D01*
X4055161Y11526971D01*
X3816644Y11770019D01*
X3816644Y11878647D01*
X3716497Y11878647D01*
X3695024Y11879067D01*
X3673967Y11880327D01*
X3653343Y11882428D01*
X3633170Y11885371D01*
X3613464Y11889157D01*
X3594244Y11893787D01*
X3575527Y11899261D01*
X3557331Y11905581D01*
X3539672Y11912747D01*
X3522568Y11920760D01*
X3506037Y11929622D01*
X3490096Y11939332D01*
X3474763Y11949892D01*
X3460054Y11961303D01*
X3445989Y11973565D01*
X3432583Y11986680D01*
X3419854Y12000648D01*
X3407820Y12015470D01*
X3396498Y12031148D01*
X3385906Y12047681D01*
X3376062Y12065071D01*
X3366981Y12083319D01*
X3358683Y12102425D01*
X3351184Y12122391D01*
X3344502Y12143217D01*
X3338654Y12164904D01*
X3333658Y12187453D01*
X3329532Y12210865D01*
X3326292Y12235141D01*
X3323956Y12260281D01*
X3322542Y12286287D01*
X3322066Y12313160D01*
X3322396Y12336762D01*
X3323285Y12360539D01*
X3324585Y12384393D01*
X3326147Y12408224D01*
X3329468Y12455429D01*
X3330928Y12478607D01*
X3332058Y12501371D01*
X3598342Y12501371D01*
X3596512Y12485267D01*
G37*
G36*
X5114878Y13460124D02*
G01*
X4933986Y13460124D01*
X4933986Y13452572D01*
X4947638Y13443930D01*
X4960822Y13434916D01*
X4973541Y13425543D01*
X4985795Y13415825D01*
X4997589Y13405774D01*
X5008923Y13395402D01*
X5019801Y13384724D01*
X5030224Y13373752D01*
X5040195Y13362498D01*
X5049717Y13350976D01*
X5058790Y13339199D01*
X5067418Y13327180D01*
X5083348Y13302466D01*
X5097523Y13276937D01*
X5109963Y13250699D01*
X5120685Y13223852D01*
X5129707Y13196503D01*
X5137048Y13168752D01*
X5142726Y13140706D01*
X5146759Y13112465D01*
X5149166Y13084135D01*
X5149964Y13055819D01*
X5149342Y13021104D01*
X5147490Y12988017D01*
X5144426Y12956524D01*
X5140171Y12926589D01*
X5134743Y12898179D01*
X5128161Y12871259D01*
X5120445Y12845794D01*
X5111614Y12821751D01*
X5101687Y12799093D01*
X5090684Y12777788D01*
X5078624Y12757801D01*
X5065526Y12739096D01*
X5051410Y12721640D01*
X5036294Y12705398D01*
X5020198Y12690336D01*
X5003142Y12676419D01*
X4985144Y12663612D01*
X4966224Y12651882D01*
X4946401Y12641193D01*
X4925694Y12631512D01*
X4904123Y12622803D01*
X4881707Y12615032D01*
X4858465Y12608165D01*
X4834416Y12602167D01*
X4783977Y12592642D01*
X4730542Y12586179D01*
X4674267Y12582504D01*
X4615305Y12581341D01*
X3816685Y12581341D01*
X3816685Y12938012D01*
X4549779Y12938012D01*
X4588551Y12938730D01*
X4624792Y12940931D01*
X4658505Y12944684D01*
X4689696Y12950058D01*
X4718368Y12957123D01*
X4744526Y12965949D01*
X4756663Y12971044D01*
X4768172Y12976605D01*
X4779056Y12982641D01*
X4789313Y12989160D01*
X4798944Y12996171D01*
X4807951Y13003683D01*
X4816333Y13011705D01*
X4824091Y13020245D01*
X4831225Y13029312D01*
X4837736Y13038915D01*
X4843625Y13049061D01*
X4848891Y13059761D01*
X4853536Y13071022D01*
X4857560Y13082854D01*
X4860964Y13095264D01*
X4863748Y13108262D01*
X4865912Y13121857D01*
X4867457Y13136056D01*
X4868384Y13150870D01*
X4868693Y13166305D01*
X4868375Y13184127D01*
X4867415Y13201305D01*
X4865805Y13217843D01*
X4863535Y13233748D01*
X4860598Y13249024D01*
X4856985Y13263676D01*
X4852686Y13277709D01*
X4847693Y13291130D01*
X4841998Y13303941D01*
X4835592Y13316150D01*
X4828465Y13327761D01*
X4820611Y13338779D01*
X4812019Y13349210D01*
X4802681Y13359057D01*
X4792588Y13368328D01*
X4781732Y13377026D01*
X4770105Y13385158D01*
X4757696Y13392727D01*
X4744498Y13399740D01*
X4730503Y13406201D01*
X4715700Y13412115D01*
X4700082Y13417488D01*
X4683641Y13422326D01*
X4666366Y13426632D01*
X4648250Y13430412D01*
X4629284Y13433671D01*
X4609459Y13436415D01*
X4588767Y13438648D01*
X4567199Y13440377D01*
X4544746Y13441605D01*
X4497150Y13442581D01*
X3816685Y13442581D01*
X3816685Y13799253D01*
X5114878Y13799253D01*
X5114878Y13460124D01*
G37*
G36*
X5114926Y14857390D02*
G01*
X4381832Y14857390D01*
X4343059Y14856670D01*
X4306815Y14854461D01*
X4273095Y14850697D01*
X4241897Y14845308D01*
X4213216Y14838225D01*
X4187049Y14829379D01*
X4174907Y14824274D01*
X4163391Y14818702D01*
X4152503Y14812656D01*
X4142240Y14806126D01*
X4132603Y14799103D01*
X4123591Y14791580D01*
X4115204Y14783548D01*
X4107441Y14774998D01*
X4100302Y14765921D01*
X4093786Y14756309D01*
X4087892Y14746153D01*
X4082622Y14735445D01*
X4077973Y14724176D01*
X4073945Y14712337D01*
X4070538Y14699920D01*
X4067752Y14686917D01*
X4065586Y14673318D01*
X4064039Y14659115D01*
X4063111Y14644300D01*
X4062802Y14628864D01*
X4063120Y14611064D01*
X4064080Y14593907D01*
X4065690Y14577388D01*
X4067960Y14561503D01*
X4070897Y14546246D01*
X4074512Y14531612D01*
X4078811Y14517596D01*
X4083805Y14504192D01*
X4089502Y14491396D01*
X4095910Y14479203D01*
X4103039Y14467607D01*
X4110896Y14456603D01*
X4119492Y14446186D01*
X4128834Y14436350D01*
X4138931Y14427092D01*
X4149792Y14418404D01*
X4161425Y14410284D01*
X4173840Y14402724D01*
X4187045Y14395721D01*
X4201049Y14389268D01*
X4215861Y14383362D01*
X4231488Y14377995D01*
X4247941Y14373165D01*
X4265227Y14368865D01*
X4283356Y14365090D01*
X4302336Y14361835D01*
X4322176Y14359094D01*
X4342884Y14356864D01*
X4364470Y14355138D01*
X4386941Y14353912D01*
X4434578Y14352937D01*
X5114926Y14352937D01*
X5114926Y13996149D01*
X3816733Y13996149D01*
X3816733Y14335045D01*
X3997509Y14335045D01*
X3997509Y14342714D01*
X3983867Y14351366D01*
X3970693Y14360388D01*
X3957984Y14369767D01*
X3945738Y14379490D01*
X3933952Y14389544D01*
X3922625Y14399917D01*
X3911755Y14410596D01*
X3901338Y14421567D01*
X3891372Y14432819D01*
X3881857Y14444338D01*
X3872788Y14456111D01*
X3864164Y14468127D01*
X3848243Y14492831D01*
X3834073Y14518349D01*
X3821639Y14544577D01*
X3810921Y14571413D01*
X3801901Y14598755D01*
X3794561Y14626501D01*
X3788884Y14654547D01*
X3784852Y14682792D01*
X3782445Y14711133D01*
X3781647Y14739467D01*
X3782269Y14774182D01*
X3784123Y14807269D01*
X3787188Y14838762D01*
X3791445Y14868697D01*
X3796876Y14897107D01*
X3803461Y14924027D01*
X3811180Y14949491D01*
X3820014Y14973535D01*
X3829944Y14996192D01*
X3840951Y15017497D01*
X3853014Y15037485D01*
X3866116Y15056190D01*
X3880236Y15073646D01*
X3895355Y15089887D01*
X3911454Y15104950D01*
X3928513Y15118867D01*
X3946514Y15131673D01*
X3965436Y15143404D01*
X3985261Y15154093D01*
X4005968Y15163774D01*
X4027540Y15172483D01*
X4049956Y15180254D01*
X4073197Y15187121D01*
X4097244Y15193118D01*
X4147678Y15202644D01*
X4201103Y15209107D01*
X4257364Y15212782D01*
X4316306Y15213945D01*
X5114926Y15213945D01*
X5114926Y14857390D01*
G37*
G36*
X4544218Y7877673D02*
G01*
X4607901Y7871043D01*
X4670167Y7859985D01*
X4730574Y7844492D01*
X4788682Y7824554D01*
X4844049Y7800167D01*
X4870567Y7786302D01*
X4896235Y7771322D01*
X4920997Y7755225D01*
X4944799Y7738011D01*
X4967585Y7719679D01*
X4989300Y7700228D01*
X5009890Y7679657D01*
X5029298Y7657965D01*
X5047471Y7635152D01*
X5064352Y7611215D01*
X5079887Y7586155D01*
X5094021Y7559971D01*
X5106698Y7532661D01*
X5117864Y7504225D01*
X5127463Y7474661D01*
X5135440Y7443970D01*
X5141741Y7412149D01*
X5146309Y7379198D01*
X5149091Y7345117D01*
X5150030Y7309903D01*
X5149237Y7280401D01*
X5146865Y7251318D01*
X5142926Y7222710D01*
X5137432Y7194638D01*
X5130394Y7167160D01*
X5121823Y7140333D01*
X5111732Y7114217D01*
X5100131Y7088871D01*
X5087033Y7064352D01*
X5072449Y7040720D01*
X5056390Y7018032D01*
X5038868Y6996348D01*
X5019895Y6975726D01*
X4999482Y6956224D01*
X4977641Y6937902D01*
X4954384Y6920817D01*
X4954384Y6915589D01*
X5889051Y6915589D01*
X5571879Y6559033D01*
X4469565Y6559033D01*
X3877164Y6559033D01*
X3816751Y6898162D01*
X3982423Y6898162D01*
X3982423Y6903158D01*
X3969469Y6911549D01*
X3956983Y6920228D01*
X3944962Y6929191D01*
X3933402Y6938432D01*
X3922300Y6947946D01*
X3911651Y6957729D01*
X3901452Y6967775D01*
X3891700Y6978079D01*
X3882389Y6988636D01*
X3873517Y6999442D01*
X3865080Y7010491D01*
X3857074Y7021778D01*
X3849495Y7033298D01*
X3842339Y7045047D01*
X3835604Y7057018D01*
X3829284Y7069208D01*
X3823376Y7081610D01*
X3817877Y7094221D01*
X3808089Y7120046D01*
X3799890Y7146644D01*
X3793248Y7173973D01*
X3788135Y7201993D01*
X3786864Y7212080D01*
X4050272Y7212080D01*
X4050877Y7190638D01*
X4052666Y7170108D01*
X4055601Y7150476D01*
X4059645Y7131726D01*
X4064759Y7113843D01*
X4070907Y7096812D01*
X4078050Y7080618D01*
X4086150Y7065245D01*
X4095170Y7050678D01*
X4105072Y7036902D01*
X4115818Y7023902D01*
X4127370Y7011662D01*
X4139691Y7000168D01*
X4152743Y6989403D01*
X4166488Y6979354D01*
X4180888Y6970005D01*
X4195905Y6961339D01*
X4211502Y6953344D01*
X4227641Y6946002D01*
X4244284Y6939299D01*
X4261393Y6933219D01*
X4278931Y6927749D01*
X4296859Y6922871D01*
X4315141Y6918571D01*
X4352611Y6911645D01*
X4391041Y6906849D01*
X4430126Y6904060D01*
X4469565Y6903158D01*
X4508938Y6904113D01*
X4547794Y6907049D01*
X4585855Y6912070D01*
X4622841Y6919279D01*
X4658473Y6928782D01*
X4692472Y6940683D01*
X4724558Y6955086D01*
X4739797Y6963259D01*
X4754453Y6972096D01*
X4768491Y6981610D01*
X4781876Y6991816D01*
X4794574Y7002725D01*
X4806549Y7014351D01*
X4817767Y7026707D01*
X4828193Y7039805D01*
X4837791Y7053660D01*
X4846527Y7068284D01*
X4854366Y7083689D01*
X4861273Y7099890D01*
X4867214Y7116898D01*
X4872152Y7134728D01*
X4876054Y7153392D01*
X4878884Y7172903D01*
X4880608Y7193275D01*
X4881190Y7214519D01*
X4880608Y7235951D01*
X4878884Y7256469D01*
X4876054Y7276091D01*
X4872152Y7294830D01*
X4867214Y7312702D01*
X4861273Y7329722D01*
X4854366Y7345906D01*
X4846527Y7361269D01*
X4837791Y7375826D01*
X4828193Y7389592D01*
X4817767Y7402582D01*
X4806549Y7414812D01*
X4794574Y7426298D01*
X4781876Y7437053D01*
X4768491Y7447094D01*
X4754453Y7456435D01*
X4739797Y7465092D01*
X4724558Y7473080D01*
X4708772Y7480415D01*
X4692472Y7487111D01*
X4675694Y7493184D01*
X4658473Y7498649D01*
X4640844Y7503521D01*
X4622841Y7507815D01*
X4585855Y7514733D01*
X4547794Y7519523D01*
X4508938Y7522308D01*
X4469565Y7523209D01*
X4430528Y7522224D01*
X4391741Y7519209D01*
X4353517Y7514070D01*
X4316170Y7506715D01*
X4280012Y7497053D01*
X4245356Y7484991D01*
X4212515Y7470437D01*
X4196873Y7462196D01*
X4181802Y7453298D01*
X4167342Y7443730D01*
X4153531Y7433482D01*
X4140408Y7422542D01*
X4128014Y7410898D01*
X4116385Y7398539D01*
X4105563Y7385453D01*
X4095586Y7371628D01*
X4086493Y7357054D01*
X4078323Y7341718D01*
X4071116Y7325609D01*
X4064910Y7308716D01*
X4059745Y7291027D01*
X4055659Y7272530D01*
X4052692Y7253215D01*
X4050884Y7233068D01*
X4050272Y7212080D01*
X3786864Y7212080D01*
X3784521Y7230666D01*
X3782374Y7259949D01*
X3781665Y7289804D01*
X3782620Y7327283D01*
X3785449Y7363460D01*
X3790099Y7398343D01*
X3796518Y7431939D01*
X3804653Y7464255D01*
X3814450Y7495299D01*
X3825857Y7525078D01*
X3838822Y7553599D01*
X3853290Y7580870D01*
X3869210Y7606898D01*
X3886527Y7631690D01*
X3905191Y7655254D01*
X3925147Y7677596D01*
X3946342Y7698725D01*
X3968724Y7718648D01*
X3992241Y7737372D01*
X4016838Y7754904D01*
X4042463Y7771252D01*
X4069064Y7786423D01*
X4096587Y7800424D01*
X4124979Y7813263D01*
X4154188Y7824947D01*
X4184161Y7835484D01*
X4214845Y7844880D01*
X4246186Y7853143D01*
X4278133Y7860281D01*
X4343630Y7871209D01*
X4410912Y7877723D01*
X4479557Y7879881D01*
X4544218Y7877673D01*
G37*
G36*
X5114963Y8886671D02*
G01*
X5099769Y8882051D01*
X5084362Y8877727D01*
X5068778Y8873754D01*
X5053053Y8870188D01*
X5037225Y8867085D01*
X5021330Y8864501D01*
X5005406Y8862491D01*
X4989488Y8861112D01*
X5010743Y8839402D01*
X5030277Y8816585D01*
X5048138Y8792739D01*
X5064373Y8767941D01*
X5079032Y8742268D01*
X5092163Y8715797D01*
X5103814Y8688607D01*
X5114033Y8660774D01*
X5122869Y8632376D01*
X5130370Y8603491D01*
X5136584Y8574195D01*
X5141560Y8544567D01*
X5145346Y8514684D01*
X5147991Y8484622D01*
X5149542Y8454460D01*
X5150049Y8424276D01*
X5148603Y8378362D01*
X5144247Y8333947D01*
X5136949Y8291231D01*
X5126680Y8250418D01*
X5120422Y8230788D01*
X5113410Y8211709D01*
X5105640Y8193207D01*
X5097108Y8175306D01*
X5087811Y8158033D01*
X5077745Y8141412D01*
X5066906Y8125468D01*
X5055290Y8110227D01*
X5042893Y8095714D01*
X5029713Y8081955D01*
X5015744Y8068974D01*
X5000984Y8056797D01*
X4985428Y8045449D01*
X4969072Y8034955D01*
X4951914Y8025341D01*
X4933949Y8016632D01*
X4915173Y8008852D01*
X4895583Y8002028D01*
X4875175Y7996185D01*
X4853945Y7991347D01*
X4831889Y7987541D01*
X4809004Y7984791D01*
X4785286Y7983122D01*
X4760731Y7982560D01*
X4745859Y7983390D01*
X4708041Y7985499D01*
X4660383Y7993208D01*
X4617480Y8005365D01*
X4579055Y8021649D01*
X4544831Y8041737D01*
X4514530Y8065308D01*
X4487875Y8092040D01*
X4464590Y8121611D01*
X4444397Y8153699D01*
X4427018Y8187983D01*
X4412178Y8224140D01*
X4399598Y8261848D01*
X4389002Y8300787D01*
X4380112Y8340633D01*
X4366343Y8421763D01*
X4347090Y8580758D01*
X4337172Y8653473D01*
X4324103Y8718234D01*
X4315694Y8746827D01*
X4305666Y8772466D01*
X4293742Y8794829D01*
X4279645Y8813594D01*
X4263097Y8828440D01*
X4243822Y8839044D01*
X4221542Y8845085D01*
X4195980Y8846241D01*
X4479575Y8846241D01*
X4484385Y8840399D01*
X4488913Y8834191D01*
X4493169Y8827630D01*
X4497168Y8820731D01*
X4504442Y8805978D01*
X4510833Y8790050D01*
X4516442Y8773064D01*
X4521369Y8755137D01*
X4525714Y8736388D01*
X4529576Y8716933D01*
X4555092Y8549982D01*
X4559075Y8529404D01*
X4563641Y8509190D01*
X4568894Y8489473D01*
X4574933Y8470386D01*
X4581862Y8452063D01*
X4589781Y8434635D01*
X4598793Y8418237D01*
X4603740Y8410465D01*
X4608999Y8403000D01*
X4614582Y8395859D01*
X4620502Y8389058D01*
X4626771Y8382615D01*
X4633402Y8376544D01*
X4640408Y8370864D01*
X4647802Y8365591D01*
X4655596Y8360741D01*
X4663804Y8356331D01*
X4672437Y8352377D01*
X4681508Y8348897D01*
X4691031Y8345907D01*
X4701018Y8343423D01*
X4711481Y8341462D01*
X4722434Y8340041D01*
X4733889Y8339176D01*
X4745859Y8338884D01*
X4757824Y8339183D01*
X4769240Y8340069D01*
X4780118Y8341526D01*
X4790471Y8343538D01*
X4800307Y8346087D01*
X4809640Y8349157D01*
X4818479Y8352731D01*
X4826837Y8356794D01*
X4834723Y8361327D01*
X4842149Y8366316D01*
X4849126Y8371743D01*
X4855666Y8377592D01*
X4861778Y8383846D01*
X4867475Y8390489D01*
X4872767Y8397503D01*
X4877665Y8404874D01*
X4882181Y8412583D01*
X4886326Y8420615D01*
X4890109Y8428953D01*
X4893544Y8437580D01*
X4896640Y8446480D01*
X4899409Y8455636D01*
X4901862Y8465032D01*
X4904009Y8474651D01*
X4907433Y8494492D01*
X4909769Y8515027D01*
X4911106Y8536124D01*
X4911532Y8557650D01*
X4910902Y8582990D01*
X4909058Y8606803D01*
X4906064Y8629137D01*
X4901985Y8650039D01*
X4896887Y8669557D01*
X4890836Y8687737D01*
X4883896Y8704628D01*
X4876133Y8720276D01*
X4867613Y8734730D01*
X4858400Y8748035D01*
X4848560Y8760241D01*
X4838159Y8771393D01*
X4827261Y8781540D01*
X4815933Y8790728D01*
X4804238Y8799006D01*
X4792244Y8806420D01*
X4780015Y8813018D01*
X4767616Y8818847D01*
X4755113Y8823954D01*
X4742572Y8828388D01*
X4717633Y8835421D01*
X4693324Y8840326D01*
X4670167Y8843482D01*
X4648684Y8845267D01*
X4612833Y8846241D01*
X4479575Y8846241D01*
X4195980Y8846241D01*
X4182217Y8845934D01*
X4169171Y8845024D01*
X4156823Y8843527D01*
X4145154Y8841458D01*
X4134146Y8838833D01*
X4123782Y8835668D01*
X4114042Y8831979D01*
X4104908Y8827781D01*
X4096362Y8823090D01*
X4088386Y8817921D01*
X4080961Y8812291D01*
X4074070Y8806215D01*
X4067693Y8799709D01*
X4061812Y8792789D01*
X4056410Y8785469D01*
X4051467Y8777767D01*
X4046966Y8769698D01*
X4042888Y8761277D01*
X4039215Y8752520D01*
X4035928Y8743443D01*
X4033010Y8734062D01*
X4030441Y8724392D01*
X4028204Y8714449D01*
X4026280Y8704249D01*
X4023299Y8683140D01*
X4021351Y8661191D01*
X4020289Y8638527D01*
X4019968Y8615275D01*
X4020626Y8589997D01*
X4022629Y8565985D01*
X4026020Y8543268D01*
X4030842Y8521876D01*
X4033803Y8511685D01*
X4037138Y8501837D01*
X4040853Y8492335D01*
X4044953Y8483182D01*
X4049442Y8474383D01*
X4054328Y8465940D01*
X4059614Y8457858D01*
X4065307Y8450140D01*
X4071412Y8442790D01*
X4077934Y8435812D01*
X4084879Y8429209D01*
X4092251Y8422985D01*
X4100058Y8417144D01*
X4108303Y8411689D01*
X4116992Y8406624D01*
X4126131Y8401953D01*
X4135725Y8397679D01*
X4145780Y8393806D01*
X4156300Y8390338D01*
X4167292Y8387279D01*
X4178760Y8384631D01*
X4190711Y8382400D01*
X4203149Y8380587D01*
X4216080Y8379198D01*
X4216080Y8022526D01*
X4185671Y8025218D01*
X4156578Y8029491D01*
X4128778Y8035292D01*
X4102248Y8042569D01*
X4076966Y8051269D01*
X4052907Y8061340D01*
X4030049Y8072730D01*
X4008370Y8085386D01*
X3987845Y8099256D01*
X3968453Y8114288D01*
X3950169Y8130428D01*
X3932972Y8147624D01*
X3916838Y8165825D01*
X3901744Y8184978D01*
X3887666Y8205029D01*
X3874583Y8225928D01*
X3862471Y8247621D01*
X3851307Y8270056D01*
X3841069Y8293180D01*
X3831732Y8316942D01*
X3823274Y8341288D01*
X3815673Y8366167D01*
X3808904Y8391526D01*
X3802946Y8417312D01*
X3793367Y8469958D01*
X3786754Y8523684D01*
X3782920Y8578072D01*
X3781683Y8632702D01*
X3782406Y8681744D01*
X3784767Y8731488D01*
X3789053Y8781401D01*
X3795550Y8830950D01*
X3804547Y8879601D01*
X3816329Y8926821D01*
X3831185Y8972076D01*
X3849401Y9014832D01*
X3859859Y9035107D01*
X3871265Y9054556D01*
X3883654Y9073115D01*
X3897063Y9090715D01*
X3911527Y9107290D01*
X3927083Y9122775D01*
X3943765Y9137100D01*
X3961611Y9150201D01*
X3980656Y9162011D01*
X4000935Y9172462D01*
X4022485Y9181489D01*
X4045342Y9189023D01*
X4069542Y9195000D01*
X4095119Y9199351D01*
X4122111Y9202011D01*
X4150554Y9202913D01*
X4826256Y9202913D01*
X4870354Y9203515D01*
X4913697Y9205381D01*
X4955518Y9208598D01*
X4995050Y9213253D01*
X5013719Y9216146D01*
X5031527Y9219432D01*
X5048381Y9223121D01*
X5064183Y9227223D01*
X5078838Y9231751D01*
X5092250Y9236714D01*
X5104324Y9242123D01*
X5114963Y9247991D01*
X5114963Y8886671D01*
G37*
G36*
X4729463Y6415775D02*
G01*
X4759479Y6413213D01*
X4788184Y6409010D01*
X4815601Y6403223D01*
X4841752Y6395907D01*
X4866659Y6387118D01*
X4890344Y6376911D01*
X4912829Y6365343D01*
X4934137Y6352468D01*
X4954289Y6338343D01*
X4973307Y6323023D01*
X4991215Y6306564D01*
X5008033Y6289021D01*
X5023783Y6270451D01*
X5038489Y6250908D01*
X5052173Y6230449D01*
X5064855Y6209129D01*
X5076559Y6187004D01*
X5087306Y6164130D01*
X5097120Y6140561D01*
X5106021Y6116355D01*
X5114031Y6091566D01*
X5121174Y6066251D01*
X5127472Y6040464D01*
X5137617Y5987700D01*
X5144644Y5933720D01*
X5148731Y5878969D01*
X5150054Y5823892D01*
X5148703Y5767554D01*
X5144534Y5711739D01*
X5137374Y5656855D01*
X5127049Y5603310D01*
X5113384Y5551514D01*
X5096207Y5501875D01*
X5075343Y5454800D01*
X5063474Y5432352D01*
X5050619Y5410699D01*
X5036755Y5389891D01*
X5021860Y5369980D01*
X5005914Y5351016D01*
X4988894Y5333051D01*
X4970779Y5316135D01*
X4951547Y5300321D01*
X4931175Y5285658D01*
X4909644Y5272198D01*
X4886930Y5259992D01*
X4863012Y5249091D01*
X4837868Y5239546D01*
X4811477Y5231408D01*
X4783816Y5224728D01*
X4754865Y5219558D01*
X4724601Y5215947D01*
X4693003Y5213948D01*
X4693003Y5552729D01*
X4707102Y5553123D01*
X4720691Y5554288D01*
X4733775Y5556200D01*
X4746357Y5558834D01*
X4758441Y5562166D01*
X4770031Y5566172D01*
X4781133Y5570827D01*
X4791748Y5576106D01*
X4801883Y5581986D01*
X4811540Y5588441D01*
X4820725Y5595447D01*
X4829440Y5602980D01*
X4837690Y5611015D01*
X4845479Y5619528D01*
X4852812Y5628494D01*
X4859692Y5637889D01*
X4866123Y5647688D01*
X4872110Y5657867D01*
X4877656Y5668402D01*
X4882766Y5679267D01*
X4887444Y5690439D01*
X4891693Y5701893D01*
X4895519Y5713605D01*
X4898924Y5725550D01*
X4901914Y5737703D01*
X4904491Y5750041D01*
X4908427Y5775171D01*
X4910765Y5800744D01*
X4911537Y5826564D01*
X4911056Y5845729D01*
X4909570Y5865418D01*
X4907011Y5885390D01*
X4903314Y5905400D01*
X4898412Y5925206D01*
X4892238Y5944564D01*
X4884727Y5963232D01*
X4875812Y5980967D01*
X4870807Y5989409D01*
X4865426Y5997526D01*
X4859661Y6005288D01*
X4853504Y6012666D01*
X4846946Y6019627D01*
X4839978Y6026143D01*
X4832594Y6032182D01*
X4824783Y6037714D01*
X4816539Y6042709D01*
X4807853Y6047137D01*
X4798715Y6050967D01*
X4789119Y6054169D01*
X4779056Y6056712D01*
X4768518Y6058566D01*
X4757495Y6059701D01*
X4745981Y6060086D01*
X4736047Y6059646D01*
X4726496Y6058332D01*
X4717313Y6056152D01*
X4708482Y6053116D01*
X4699990Y6049232D01*
X4691821Y6044508D01*
X4683962Y6038954D01*
X4676397Y6032579D01*
X4669111Y6025390D01*
X4662091Y6017397D01*
X4655321Y6008609D01*
X4648788Y5999034D01*
X4642475Y5988681D01*
X4636369Y5977558D01*
X4630455Y5965675D01*
X4624718Y5953041D01*
X4619144Y5939663D01*
X4613719Y5925551D01*
X4608426Y5910714D01*
X4603252Y5895159D01*
X4593203Y5861935D01*
X4583453Y5825949D01*
X4573885Y5787271D01*
X4564383Y5745970D01*
X4554829Y5702116D01*
X4545106Y5655780D01*
X4525941Y5578247D01*
X4515131Y5540386D01*
X4503225Y5503516D01*
X4490013Y5467927D01*
X4475285Y5433909D01*
X4458831Y5401753D01*
X4440443Y5371750D01*
X4430458Y5357646D01*
X4419910Y5344189D01*
X4408774Y5331415D01*
X4397024Y5319360D01*
X4384632Y5308062D01*
X4371574Y5297555D01*
X4357822Y5287877D01*
X4343351Y5279064D01*
X4328134Y5271151D01*
X4312146Y5264176D01*
X4295360Y5258174D01*
X4277749Y5253182D01*
X4259288Y5249237D01*
X4239951Y5246373D01*
X4219711Y5244629D01*
X4198542Y5244039D01*
X4168173Y5244868D01*
X4139218Y5247319D01*
X4111647Y5251339D01*
X4085431Y5256874D01*
X4060540Y5263870D01*
X4036945Y5272273D01*
X4014616Y5282030D01*
X3993524Y5293087D01*
X3973640Y5305390D01*
X3954933Y5318886D01*
X3937374Y5333520D01*
X3920934Y5349240D01*
X3905584Y5365991D01*
X3891293Y5383720D01*
X3878033Y5402373D01*
X3865774Y5421896D01*
X3854486Y5442235D01*
X3844140Y5463338D01*
X3834706Y5485149D01*
X3826156Y5507616D01*
X3818459Y5530685D01*
X3811586Y5554302D01*
X3805507Y5578412D01*
X3800194Y5602964D01*
X3791744Y5653173D01*
X3786000Y5704501D01*
X3782727Y5756516D01*
X3781689Y5808789D01*
X3782836Y5861307D01*
X3786405Y5913083D01*
X3792583Y5963800D01*
X3801559Y6013138D01*
X3813520Y6060779D01*
X3828656Y6106402D01*
X3847153Y6149690D01*
X3857722Y6170359D01*
X3869201Y6190323D01*
X3881615Y6209545D01*
X3894988Y6227983D01*
X3909342Y6245599D01*
X3924701Y6262351D01*
X3941089Y6278200D01*
X3958529Y6293107D01*
X3977046Y6307031D01*
X3996661Y6319933D01*
X4017400Y6331772D01*
X4039285Y6342510D01*
X4062339Y6352105D01*
X4086588Y6360518D01*
X4112053Y6367710D01*
X4138759Y6373640D01*
X4166729Y6378268D01*
X4195986Y6381555D01*
X4195986Y6042659D01*
X4183327Y6041413D01*
X4171245Y6039624D01*
X4159727Y6037305D01*
X4148762Y6034468D01*
X4138339Y6031128D01*
X4128447Y6027297D01*
X4119073Y6022988D01*
X4110207Y6018216D01*
X4101837Y6012993D01*
X4093952Y6007332D01*
X4086540Y6001247D01*
X4079589Y5994750D01*
X4073090Y5987856D01*
X4067029Y5980578D01*
X4061395Y5972928D01*
X4056178Y5964920D01*
X4051366Y5956567D01*
X4046946Y5947883D01*
X4042909Y5938881D01*
X4039242Y5929573D01*
X4035934Y5919974D01*
X4032974Y5910096D01*
X4030349Y5899953D01*
X4028050Y5889558D01*
X4024379Y5868064D01*
X4021871Y5845722D01*
X4020433Y5822636D01*
X4019974Y5798914D01*
X4020143Y5783435D01*
X4020734Y5767300D01*
X4021865Y5750736D01*
X4023659Y5733973D01*
X4026235Y5717238D01*
X4029715Y5700760D01*
X4034219Y5684768D01*
X4039869Y5669489D01*
X4043161Y5662189D01*
X4046785Y5655153D01*
X4050756Y5648409D01*
X4055088Y5641987D01*
X4059798Y5635914D01*
X4064899Y5630220D01*
X4070408Y5624933D01*
X4076339Y5620080D01*
X4082707Y5615692D01*
X4089528Y5611796D01*
X4096816Y5608422D01*
X4104587Y5605596D01*
X4112856Y5603349D01*
X4121638Y5601709D01*
X4130947Y5600704D01*
X4140800Y5600362D01*
X4152463Y5600953D01*
X4163507Y5602699D01*
X4173958Y5605562D01*
X4183840Y5609506D01*
X4193180Y5614492D01*
X4202004Y5620482D01*
X4210336Y5627438D01*
X4218203Y5635324D01*
X4225630Y5644100D01*
X4232643Y5653729D01*
X4239267Y5664174D01*
X4245528Y5675396D01*
X4251451Y5687358D01*
X4257062Y5700021D01*
X4262387Y5713349D01*
X4267451Y5727303D01*
X4276899Y5756939D01*
X4285611Y5788627D01*
X4293792Y5822064D01*
X4301646Y5856947D01*
X4317193Y5929845D01*
X4325296Y5967254D01*
X4333891Y6004900D01*
X4343222Y6043834D01*
X4353401Y6082367D01*
X4364630Y6120208D01*
X4377110Y6157067D01*
X4391044Y6192651D01*
X4406635Y6226670D01*
X4424084Y6258831D01*
X4443594Y6288844D01*
X4454185Y6302954D01*
X4465366Y6316417D01*
X4477164Y6329198D01*
X4489604Y6341259D01*
X4502710Y6352565D01*
X4516508Y6363079D01*
X4531024Y6372764D01*
X4546282Y6381584D01*
X4562308Y6389504D01*
X4579128Y6396485D01*
X4596765Y6402492D01*
X4615247Y6407489D01*
X4634597Y6411439D01*
X4654842Y6414305D01*
X4676006Y6416051D01*
X4698115Y6416642D01*
X4729463Y6415775D01*
G37*
G36*
X2178476Y12668018D02*
G01*
X2219047Y12664910D01*
X2260108Y12659561D01*
X2301570Y12651865D01*
X2343345Y12641715D01*
X2385345Y12629006D01*
X2427481Y12613631D01*
X2469665Y12595485D01*
X2511809Y12574461D01*
X2553825Y12550453D01*
X2595624Y12523355D01*
X2637873Y12492606D01*
X2677974Y12460077D01*
X2715814Y12425746D01*
X2751280Y12389592D01*
X2784259Y12351593D01*
X2814637Y12311727D01*
X2842300Y12269974D01*
X2867137Y12226312D01*
X2889032Y12180719D01*
X2907874Y12133174D01*
X2923548Y12083656D01*
X2935941Y12032143D01*
X2944939Y11978613D01*
X2950431Y11923046D01*
X2952301Y11865419D01*
X2950438Y11805712D01*
X2949493Y11789930D01*
X2949328Y11774671D01*
X2949929Y11759901D01*
X2951282Y11745586D01*
X2953372Y11731691D01*
X2956186Y11718183D01*
X2959708Y11705028D01*
X2963925Y11692192D01*
X2968823Y11679640D01*
X2974386Y11667339D01*
X2980602Y11655255D01*
X2987455Y11643353D01*
X3003017Y11619962D01*
X3020959Y11596893D01*
X3041166Y11573875D01*
X3063524Y11550635D01*
X3087921Y11526901D01*
X3114240Y11502401D01*
X3236472Y11391298D01*
X3295652Y11336766D01*
X3352790Y11285520D01*
X3406083Y11238789D01*
X3453729Y11197801D01*
X3493924Y11163783D01*
X3524867Y11137965D01*
X3551784Y11115836D01*
X2375115Y11115836D01*
X2351781Y11115391D01*
X2329321Y11115571D01*
X2307717Y11116359D01*
X2286952Y11117739D01*
X2267008Y11119695D01*
X2247867Y11122212D01*
X2229511Y11125272D01*
X2211923Y11128859D01*
X2195084Y11132959D01*
X2178978Y11137553D01*
X2163585Y11142627D01*
X2148890Y11148165D01*
X2134873Y11154149D01*
X2121518Y11160564D01*
X2108806Y11167394D01*
X2096719Y11174623D01*
X2085241Y11182235D01*
X2074352Y11190213D01*
X2064036Y11198541D01*
X2054275Y11207203D01*
X2045051Y11216184D01*
X2036346Y11225466D01*
X2028142Y11235034D01*
X2020422Y11244872D01*
X2013168Y11254964D01*
X2006362Y11265293D01*
X1999987Y11275843D01*
X1994024Y11286598D01*
X1983266Y11308660D01*
X1973946Y11331350D01*
X1969406Y11344084D01*
X1965416Y11356681D01*
X1961952Y11369123D01*
X1958985Y11381391D01*
X1956489Y11393469D01*
X1954438Y11405340D01*
X1952804Y11416985D01*
X1951562Y11428387D01*
X1950684Y11439529D01*
X1950143Y11450394D01*
X1949914Y11460963D01*
X1949969Y11471220D01*
X1950281Y11481146D01*
X1950824Y11490725D01*
X1952497Y11508771D01*
X1954772Y11525217D01*
X1957437Y11539923D01*
X1960278Y11552750D01*
X1963082Y11563559D01*
X1965634Y11572209D01*
X1967722Y11578560D01*
X1969648Y11583809D01*
X1976256Y11567594D01*
X1984278Y11550357D01*
X1989400Y11540340D01*
X1995236Y11529727D01*
X2001767Y11518771D01*
X2008972Y11507724D01*
X2016832Y11496840D01*
X2025327Y11486370D01*
X2034437Y11476567D01*
X2039217Y11471995D01*
X2044144Y11467684D01*
X2049214Y11463666D01*
X2054426Y11459973D01*
X2059777Y11456636D01*
X2065264Y11453687D01*
X2071889Y11450806D01*
X2078744Y11448456D01*
X2085803Y11446636D01*
X2093040Y11445345D01*
X2100430Y11444581D01*
X2107948Y11444343D01*
X2115569Y11444630D01*
X2123266Y11445440D01*
X2131016Y11446771D01*
X2138792Y11448623D01*
X2146568Y11450993D01*
X2154321Y11453881D01*
X2162024Y11457284D01*
X2169651Y11461203D01*
X2177179Y11465634D01*
X2184580Y11470576D01*
X2191831Y11476029D01*
X2198905Y11481991D01*
X2205777Y11488460D01*
X2212422Y11495436D01*
X2218814Y11502915D01*
X2224928Y11510898D01*
X2230740Y11519382D01*
X2236222Y11528367D01*
X2241351Y11537850D01*
X2246100Y11547831D01*
X2250444Y11558308D01*
X2254359Y11569279D01*
X2257818Y11580744D01*
X2260796Y11592700D01*
X2263268Y11605146D01*
X2265209Y11618081D01*
X2267027Y11637192D01*
X2267546Y11655993D01*
X2266810Y11674425D01*
X2264864Y11692429D01*
X2261755Y11709945D01*
X2257526Y11726915D01*
X2252224Y11743278D01*
X2245894Y11758977D01*
X2238581Y11773950D01*
X2230330Y11788140D01*
X2221187Y11801488D01*
X2211197Y11813933D01*
X2200404Y11825416D01*
X2188855Y11835879D01*
X2176595Y11845262D01*
X2163668Y11853505D01*
X2150121Y11860550D01*
X2135998Y11866338D01*
X2121345Y11870808D01*
X2106206Y11873903D01*
X2090628Y11875562D01*
X2074656Y11875726D01*
X2058334Y11874336D01*
X2041708Y11871333D01*
X2024824Y11866658D01*
X2007726Y11860251D01*
X1990460Y11852053D01*
X1973071Y11842005D01*
X1955605Y11830048D01*
X1938106Y11816122D01*
X1920620Y11800168D01*
X1903193Y11782127D01*
X1864439Y11741645D01*
X1825120Y11705015D01*
X1805292Y11688222D01*
X1785372Y11672484D01*
X1765380Y11657832D01*
X1745330Y11644298D01*
X1725241Y11631912D01*
X1705128Y11620705D01*
X1685010Y11610707D01*
X1664902Y11601950D01*
X1644823Y11594465D01*
X1624787Y11588282D01*
X1604814Y11583431D01*
X1584919Y11579945D01*
X1565119Y11577854D01*
X1545431Y11577189D01*
X1525872Y11577980D01*
X1506459Y11580258D01*
X1487210Y11584055D01*
X1468140Y11589400D01*
X1449266Y11596326D01*
X1430606Y11604862D01*
X1412177Y11615040D01*
X1393995Y11626891D01*
X1376077Y11640445D01*
X1358440Y11655732D01*
X1341101Y11672785D01*
X1324077Y11691634D01*
X1307385Y11712309D01*
X1291041Y11734842D01*
X1274094Y11761159D01*
X1259549Y11787362D01*
X1247285Y11813404D01*
X1237179Y11839237D01*
X1229108Y11864814D01*
X1222951Y11890088D01*
X1218585Y11915011D01*
X1215888Y11939536D01*
X1214737Y11963617D01*
X1215011Y11987204D01*
X1216587Y12010252D01*
X1219343Y12032713D01*
X1223156Y12054539D01*
X1227905Y12075683D01*
X1233467Y12096099D01*
X1239719Y12115738D01*
X1246540Y12134553D01*
X1253807Y12152497D01*
X1261397Y12169523D01*
X1269190Y12185584D01*
X1284890Y12214618D01*
X1299929Y12239222D01*
X1313329Y12259018D01*
X1324112Y12273626D01*
X1333912Y12285767D01*
X1332515Y12279274D01*
X1329644Y12261422D01*
X1328274Y12248999D01*
X1327277Y12234652D01*
X1326900Y12218686D01*
X1327391Y12201406D01*
X1328998Y12183117D01*
X1331966Y12164124D01*
X1336544Y12144733D01*
X1339514Y12134983D01*
X1342979Y12125248D01*
X1346970Y12115566D01*
X1351519Y12105975D01*
X1356654Y12096513D01*
X1362409Y12087219D01*
X1368814Y12078130D01*
X1375899Y12069285D01*
X1383695Y12060721D01*
X1392234Y12052478D01*
X1404072Y12042309D01*
X1416114Y12033316D01*
X1428377Y12025551D01*
X1440877Y12019063D01*
X1447221Y12016315D01*
X1453630Y12013905D01*
X1460107Y12011841D01*
X1466653Y12010128D01*
X1473270Y12008773D01*
X1479961Y12007783D01*
X1486728Y12007163D01*
X1493572Y12006921D01*
X1500496Y12007062D01*
X1507501Y12007593D01*
X1514591Y12008520D01*
X1521766Y12009851D01*
X1529028Y12011590D01*
X1536381Y12013746D01*
X1543826Y12016323D01*
X1551364Y12019328D01*
X1558999Y12022769D01*
X1566731Y12026650D01*
X1574564Y12030980D01*
X1582498Y12035763D01*
X1590537Y12041007D01*
X1598682Y12046717D01*
X1615299Y12059565D01*
X1628917Y12071428D01*
X1642415Y12084521D01*
X1655664Y12098693D01*
X1668540Y12113790D01*
X1680916Y12129660D01*
X1692665Y12146149D01*
X1703660Y12163106D01*
X1713776Y12180377D01*
X1722886Y12197811D01*
X1730863Y12215254D01*
X1737581Y12232553D01*
X1742914Y12249557D01*
X1746735Y12266112D01*
X1748038Y12274174D01*
X1748917Y12282066D01*
X1749354Y12289770D01*
X1749334Y12297266D01*
X1748842Y12304535D01*
X1747861Y12311559D01*
X1745696Y12321059D01*
X1742873Y12329778D01*
X1739439Y12337748D01*
X1735441Y12345000D01*
X1730927Y12351565D01*
X1725946Y12357476D01*
X1720544Y12362763D01*
X1714769Y12367458D01*
X1708670Y12371592D01*
X1702293Y12375196D01*
X1695687Y12378303D01*
X1688899Y12380943D01*
X1681978Y12383148D01*
X1674970Y12384950D01*
X1667923Y12386379D01*
X1660885Y12387468D01*
X1647029Y12388748D01*
X1633781Y12389042D01*
X1621524Y12388601D01*
X1610639Y12387676D01*
X1601509Y12386520D01*
X1594515Y12385382D01*
X1588462Y12384171D01*
X1595926Y12403521D01*
X1605823Y12422964D01*
X1618063Y12442394D01*
X1632558Y12461706D01*
X1667961Y12499547D01*
X1711325Y12535641D01*
X1761945Y12569136D01*
X1819114Y12599185D01*
X1882126Y12624938D01*
X1950275Y12645547D01*
X2022853Y12660162D01*
X2060583Y12664957D01*
X2099156Y12667936D01*
X2138483Y12668992D01*
X2178476Y12668018D01*
G37*
%TO.C,kibuzzard-6570C42B*%
G36*
X20641707Y17523936D02*
G01*
X20672822Y17498378D01*
X20683379Y17467818D01*
X20685046Y17429480D01*
X20685046Y16856075D01*
X20683379Y16817737D01*
X20672822Y16787733D01*
X20641707Y16762730D01*
X20582811Y16754951D01*
X20525581Y16761063D01*
X20492799Y16784955D01*
X20204986Y17165003D01*
X20204986Y16856075D01*
X20203319Y16817737D01*
X20192762Y16787733D01*
X20161647Y16762730D01*
X20102751Y16754951D01*
X20045521Y16762730D01*
X20015518Y16787733D01*
X20004961Y16818292D01*
X20002738Y16857186D01*
X20002738Y17433925D01*
X20004961Y17471152D01*
X20016073Y17500600D01*
X20046633Y17524492D01*
X20104973Y17531715D01*
X20155535Y17525048D01*
X20183872Y17511157D01*
X20203874Y17488376D01*
X20481687Y17114996D01*
X20481687Y17433925D01*
X20483909Y17470596D01*
X20495022Y17500044D01*
X20526137Y17523936D01*
X20583922Y17531715D01*
X20641707Y17523936D01*
G37*
G36*
X21117322Y17525742D02*
G01*
X21188442Y17504489D01*
X21254006Y17469068D01*
X21314013Y17419479D01*
X21364089Y17360027D01*
X21399857Y17295019D01*
X21421318Y17224454D01*
X21428472Y17148334D01*
X21421318Y17070164D01*
X21399857Y16997898D01*
X21364089Y16931536D01*
X21314013Y16871077D01*
X21253797Y16820758D01*
X21187608Y16784816D01*
X21115447Y16763251D01*
X21037312Y16756062D01*
X20950634Y16756062D01*
X20848399Y16756062D01*
X20792281Y16763841D01*
X20761722Y16787733D01*
X20750054Y16818848D01*
X20747276Y16858297D01*
X20747276Y17329468D01*
X20950634Y17329468D01*
X20950634Y16959421D01*
X21040646Y16959421D01*
X21110932Y16972895D01*
X21170662Y17013317D01*
X21211500Y17072908D01*
X21225113Y17143889D01*
X21211500Y17215009D01*
X21170662Y17275016D01*
X21110654Y17315855D01*
X21039534Y17329468D01*
X20950634Y17329468D01*
X20747276Y17329468D01*
X20747276Y17432814D01*
X20748942Y17470041D01*
X20759499Y17500600D01*
X20790614Y17525603D01*
X20849511Y17532826D01*
X21040646Y17532826D01*
X21117322Y17525742D01*
G37*
G36*
X19668113Y17542133D02*
G01*
X19729926Y17530048D01*
X19788406Y17510740D01*
X19836051Y17485042D01*
X19867166Y17462818D01*
X19887724Y17439481D01*
X19898281Y17407255D01*
X19872722Y17345025D01*
X19831606Y17300853D01*
X19790489Y17286129D01*
X19730482Y17311688D01*
X19673530Y17335024D01*
X19604911Y17342803D01*
X19531846Y17329051D01*
X19470449Y17287796D01*
X19428778Y17226538D01*
X19414887Y17152779D01*
X19429333Y17076658D01*
X19472672Y17010539D01*
X19535180Y16964700D01*
X19607133Y16949420D01*
X19671030Y16953032D01*
X19718258Y16963866D01*
X19718258Y17059434D01*
X19636026Y17059434D01*
X19606022Y17061101D01*
X19582686Y17069991D01*
X19563794Y17096105D01*
X19558238Y17146111D01*
X19564350Y17195006D01*
X19584908Y17221121D01*
X19609356Y17230011D01*
X19639359Y17231677D01*
X19833828Y17231677D01*
X19876611Y17223899D01*
X19902726Y17209452D01*
X19916061Y17187228D01*
X19921061Y17162780D01*
X19921617Y17134999D01*
X19921617Y16907192D01*
X19894947Y16843296D01*
X19863554Y16812875D01*
X19822716Y16787177D01*
X19761226Y16763100D01*
X19687884Y16748654D01*
X19602688Y16743839D01*
X19525456Y16751409D01*
X19453781Y16774120D01*
X19387661Y16811972D01*
X19327098Y16864965D01*
X19276536Y16928515D01*
X19240421Y16998037D01*
X19218751Y17073533D01*
X19211528Y17155001D01*
X19218855Y17232685D01*
X19240837Y17304603D01*
X19277474Y17370757D01*
X19328765Y17431147D01*
X19390335Y17481466D01*
X19457809Y17517408D01*
X19531186Y17538973D01*
X19610467Y17546161D01*
X19668113Y17542133D01*
G37*
%TO.C,C4*%
X10300580Y14730000D02*
X10019420Y14730000D01*
X10300580Y15750000D02*
X10019420Y15750000D01*
%TO.C,C3*%
X17920580Y14730000D02*
X17639420Y14730000D01*
X17920580Y15750000D02*
X17639420Y15750000D01*
%TO.C,kibuzzard-6570C40C*%
G36*
X26003250Y17689513D02*
G01*
X26047700Y17653000D01*
X26062781Y17609344D01*
X26065163Y17554575D01*
X26065163Y16733837D01*
X26062781Y16679069D01*
X26047700Y16636206D01*
X26003250Y16600488D01*
X25919113Y16589375D01*
X25836562Y16600488D01*
X25792113Y16637000D01*
X25777031Y16680656D01*
X25774650Y16735425D01*
X25774650Y17556163D01*
X25777031Y17609344D01*
X25792113Y17653000D01*
X25836562Y17689513D01*
X25920700Y17700625D01*
X26003250Y17689513D01*
G37*
G36*
X25263475Y17690505D02*
G01*
X25365075Y17660144D01*
X25458737Y17609542D01*
X25544463Y17538700D01*
X25615999Y17453769D01*
X25667097Y17360900D01*
X25697755Y17260094D01*
X25707975Y17151350D01*
X25697755Y17039679D01*
X25667097Y16936442D01*
X25615999Y16841639D01*
X25544463Y16755269D01*
X25458440Y16683385D01*
X25363884Y16632039D01*
X25260796Y16601232D01*
X25149175Y16590962D01*
X25025350Y16590962D01*
X24879300Y16590962D01*
X24799131Y16602075D01*
X24755475Y16636206D01*
X24738806Y16680656D01*
X24734837Y16737012D01*
X24734837Y17410113D01*
X25025350Y17410113D01*
X25025350Y16881475D01*
X25153937Y16881475D01*
X25254347Y16900723D01*
X25339675Y16958469D01*
X25398016Y17043598D01*
X25417463Y17145000D01*
X25398016Y17246600D01*
X25339675Y17332325D01*
X25253950Y17390666D01*
X25152350Y17410113D01*
X25025350Y17410113D01*
X24734837Y17410113D01*
X24734837Y17557750D01*
X24737219Y17610931D01*
X24752300Y17654588D01*
X24796750Y17690306D01*
X24880887Y17700625D01*
X25153937Y17700625D01*
X25263475Y17690505D01*
G37*
D11*
%TO.C,D2*%
X29200000Y11810000D02*
X28400000Y11810000D01*
X23000000Y11810000D02*
X23000000Y10010000D01*
X21600000Y11810000D02*
X23000000Y11810000D01*
X27800000Y10010000D02*
X23000000Y10010000D01*
X29200000Y810000D02*
X29200000Y11810000D01*
X29200000Y810000D02*
X21600000Y810000D01*
X21600000Y810000D02*
X21600000Y11810000D01*
%TD*%
M02*
