%TF.GenerationSoftware,KiCad,Pcbnew,7.0.6*%
%TF.CreationDate,2023-12-29T14:00:24-07:00*%
%TF.ProjectId,SparkFun_RGB_CBI_Example,53706172-6b46-4756-9e5f-5247425f4342,rev?*%
%TF.SameCoordinates,Original*%
%TF.FileFunction,Legend,Bot*%
%TF.FilePolarity,Positive*%
%FSLAX46Y46*%
G04 Gerber Fmt 4.6, Leading zero omitted, Abs format (unit mm)*
G04 Created by KiCad (PCBNEW 7.0.6) date 2023-12-29 14:00:24*
%MOMM*%
%LPD*%
G01*
G04 APERTURE LIST*
%ADD10C,0.018437*%
G04 APERTURE END LIST*
%TO.C,Ref\u002A\u002A*%
D10*
X2197182Y9119661D02*
X2197882Y9119609D01*
X2198579Y9119523D01*
X2199271Y9119404D01*
X2199958Y9119253D01*
X2200639Y9119072D01*
X2201312Y9118859D01*
X2201976Y9118618D01*
X2202631Y9118348D01*
X2203275Y9118050D01*
X2204527Y9117375D01*
X2205724Y9116600D01*
X2206857Y9115731D01*
X2207918Y9114775D01*
X2208899Y9113739D01*
X2209791Y9112631D01*
X2210201Y9112052D01*
X2210586Y9111457D01*
X2210945Y9110847D01*
X2211276Y9110223D01*
X2211579Y9109587D01*
X2211852Y9108938D01*
X2212095Y9108277D01*
X2212306Y9107607D01*
X2212485Y9106926D01*
X2212630Y9106237D01*
X2270966Y8792744D01*
X2271293Y8791353D01*
X2271741Y8789956D01*
X2272303Y8788564D01*
X2272972Y8787186D01*
X2273739Y8785830D01*
X2274596Y8784506D01*
X2275537Y8783222D01*
X2276553Y8781988D01*
X2277637Y8780814D01*
X2278780Y8779707D01*
X2279974Y8778678D01*
X2281213Y8777735D01*
X2282489Y8776887D01*
X2283792Y8776144D01*
X2285117Y8775514D01*
X2286454Y8775008D01*
X2496587Y8688997D01*
X2497895Y8688422D01*
X2499283Y8687942D01*
X2500736Y8687556D01*
X2502244Y8687263D01*
X2503794Y8687062D01*
X2505373Y8686952D01*
X2506971Y8686933D01*
X2508573Y8687003D01*
X2510169Y8687162D01*
X2511747Y8687409D01*
X2513293Y8687744D01*
X2514796Y8688164D01*
X2516243Y8688671D01*
X2517623Y8689261D01*
X2518923Y8689936D01*
X2520131Y8690693D01*
X2782018Y8870422D01*
X2782610Y8870807D01*
X2783219Y8871161D01*
X2783844Y8871486D01*
X2784484Y8871781D01*
X2785138Y8872046D01*
X2785803Y8872282D01*
X2787165Y8872666D01*
X2788560Y8872934D01*
X2789976Y8873086D01*
X2791402Y8873125D01*
X2792829Y8873050D01*
X2794246Y8872862D01*
X2795641Y8872563D01*
X2797004Y8872154D01*
X2798324Y8871636D01*
X2799591Y8871009D01*
X2800201Y8870655D01*
X2800793Y8870274D01*
X2801367Y8869867D01*
X2801921Y8869433D01*
X2802453Y8868973D01*
X2802963Y8868486D01*
X3023549Y8647918D01*
X3024034Y8647407D01*
X3024493Y8646873D01*
X3024926Y8646318D01*
X3025332Y8645743D01*
X3025712Y8645149D01*
X3026065Y8644538D01*
X3026391Y8643911D01*
X3026691Y8643269D01*
X3026964Y8642614D01*
X3027209Y8641947D01*
X3027618Y8640583D01*
X3027918Y8639187D01*
X3028106Y8637771D01*
X3028182Y8636344D01*
X3028144Y8634918D01*
X3027993Y8633503D01*
X3027874Y8632803D01*
X3027726Y8632110D01*
X3027549Y8631425D01*
X3027343Y8630750D01*
X3027107Y8630086D01*
X3026842Y8629433D01*
X3026548Y8628795D01*
X3026223Y8628171D01*
X3025869Y8627563D01*
X3025485Y8626973D01*
X2848872Y8369586D01*
X2848119Y8368369D01*
X2847450Y8367064D01*
X2846867Y8365683D01*
X2846370Y8364236D01*
X2845960Y8362737D01*
X2845638Y8361197D01*
X2845405Y8359628D01*
X2845260Y8358042D01*
X2845206Y8356450D01*
X2845243Y8354864D01*
X2845371Y8353297D01*
X2845592Y8351761D01*
X2845906Y8350266D01*
X2846314Y8348825D01*
X2846817Y8347450D01*
X2847415Y8346152D01*
X2940340Y8129401D01*
X2940588Y8128734D01*
X2940867Y8128070D01*
X2941516Y8126751D01*
X2942278Y8125452D01*
X2943143Y8124181D01*
X2944103Y8122946D01*
X2945148Y8121755D01*
X2946269Y8120615D01*
X2947457Y8119534D01*
X2948703Y8118521D01*
X2949998Y8117582D01*
X2951333Y8116727D01*
X2952698Y8115962D01*
X2954084Y8115296D01*
X2955483Y8114736D01*
X2956884Y8114291D01*
X2957584Y8114114D01*
X2958280Y8113968D01*
X3261356Y8057605D01*
X3262047Y8057456D01*
X3262729Y8057275D01*
X3263400Y8057061D01*
X3264062Y8056815D01*
X3264711Y8056540D01*
X3265349Y8056235D01*
X3265973Y8055902D01*
X3266583Y8055542D01*
X3267178Y8055156D01*
X3267758Y8054744D01*
X3268321Y8054309D01*
X3268866Y8053850D01*
X3269393Y8053370D01*
X3269901Y8052868D01*
X3270389Y8052347D01*
X3270856Y8051806D01*
X3271301Y8051248D01*
X3271724Y8050672D01*
X3272124Y8050081D01*
X3272499Y8049475D01*
X3272849Y8048855D01*
X3273173Y8048222D01*
X3273470Y8047578D01*
X3273739Y8046922D01*
X3273980Y8046257D01*
X3274192Y8045584D01*
X3274373Y8044902D01*
X3274524Y8044214D01*
X3274642Y8043521D01*
X3274728Y8042823D01*
X3274780Y8042121D01*
X3274797Y8041416D01*
X3274779Y7729472D01*
X3274761Y7728768D01*
X3274709Y7728066D01*
X3274623Y7727367D01*
X3274504Y7726672D01*
X3274354Y7725983D01*
X3274172Y7725300D01*
X3273960Y7724625D01*
X3273718Y7723959D01*
X3273150Y7722655D01*
X3272475Y7721399D01*
X3271700Y7720199D01*
X3270831Y7719062D01*
X3269875Y7717998D01*
X3268840Y7717014D01*
X3267731Y7716120D01*
X3267152Y7715709D01*
X3266557Y7715323D01*
X3265947Y7714964D01*
X3265324Y7714633D01*
X3264687Y7714330D01*
X3264038Y7714057D01*
X3263378Y7713815D01*
X3262707Y7713605D01*
X3262027Y7713428D01*
X3261338Y7713284D01*
X2965692Y7658267D01*
X2964997Y7658124D01*
X2964301Y7657949D01*
X2962907Y7657506D01*
X2961519Y7656947D01*
X2960146Y7656279D01*
X2958798Y7655510D01*
X2957482Y7654648D01*
X2956209Y7653702D01*
X2954987Y7652680D01*
X2953825Y7651589D01*
X2952732Y7650438D01*
X2951718Y7649235D01*
X2950791Y7647989D01*
X2949961Y7646706D01*
X2949236Y7645395D01*
X2948626Y7644065D01*
X2948367Y7643395D01*
X2948139Y7642724D01*
X2855841Y7412163D01*
X2855270Y7410851D01*
X2854793Y7409462D01*
X2854410Y7408008D01*
X2854121Y7406500D01*
X2853923Y7404951D01*
X2853817Y7403373D01*
X2853801Y7401777D01*
X2853875Y7400176D01*
X2854038Y7398581D01*
X2854288Y7397006D01*
X2854626Y7395461D01*
X2855050Y7393959D01*
X2855560Y7392511D01*
X2856154Y7391131D01*
X2856832Y7389829D01*
X2857593Y7388618D01*
X3025521Y7143897D01*
X3025904Y7143306D01*
X3026257Y7142699D01*
X3026580Y7142075D01*
X3026874Y7141436D01*
X3027138Y7140783D01*
X3027373Y7140118D01*
X3027755Y7138757D01*
X3028021Y7137363D01*
X3028173Y7135946D01*
X3028210Y7134518D01*
X3028135Y7133090D01*
X3027948Y7131672D01*
X3027650Y7130274D01*
X3027242Y7128909D01*
X3026724Y7127586D01*
X3026099Y7126316D01*
X3025747Y7125704D01*
X3025367Y7125110D01*
X3024961Y7124534D01*
X3024529Y7123979D01*
X3024070Y7123445D01*
X3023586Y7122933D01*
X2802981Y6902365D01*
X2802471Y6901882D01*
X2801939Y6901425D01*
X2801385Y6900994D01*
X2800811Y6900590D01*
X2800219Y6900211D01*
X2799609Y6899860D01*
X2798983Y6899535D01*
X2798342Y6899237D01*
X2797688Y6898965D01*
X2797022Y6898721D01*
X2795659Y6898314D01*
X2794264Y6898017D01*
X2792847Y6897830D01*
X2791420Y6897754D01*
X2789994Y6897791D01*
X2788578Y6897942D01*
X2787877Y6898060D01*
X2787183Y6898207D01*
X2786498Y6898382D01*
X2785821Y6898587D01*
X2785156Y6898821D01*
X2784502Y6899084D01*
X2783862Y6899376D01*
X2783237Y6899698D01*
X2782628Y6900049D01*
X2782036Y6900430D01*
X2541648Y7065427D01*
X2540439Y7066177D01*
X2539144Y7066834D01*
X2537775Y7067399D01*
X2536343Y7067872D01*
X2534861Y7068252D01*
X2533339Y7068538D01*
X2531791Y7068732D01*
X2530228Y7068831D01*
X2528661Y7068837D01*
X2527103Y7068749D01*
X2525566Y7068566D01*
X2524061Y7068288D01*
X2522600Y7067915D01*
X2521195Y7067446D01*
X2519858Y7066882D01*
X2518601Y7066222D01*
X2412585Y7009619D01*
X2411953Y7009316D01*
X2411315Y7009049D01*
X2410673Y7008819D01*
X2410028Y7008625D01*
X2409380Y7008466D01*
X2408732Y7008341D01*
X2408083Y7008252D01*
X2407436Y7008197D01*
X2406791Y7008175D01*
X2406150Y7008187D01*
X2405513Y7008232D01*
X2404882Y7008309D01*
X2404257Y7008418D01*
X2403640Y7008559D01*
X2403033Y7008731D01*
X2402435Y7008934D01*
X2401849Y7009168D01*
X2401275Y7009431D01*
X2400715Y7009724D01*
X2400169Y7010046D01*
X2399639Y7010397D01*
X2399126Y7010777D01*
X2398630Y7011184D01*
X2398154Y7011618D01*
X2397698Y7012080D01*
X2397263Y7012569D01*
X2396850Y7013083D01*
X2396461Y7013624D01*
X2396097Y7014190D01*
X2395758Y7014780D01*
X2395446Y7015396D01*
X2395162Y7016035D01*
X2176567Y7544214D01*
X2176312Y7544872D01*
X2176091Y7545539D01*
X2175903Y7546214D01*
X2175748Y7546898D01*
X2175625Y7547587D01*
X2175534Y7548281D01*
X2175446Y7549680D01*
X2175480Y7551083D01*
X2175633Y7552482D01*
X2175902Y7553864D01*
X2176283Y7555222D01*
X2176774Y7556544D01*
X2177370Y7557820D01*
X2178069Y7559041D01*
X2178867Y7560196D01*
X2179760Y7561276D01*
X2180242Y7561785D01*
X2180746Y7562270D01*
X2181273Y7562732D01*
X2181822Y7563169D01*
X2182392Y7563579D01*
X2182983Y7563961D01*
X2209515Y7580205D01*
X2211430Y7581421D01*
X2213472Y7582809D01*
X2215603Y7584339D01*
X2217786Y7585980D01*
X2219984Y7587703D01*
X2222160Y7589476D01*
X2224275Y7591271D01*
X2226293Y7593055D01*
X2243853Y7605077D01*
X2260613Y7618130D01*
X2276526Y7632168D01*
X2291546Y7647146D01*
X2305629Y7663019D01*
X2318727Y7679741D01*
X2330795Y7697266D01*
X2341788Y7715550D01*
X2351659Y7734546D01*
X2356159Y7744297D01*
X2360362Y7754209D01*
X2364262Y7764276D01*
X2367852Y7774493D01*
X2371128Y7784855D01*
X2374083Y7795354D01*
X2376713Y7805986D01*
X2379010Y7816746D01*
X2380969Y7827626D01*
X2382585Y7838622D01*
X2383852Y7849728D01*
X2384764Y7860939D01*
X2385315Y7872247D01*
X2385501Y7883649D01*
X2385052Y7901402D01*
X2383719Y7918922D01*
X2381525Y7936188D01*
X2378491Y7953177D01*
X2374639Y7969867D01*
X2369989Y7986238D01*
X2364565Y8002268D01*
X2358388Y8017934D01*
X2351479Y8033216D01*
X2343860Y8048091D01*
X2335553Y8062538D01*
X2326579Y8076535D01*
X2316960Y8090060D01*
X2306718Y8103093D01*
X2295875Y8115610D01*
X2284452Y8127591D01*
X2272470Y8139014D01*
X2259952Y8149857D01*
X2246920Y8160098D01*
X2233394Y8169716D01*
X2219397Y8178690D01*
X2204950Y8186996D01*
X2190075Y8194615D01*
X2174794Y8201523D01*
X2159128Y8207700D01*
X2143099Y8213124D01*
X2126728Y8217772D01*
X2110038Y8221625D01*
X2093051Y8224658D01*
X2075786Y8226852D01*
X2058268Y8228184D01*
X2040516Y8228633D01*
X2022765Y8228184D01*
X2005246Y8226852D01*
X1987982Y8224658D01*
X1970995Y8221625D01*
X1954305Y8217772D01*
X1937935Y8213124D01*
X1921907Y8207700D01*
X1906242Y8201523D01*
X1890961Y8194615D01*
X1876087Y8186996D01*
X1861641Y8178690D01*
X1847644Y8169716D01*
X1834119Y8160098D01*
X1821088Y8149857D01*
X1808571Y8139014D01*
X1796590Y8127591D01*
X1785168Y8115610D01*
X1774325Y8103092D01*
X1764084Y8090060D01*
X1754466Y8076535D01*
X1745493Y8062537D01*
X1737187Y8048091D01*
X1729568Y8033216D01*
X1722660Y8017934D01*
X1716483Y8002268D01*
X1711060Y7986238D01*
X1706411Y7969867D01*
X1702559Y7953176D01*
X1699525Y7936188D01*
X1697331Y7918922D01*
X1695999Y7901402D01*
X1695550Y7883649D01*
X1696286Y7860939D01*
X1698465Y7838622D01*
X1702039Y7816746D01*
X1706965Y7795354D01*
X1713195Y7774493D01*
X1720684Y7754209D01*
X1729386Y7734546D01*
X1739256Y7715550D01*
X1750248Y7697266D01*
X1762316Y7679741D01*
X1775414Y7663019D01*
X1789497Y7647146D01*
X1804518Y7632168D01*
X1820433Y7618130D01*
X1837195Y7605077D01*
X1854758Y7593055D01*
X1856765Y7591271D01*
X1858873Y7589476D01*
X1861044Y7587703D01*
X1863240Y7585980D01*
X1865421Y7584339D01*
X1867551Y7582809D01*
X1869590Y7581421D01*
X1871500Y7580205D01*
X1898031Y7563961D01*
X1898619Y7563579D01*
X1899186Y7563169D01*
X1899732Y7562732D01*
X1900257Y7562270D01*
X1900759Y7561785D01*
X1901239Y7561276D01*
X1901696Y7560747D01*
X1902130Y7560197D01*
X1902540Y7559628D01*
X1902926Y7559041D01*
X1903287Y7558438D01*
X1903623Y7557820D01*
X1903934Y7557188D01*
X1904219Y7556544D01*
X1904478Y7555888D01*
X1904710Y7555222D01*
X1904915Y7554547D01*
X1905093Y7553865D01*
X1905242Y7553176D01*
X1905363Y7552482D01*
X1905456Y7551784D01*
X1905519Y7551084D01*
X1905552Y7550382D01*
X1905555Y7549680D01*
X1905528Y7548980D01*
X1905470Y7548282D01*
X1905380Y7547587D01*
X1905259Y7546898D01*
X1905106Y7546214D01*
X1904919Y7545539D01*
X1904700Y7544872D01*
X1904447Y7544214D01*
X1685870Y7016017D01*
X1685587Y7015377D01*
X1685275Y7014761D01*
X1684936Y7014171D01*
X1684572Y7013605D01*
X1684183Y7013065D01*
X1683771Y7012551D01*
X1683337Y7012063D01*
X1682881Y7011602D01*
X1682405Y7011168D01*
X1681910Y7010761D01*
X1681398Y7010382D01*
X1680868Y7010032D01*
X1680323Y7009711D01*
X1679763Y7009418D01*
X1679190Y7009155D01*
X1678604Y7008922D01*
X1678007Y7008720D01*
X1677400Y7008548D01*
X1676783Y7008408D01*
X1676159Y7008298D01*
X1675528Y7008221D01*
X1674891Y7008177D01*
X1674249Y7008165D01*
X1673604Y7008186D01*
X1672957Y7008241D01*
X1672308Y7008330D01*
X1671658Y7008453D01*
X1671010Y7008611D01*
X1670364Y7008805D01*
X1669720Y7009034D01*
X1669081Y7009299D01*
X1668447Y7009600D01*
X1562432Y7066203D01*
X1561171Y7066864D01*
X1559832Y7067430D01*
X1558426Y7067899D01*
X1556964Y7068274D01*
X1555458Y7068553D01*
X1553921Y7068737D01*
X1552363Y7068827D01*
X1550797Y7068822D01*
X1549235Y7068723D01*
X1547688Y7068529D01*
X1546168Y7068242D01*
X1544687Y7067862D01*
X1543256Y7067388D01*
X1541887Y7066821D01*
X1540593Y7066161D01*
X1539385Y7065408D01*
X1298978Y6900411D01*
X1298388Y6900030D01*
X1297780Y6899679D01*
X1297156Y6899358D01*
X1296517Y6899065D01*
X1295864Y6898802D01*
X1295200Y6898569D01*
X1293839Y6898188D01*
X1292445Y6897923D01*
X1291029Y6897773D01*
X1289603Y6897736D01*
X1288176Y6897811D01*
X1286760Y6897998D01*
X1285365Y6898295D01*
X1284002Y6898702D01*
X1282683Y6899218D01*
X1281417Y6899841D01*
X1280808Y6900192D01*
X1280216Y6900571D01*
X1279643Y6900975D01*
X1279091Y6901406D01*
X1278560Y6901863D01*
X1278052Y6902346D01*
X1057447Y7122914D01*
X1056960Y7123426D01*
X1056500Y7123960D01*
X1056066Y7124515D01*
X1055659Y7125091D01*
X1055278Y7125685D01*
X1054924Y7126297D01*
X1054597Y7126924D01*
X1054297Y7127567D01*
X1054024Y7128222D01*
X1053778Y7128890D01*
X1053369Y7130256D01*
X1053070Y7131653D01*
X1052883Y7133071D01*
X1052808Y7134500D01*
X1052846Y7135927D01*
X1052999Y7137344D01*
X1053119Y7138044D01*
X1053267Y7138738D01*
X1053444Y7139424D01*
X1053651Y7140099D01*
X1053887Y7140764D01*
X1054153Y7141417D01*
X1054448Y7142056D01*
X1054772Y7142680D01*
X1055127Y7143288D01*
X1055511Y7143878D01*
X1223458Y7388599D01*
X1224213Y7389810D01*
X1224886Y7391112D01*
X1225476Y7392492D01*
X1225982Y7393940D01*
X1226404Y7395442D01*
X1226741Y7396987D01*
X1226990Y7398563D01*
X1227153Y7400157D01*
X1227227Y7401758D01*
X1227212Y7403354D01*
X1227106Y7404932D01*
X1226909Y7406481D01*
X1226620Y7407989D01*
X1226238Y7409443D01*
X1225762Y7410832D01*
X1225191Y7412144D01*
X1132893Y7642705D01*
X1132665Y7643377D01*
X1132404Y7644046D01*
X1131793Y7645377D01*
X1131069Y7646687D01*
X1130240Y7647970D01*
X1129315Y7649216D01*
X1128304Y7650419D01*
X1127214Y7651570D01*
X1126056Y7652661D01*
X1124837Y7653683D01*
X1123567Y7654629D01*
X1122254Y7655491D01*
X1120907Y7656260D01*
X1119535Y7656928D01*
X1118148Y7657487D01*
X1117450Y7657724D01*
X1116752Y7657930D01*
X1116055Y7658105D01*
X1115359Y7658247D01*
X819713Y7713265D01*
X819026Y7713408D01*
X818347Y7713586D01*
X817678Y7713796D01*
X817018Y7714038D01*
X816370Y7714311D01*
X815734Y7714614D01*
X815111Y7714945D01*
X814502Y7715304D01*
X813907Y7715690D01*
X813328Y7716101D01*
X812765Y7716536D01*
X812220Y7716995D01*
X811692Y7717476D01*
X811184Y7717978D01*
X810695Y7718501D01*
X810227Y7719043D01*
X809781Y7719603D01*
X809357Y7720179D01*
X808957Y7720772D01*
X808581Y7721380D01*
X808230Y7722002D01*
X807905Y7722636D01*
X807606Y7723282D01*
X807336Y7723939D01*
X807094Y7724606D01*
X806881Y7725281D01*
X806699Y7725964D01*
X806548Y7726653D01*
X806429Y7727347D01*
X806343Y7728046D01*
X806290Y7728749D01*
X806273Y7729453D01*
X806236Y8041398D01*
X806252Y8042104D01*
X806302Y8042807D01*
X806387Y8043507D01*
X806504Y8044202D01*
X806653Y8044891D01*
X806834Y8045573D01*
X807045Y8046248D01*
X807285Y8046914D01*
X807555Y8047570D01*
X807851Y8048216D01*
X808524Y8049470D01*
X809298Y8050668D01*
X810166Y8051803D01*
X811120Y8052866D01*
X812153Y8053849D01*
X813260Y8054743D01*
X814432Y8055541D01*
X815041Y8055901D01*
X815663Y8056234D01*
X816298Y8056539D01*
X816946Y8056815D01*
X817605Y8057060D01*
X818274Y8057274D01*
X818953Y8057456D01*
X819640Y8057604D01*
X1122735Y8113968D01*
X1124124Y8114291D01*
X1125521Y8114736D01*
X1126915Y8115296D01*
X1128299Y8115962D01*
X1129662Y8116726D01*
X1130995Y8117582D01*
X1132290Y8118520D01*
X1133537Y8119534D01*
X1134726Y8120614D01*
X1135849Y8121754D01*
X1136896Y8122946D01*
X1137858Y8124181D01*
X1138726Y8125452D01*
X1139491Y8126750D01*
X1140143Y8128069D01*
X1140674Y8129400D01*
X1233581Y8346152D01*
X1234182Y8347449D01*
X1234688Y8348824D01*
X1235098Y8350265D01*
X1235414Y8351760D01*
X1235636Y8353297D01*
X1235765Y8354864D01*
X1235802Y8356450D01*
X1235747Y8358041D01*
X1235602Y8359628D01*
X1235366Y8361197D01*
X1235041Y8362737D01*
X1234628Y8364236D01*
X1234127Y8365682D01*
X1233539Y8367064D01*
X1232864Y8368369D01*
X1232104Y8369585D01*
X1055510Y8626973D01*
X1055129Y8627563D01*
X1054778Y8628171D01*
X1054455Y8628795D01*
X1054163Y8629433D01*
X1053899Y8630085D01*
X1053664Y8630750D01*
X1053282Y8632110D01*
X1053015Y8633503D01*
X1052863Y8634918D01*
X1052823Y8636344D01*
X1052897Y8637771D01*
X1053082Y8639187D01*
X1053379Y8640583D01*
X1053786Y8641947D01*
X1054302Y8643269D01*
X1054927Y8644537D01*
X1055280Y8645149D01*
X1055660Y8645742D01*
X1056066Y8646318D01*
X1056499Y8646873D01*
X1056959Y8647407D01*
X1057445Y8647918D01*
X1278013Y8868486D01*
X1278525Y8868972D01*
X1279058Y8869433D01*
X1279613Y8869866D01*
X1280188Y8870274D01*
X1280782Y8870654D01*
X1281392Y8871008D01*
X1282019Y8871335D01*
X1282660Y8871635D01*
X1283314Y8871908D01*
X1283980Y8872154D01*
X1285343Y8872563D01*
X1286737Y8872862D01*
X1288151Y8873049D01*
X1289576Y8873124D01*
X1291001Y8873086D01*
X1292414Y8872933D01*
X1293113Y8872814D01*
X1293806Y8872666D01*
X1294490Y8872488D01*
X1295164Y8872281D01*
X1295828Y8872046D01*
X1296480Y8871780D01*
X1297118Y8871485D01*
X1297742Y8871161D01*
X1298349Y8870806D01*
X1298939Y8870422D01*
X1560845Y8690693D01*
X1562056Y8689935D01*
X1563359Y8689261D01*
X1564741Y8688670D01*
X1566191Y8688164D01*
X1567695Y8687744D01*
X1569242Y8687409D01*
X1570820Y8687162D01*
X1572417Y8687003D01*
X1574019Y8686932D01*
X1575616Y8686952D01*
X1577194Y8687061D01*
X1578743Y8687262D01*
X1580248Y8687556D01*
X1581700Y8687942D01*
X1583084Y8688422D01*
X1584389Y8688996D01*
X1794503Y8775007D01*
X1795172Y8775245D01*
X1795838Y8775514D01*
X1796501Y8775814D01*
X1797160Y8776144D01*
X1798462Y8776887D01*
X1799737Y8777735D01*
X1800975Y8778678D01*
X1802170Y8779707D01*
X1803313Y8780814D01*
X1804397Y8781988D01*
X1805414Y8783222D01*
X1806356Y8784505D01*
X1807215Y8785830D01*
X1807983Y8787185D01*
X1808653Y8788564D01*
X1809216Y8789956D01*
X1809664Y8791352D01*
X1809843Y8792049D01*
X1809991Y8792744D01*
X1868346Y9106237D01*
X1868491Y9106926D01*
X1868670Y9107607D01*
X1868881Y9108277D01*
X1869124Y9108938D01*
X1869397Y9109587D01*
X1869700Y9110223D01*
X1870032Y9110847D01*
X1870390Y9111457D01*
X1870775Y9112052D01*
X1871186Y9112631D01*
X1871621Y9113194D01*
X1872078Y9113739D01*
X1872559Y9114267D01*
X1873060Y9114775D01*
X1873581Y9115263D01*
X1874122Y9115731D01*
X1874680Y9116176D01*
X1875256Y9116600D01*
X1875847Y9116999D01*
X1876454Y9117375D01*
X1877074Y9117726D01*
X1877707Y9118050D01*
X1878352Y9118348D01*
X1879008Y9118618D01*
X1879673Y9118859D01*
X1880347Y9119072D01*
X1881029Y9119253D01*
X1881717Y9119404D01*
X1882411Y9119523D01*
X1883110Y9119609D01*
X1883812Y9119661D01*
X1884516Y9119678D01*
X2196479Y9119678D01*
X2197182Y9119661D01*
G36*
X2197182Y9119661D02*
G01*
X2197882Y9119609D01*
X2198579Y9119523D01*
X2199271Y9119404D01*
X2199958Y9119253D01*
X2200639Y9119072D01*
X2201312Y9118859D01*
X2201976Y9118618D01*
X2202631Y9118348D01*
X2203275Y9118050D01*
X2204527Y9117375D01*
X2205724Y9116600D01*
X2206857Y9115731D01*
X2207918Y9114775D01*
X2208899Y9113739D01*
X2209791Y9112631D01*
X2210201Y9112052D01*
X2210586Y9111457D01*
X2210945Y9110847D01*
X2211276Y9110223D01*
X2211579Y9109587D01*
X2211852Y9108938D01*
X2212095Y9108277D01*
X2212306Y9107607D01*
X2212485Y9106926D01*
X2212630Y9106237D01*
X2270966Y8792744D01*
X2271293Y8791353D01*
X2271741Y8789956D01*
X2272303Y8788564D01*
X2272972Y8787186D01*
X2273739Y8785830D01*
X2274596Y8784506D01*
X2275537Y8783222D01*
X2276553Y8781988D01*
X2277637Y8780814D01*
X2278780Y8779707D01*
X2279974Y8778678D01*
X2281213Y8777735D01*
X2282489Y8776887D01*
X2283792Y8776144D01*
X2285117Y8775514D01*
X2286454Y8775008D01*
X2496587Y8688997D01*
X2497895Y8688422D01*
X2499283Y8687942D01*
X2500736Y8687556D01*
X2502244Y8687263D01*
X2503794Y8687062D01*
X2505373Y8686952D01*
X2506971Y8686933D01*
X2508573Y8687003D01*
X2510169Y8687162D01*
X2511747Y8687409D01*
X2513293Y8687744D01*
X2514796Y8688164D01*
X2516243Y8688671D01*
X2517623Y8689261D01*
X2518923Y8689936D01*
X2520131Y8690693D01*
X2782018Y8870422D01*
X2782610Y8870807D01*
X2783219Y8871161D01*
X2783844Y8871486D01*
X2784484Y8871781D01*
X2785138Y8872046D01*
X2785803Y8872282D01*
X2787165Y8872666D01*
X2788560Y8872934D01*
X2789976Y8873086D01*
X2791402Y8873125D01*
X2792829Y8873050D01*
X2794246Y8872862D01*
X2795641Y8872563D01*
X2797004Y8872154D01*
X2798324Y8871636D01*
X2799591Y8871009D01*
X2800201Y8870655D01*
X2800793Y8870274D01*
X2801367Y8869867D01*
X2801921Y8869433D01*
X2802453Y8868973D01*
X2802963Y8868486D01*
X3023549Y8647918D01*
X3024034Y8647407D01*
X3024493Y8646873D01*
X3024926Y8646318D01*
X3025332Y8645743D01*
X3025712Y8645149D01*
X3026065Y8644538D01*
X3026391Y8643911D01*
X3026691Y8643269D01*
X3026964Y8642614D01*
X3027209Y8641947D01*
X3027618Y8640583D01*
X3027918Y8639187D01*
X3028106Y8637771D01*
X3028182Y8636344D01*
X3028144Y8634918D01*
X3027993Y8633503D01*
X3027874Y8632803D01*
X3027726Y8632110D01*
X3027549Y8631425D01*
X3027343Y8630750D01*
X3027107Y8630086D01*
X3026842Y8629433D01*
X3026548Y8628795D01*
X3026223Y8628171D01*
X3025869Y8627563D01*
X3025485Y8626973D01*
X2848872Y8369586D01*
X2848119Y8368369D01*
X2847450Y8367064D01*
X2846867Y8365683D01*
X2846370Y8364236D01*
X2845960Y8362737D01*
X2845638Y8361197D01*
X2845405Y8359628D01*
X2845260Y8358042D01*
X2845206Y8356450D01*
X2845243Y8354864D01*
X2845371Y8353297D01*
X2845592Y8351761D01*
X2845906Y8350266D01*
X2846314Y8348825D01*
X2846817Y8347450D01*
X2847415Y8346152D01*
X2940340Y8129401D01*
X2940588Y8128734D01*
X2940867Y8128070D01*
X2941516Y8126751D01*
X2942278Y8125452D01*
X2943143Y8124181D01*
X2944103Y8122946D01*
X2945148Y8121755D01*
X2946269Y8120615D01*
X2947457Y8119534D01*
X2948703Y8118521D01*
X2949998Y8117582D01*
X2951333Y8116727D01*
X2952698Y8115962D01*
X2954084Y8115296D01*
X2955483Y8114736D01*
X2956884Y8114291D01*
X2957584Y8114114D01*
X2958280Y8113968D01*
X3261356Y8057605D01*
X3262047Y8057456D01*
X3262729Y8057275D01*
X3263400Y8057061D01*
X3264062Y8056815D01*
X3264711Y8056540D01*
X3265349Y8056235D01*
X3265973Y8055902D01*
X3266583Y8055542D01*
X3267178Y8055156D01*
X3267758Y8054744D01*
X3268321Y8054309D01*
X3268866Y8053850D01*
X3269393Y8053370D01*
X3269901Y8052868D01*
X3270389Y8052347D01*
X3270856Y8051806D01*
X3271301Y8051248D01*
X3271724Y8050672D01*
X3272124Y8050081D01*
X3272499Y8049475D01*
X3272849Y8048855D01*
X3273173Y8048222D01*
X3273470Y8047578D01*
X3273739Y8046922D01*
X3273980Y8046257D01*
X3274192Y8045584D01*
X3274373Y8044902D01*
X3274524Y8044214D01*
X3274642Y8043521D01*
X3274728Y8042823D01*
X3274780Y8042121D01*
X3274797Y8041416D01*
X3274779Y7729472D01*
X3274761Y7728768D01*
X3274709Y7728066D01*
X3274623Y7727367D01*
X3274504Y7726672D01*
X3274354Y7725983D01*
X3274172Y7725300D01*
X3273960Y7724625D01*
X3273718Y7723959D01*
X3273150Y7722655D01*
X3272475Y7721399D01*
X3271700Y7720199D01*
X3270831Y7719062D01*
X3269875Y7717998D01*
X3268840Y7717014D01*
X3267731Y7716120D01*
X3267152Y7715709D01*
X3266557Y7715323D01*
X3265947Y7714964D01*
X3265324Y7714633D01*
X3264687Y7714330D01*
X3264038Y7714057D01*
X3263378Y7713815D01*
X3262707Y7713605D01*
X3262027Y7713428D01*
X3261338Y7713284D01*
X2965692Y7658267D01*
X2964997Y7658124D01*
X2964301Y7657949D01*
X2962907Y7657506D01*
X2961519Y7656947D01*
X2960146Y7656279D01*
X2958798Y7655510D01*
X2957482Y7654648D01*
X2956209Y7653702D01*
X2954987Y7652680D01*
X2953825Y7651589D01*
X2952732Y7650438D01*
X2951718Y7649235D01*
X2950791Y7647989D01*
X2949961Y7646706D01*
X2949236Y7645395D01*
X2948626Y7644065D01*
X2948367Y7643395D01*
X2948139Y7642724D01*
X2855841Y7412163D01*
X2855270Y7410851D01*
X2854793Y7409462D01*
X2854410Y7408008D01*
X2854121Y7406500D01*
X2853923Y7404951D01*
X2853817Y7403373D01*
X2853801Y7401777D01*
X2853875Y7400176D01*
X2854038Y7398581D01*
X2854288Y7397006D01*
X2854626Y7395461D01*
X2855050Y7393959D01*
X2855560Y7392511D01*
X2856154Y7391131D01*
X2856832Y7389829D01*
X2857593Y7388618D01*
X3025521Y7143897D01*
X3025904Y7143306D01*
X3026257Y7142699D01*
X3026580Y7142075D01*
X3026874Y7141436D01*
X3027138Y7140783D01*
X3027373Y7140118D01*
X3027755Y7138757D01*
X3028021Y7137363D01*
X3028173Y7135946D01*
X3028210Y7134518D01*
X3028135Y7133090D01*
X3027948Y7131672D01*
X3027650Y7130274D01*
X3027242Y7128909D01*
X3026724Y7127586D01*
X3026099Y7126316D01*
X3025747Y7125704D01*
X3025367Y7125110D01*
X3024961Y7124534D01*
X3024529Y7123979D01*
X3024070Y7123445D01*
X3023586Y7122933D01*
X2802981Y6902365D01*
X2802471Y6901882D01*
X2801939Y6901425D01*
X2801385Y6900994D01*
X2800811Y6900590D01*
X2800219Y6900211D01*
X2799609Y6899860D01*
X2798983Y6899535D01*
X2798342Y6899237D01*
X2797688Y6898965D01*
X2797022Y6898721D01*
X2795659Y6898314D01*
X2794264Y6898017D01*
X2792847Y6897830D01*
X2791420Y6897754D01*
X2789994Y6897791D01*
X2788578Y6897942D01*
X2787877Y6898060D01*
X2787183Y6898207D01*
X2786498Y6898382D01*
X2785821Y6898587D01*
X2785156Y6898821D01*
X2784502Y6899084D01*
X2783862Y6899376D01*
X2783237Y6899698D01*
X2782628Y6900049D01*
X2782036Y6900430D01*
X2541648Y7065427D01*
X2540439Y7066177D01*
X2539144Y7066834D01*
X2537775Y7067399D01*
X2536343Y7067872D01*
X2534861Y7068252D01*
X2533339Y7068538D01*
X2531791Y7068732D01*
X2530228Y7068831D01*
X2528661Y7068837D01*
X2527103Y7068749D01*
X2525566Y7068566D01*
X2524061Y7068288D01*
X2522600Y7067915D01*
X2521195Y7067446D01*
X2519858Y7066882D01*
X2518601Y7066222D01*
X2412585Y7009619D01*
X2411953Y7009316D01*
X2411315Y7009049D01*
X2410673Y7008819D01*
X2410028Y7008625D01*
X2409380Y7008466D01*
X2408732Y7008341D01*
X2408083Y7008252D01*
X2407436Y7008197D01*
X2406791Y7008175D01*
X2406150Y7008187D01*
X2405513Y7008232D01*
X2404882Y7008309D01*
X2404257Y7008418D01*
X2403640Y7008559D01*
X2403033Y7008731D01*
X2402435Y7008934D01*
X2401849Y7009168D01*
X2401275Y7009431D01*
X2400715Y7009724D01*
X2400169Y7010046D01*
X2399639Y7010397D01*
X2399126Y7010777D01*
X2398630Y7011184D01*
X2398154Y7011618D01*
X2397698Y7012080D01*
X2397263Y7012569D01*
X2396850Y7013083D01*
X2396461Y7013624D01*
X2396097Y7014190D01*
X2395758Y7014780D01*
X2395446Y7015396D01*
X2395162Y7016035D01*
X2176567Y7544214D01*
X2176312Y7544872D01*
X2176091Y7545539D01*
X2175903Y7546214D01*
X2175748Y7546898D01*
X2175625Y7547587D01*
X2175534Y7548281D01*
X2175446Y7549680D01*
X2175480Y7551083D01*
X2175633Y7552482D01*
X2175902Y7553864D01*
X2176283Y7555222D01*
X2176774Y7556544D01*
X2177370Y7557820D01*
X2178069Y7559041D01*
X2178867Y7560196D01*
X2179760Y7561276D01*
X2180242Y7561785D01*
X2180746Y7562270D01*
X2181273Y7562732D01*
X2181822Y7563169D01*
X2182392Y7563579D01*
X2182983Y7563961D01*
X2209515Y7580205D01*
X2211430Y7581421D01*
X2213472Y7582809D01*
X2215603Y7584339D01*
X2217786Y7585980D01*
X2219984Y7587703D01*
X2222160Y7589476D01*
X2224275Y7591271D01*
X2226293Y7593055D01*
X2243853Y7605077D01*
X2260613Y7618130D01*
X2276526Y7632168D01*
X2291546Y7647146D01*
X2305629Y7663019D01*
X2318727Y7679741D01*
X2330795Y7697266D01*
X2341788Y7715550D01*
X2351659Y7734546D01*
X2356159Y7744297D01*
X2360362Y7754209D01*
X2364262Y7764276D01*
X2367852Y7774493D01*
X2371128Y7784855D01*
X2374083Y7795354D01*
X2376713Y7805986D01*
X2379010Y7816746D01*
X2380969Y7827626D01*
X2382585Y7838622D01*
X2383852Y7849728D01*
X2384764Y7860939D01*
X2385315Y7872247D01*
X2385501Y7883649D01*
X2385052Y7901402D01*
X2383719Y7918922D01*
X2381525Y7936188D01*
X2378491Y7953177D01*
X2374639Y7969867D01*
X2369989Y7986238D01*
X2364565Y8002268D01*
X2358388Y8017934D01*
X2351479Y8033216D01*
X2343860Y8048091D01*
X2335553Y8062538D01*
X2326579Y8076535D01*
X2316960Y8090060D01*
X2306718Y8103093D01*
X2295875Y8115610D01*
X2284452Y8127591D01*
X2272470Y8139014D01*
X2259952Y8149857D01*
X2246920Y8160098D01*
X2233394Y8169716D01*
X2219397Y8178690D01*
X2204950Y8186996D01*
X2190075Y8194615D01*
X2174794Y8201523D01*
X2159128Y8207700D01*
X2143099Y8213124D01*
X2126728Y8217772D01*
X2110038Y8221625D01*
X2093051Y8224658D01*
X2075786Y8226852D01*
X2058268Y8228184D01*
X2040516Y8228633D01*
X2022765Y8228184D01*
X2005246Y8226852D01*
X1987982Y8224658D01*
X1970995Y8221625D01*
X1954305Y8217772D01*
X1937935Y8213124D01*
X1921907Y8207700D01*
X1906242Y8201523D01*
X1890961Y8194615D01*
X1876087Y8186996D01*
X1861641Y8178690D01*
X1847644Y8169716D01*
X1834119Y8160098D01*
X1821088Y8149857D01*
X1808571Y8139014D01*
X1796590Y8127591D01*
X1785168Y8115610D01*
X1774325Y8103092D01*
X1764084Y8090060D01*
X1754466Y8076535D01*
X1745493Y8062537D01*
X1737187Y8048091D01*
X1729568Y8033216D01*
X1722660Y8017934D01*
X1716483Y8002268D01*
X1711060Y7986238D01*
X1706411Y7969867D01*
X1702559Y7953176D01*
X1699525Y7936188D01*
X1697331Y7918922D01*
X1695999Y7901402D01*
X1695550Y7883649D01*
X1696286Y7860939D01*
X1698465Y7838622D01*
X1702039Y7816746D01*
X1706965Y7795354D01*
X1713195Y7774493D01*
X1720684Y7754209D01*
X1729386Y7734546D01*
X1739256Y7715550D01*
X1750248Y7697266D01*
X1762316Y7679741D01*
X1775414Y7663019D01*
X1789497Y7647146D01*
X1804518Y7632168D01*
X1820433Y7618130D01*
X1837195Y7605077D01*
X1854758Y7593055D01*
X1856765Y7591271D01*
X1858873Y7589476D01*
X1861044Y7587703D01*
X1863240Y7585980D01*
X1865421Y7584339D01*
X1867551Y7582809D01*
X1869590Y7581421D01*
X1871500Y7580205D01*
X1898031Y7563961D01*
X1898619Y7563579D01*
X1899186Y7563169D01*
X1899732Y7562732D01*
X1900257Y7562270D01*
X1900759Y7561785D01*
X1901239Y7561276D01*
X1901696Y7560747D01*
X1902130Y7560197D01*
X1902540Y7559628D01*
X1902926Y7559041D01*
X1903287Y7558438D01*
X1903623Y7557820D01*
X1903934Y7557188D01*
X1904219Y7556544D01*
X1904478Y7555888D01*
X1904710Y7555222D01*
X1904915Y7554547D01*
X1905093Y7553865D01*
X1905242Y7553176D01*
X1905363Y7552482D01*
X1905456Y7551784D01*
X1905519Y7551084D01*
X1905552Y7550382D01*
X1905555Y7549680D01*
X1905528Y7548980D01*
X1905470Y7548282D01*
X1905380Y7547587D01*
X1905259Y7546898D01*
X1905106Y7546214D01*
X1904919Y7545539D01*
X1904700Y7544872D01*
X1904447Y7544214D01*
X1685870Y7016017D01*
X1685587Y7015377D01*
X1685275Y7014761D01*
X1684936Y7014171D01*
X1684572Y7013605D01*
X1684183Y7013065D01*
X1683771Y7012551D01*
X1683337Y7012063D01*
X1682881Y7011602D01*
X1682405Y7011168D01*
X1681910Y7010761D01*
X1681398Y7010382D01*
X1680868Y7010032D01*
X1680323Y7009711D01*
X1679763Y7009418D01*
X1679190Y7009155D01*
X1678604Y7008922D01*
X1678007Y7008720D01*
X1677400Y7008548D01*
X1676783Y7008408D01*
X1676159Y7008298D01*
X1675528Y7008221D01*
X1674891Y7008177D01*
X1674249Y7008165D01*
X1673604Y7008186D01*
X1672957Y7008241D01*
X1672308Y7008330D01*
X1671658Y7008453D01*
X1671010Y7008611D01*
X1670364Y7008805D01*
X1669720Y7009034D01*
X1669081Y7009299D01*
X1668447Y7009600D01*
X1562432Y7066203D01*
X1561171Y7066864D01*
X1559832Y7067430D01*
X1558426Y7067899D01*
X1556964Y7068274D01*
X1555458Y7068553D01*
X1553921Y7068737D01*
X1552363Y7068827D01*
X1550797Y7068822D01*
X1549235Y7068723D01*
X1547688Y7068529D01*
X1546168Y7068242D01*
X1544687Y7067862D01*
X1543256Y7067388D01*
X1541887Y7066821D01*
X1540593Y7066161D01*
X1539385Y7065408D01*
X1298978Y6900411D01*
X1298388Y6900030D01*
X1297780Y6899679D01*
X1297156Y6899358D01*
X1296517Y6899065D01*
X1295864Y6898802D01*
X1295200Y6898569D01*
X1293839Y6898188D01*
X1292445Y6897923D01*
X1291029Y6897773D01*
X1289603Y6897736D01*
X1288176Y6897811D01*
X1286760Y6897998D01*
X1285365Y6898295D01*
X1284002Y6898702D01*
X1282683Y6899218D01*
X1281417Y6899841D01*
X1280808Y6900192D01*
X1280216Y6900571D01*
X1279643Y6900975D01*
X1279091Y6901406D01*
X1278560Y6901863D01*
X1278052Y6902346D01*
X1057447Y7122914D01*
X1056960Y7123426D01*
X1056500Y7123960D01*
X1056066Y7124515D01*
X1055659Y7125091D01*
X1055278Y7125685D01*
X1054924Y7126297D01*
X1054597Y7126924D01*
X1054297Y7127567D01*
X1054024Y7128222D01*
X1053778Y7128890D01*
X1053369Y7130256D01*
X1053070Y7131653D01*
X1052883Y7133071D01*
X1052808Y7134500D01*
X1052846Y7135927D01*
X1052999Y7137344D01*
X1053119Y7138044D01*
X1053267Y7138738D01*
X1053444Y7139424D01*
X1053651Y7140099D01*
X1053887Y7140764D01*
X1054153Y7141417D01*
X1054448Y7142056D01*
X1054772Y7142680D01*
X1055127Y7143288D01*
X1055511Y7143878D01*
X1223458Y7388599D01*
X1224213Y7389810D01*
X1224886Y7391112D01*
X1225476Y7392492D01*
X1225982Y7393940D01*
X1226404Y7395442D01*
X1226741Y7396987D01*
X1226990Y7398563D01*
X1227153Y7400157D01*
X1227227Y7401758D01*
X1227212Y7403354D01*
X1227106Y7404932D01*
X1226909Y7406481D01*
X1226620Y7407989D01*
X1226238Y7409443D01*
X1225762Y7410832D01*
X1225191Y7412144D01*
X1132893Y7642705D01*
X1132665Y7643377D01*
X1132404Y7644046D01*
X1131793Y7645377D01*
X1131069Y7646687D01*
X1130240Y7647970D01*
X1129315Y7649216D01*
X1128304Y7650419D01*
X1127214Y7651570D01*
X1126056Y7652661D01*
X1124837Y7653683D01*
X1123567Y7654629D01*
X1122254Y7655491D01*
X1120907Y7656260D01*
X1119535Y7656928D01*
X1118148Y7657487D01*
X1117450Y7657724D01*
X1116752Y7657930D01*
X1116055Y7658105D01*
X1115359Y7658247D01*
X819713Y7713265D01*
X819026Y7713408D01*
X818347Y7713586D01*
X817678Y7713796D01*
X817018Y7714038D01*
X816370Y7714311D01*
X815734Y7714614D01*
X815111Y7714945D01*
X814502Y7715304D01*
X813907Y7715690D01*
X813328Y7716101D01*
X812765Y7716536D01*
X812220Y7716995D01*
X811692Y7717476D01*
X811184Y7717978D01*
X810695Y7718501D01*
X810227Y7719043D01*
X809781Y7719603D01*
X809357Y7720179D01*
X808957Y7720772D01*
X808581Y7721380D01*
X808230Y7722002D01*
X807905Y7722636D01*
X807606Y7723282D01*
X807336Y7723939D01*
X807094Y7724606D01*
X806881Y7725281D01*
X806699Y7725964D01*
X806548Y7726653D01*
X806429Y7727347D01*
X806343Y7728046D01*
X806290Y7728749D01*
X806273Y7729453D01*
X806236Y8041398D01*
X806252Y8042104D01*
X806302Y8042807D01*
X806387Y8043507D01*
X806504Y8044202D01*
X806653Y8044891D01*
X806834Y8045573D01*
X807045Y8046248D01*
X807285Y8046914D01*
X807555Y8047570D01*
X807851Y8048216D01*
X808524Y8049470D01*
X809298Y8050668D01*
X810166Y8051803D01*
X811120Y8052866D01*
X812153Y8053849D01*
X813260Y8054743D01*
X814432Y8055541D01*
X815041Y8055901D01*
X815663Y8056234D01*
X816298Y8056539D01*
X816946Y8056815D01*
X817605Y8057060D01*
X818274Y8057274D01*
X818953Y8057456D01*
X819640Y8057604D01*
X1122735Y8113968D01*
X1124124Y8114291D01*
X1125521Y8114736D01*
X1126915Y8115296D01*
X1128299Y8115962D01*
X1129662Y8116726D01*
X1130995Y8117582D01*
X1132290Y8118520D01*
X1133537Y8119534D01*
X1134726Y8120614D01*
X1135849Y8121754D01*
X1136896Y8122946D01*
X1137858Y8124181D01*
X1138726Y8125452D01*
X1139491Y8126750D01*
X1140143Y8128069D01*
X1140674Y8129400D01*
X1233581Y8346152D01*
X1234182Y8347449D01*
X1234688Y8348824D01*
X1235098Y8350265D01*
X1235414Y8351760D01*
X1235636Y8353297D01*
X1235765Y8354864D01*
X1235802Y8356450D01*
X1235747Y8358041D01*
X1235602Y8359628D01*
X1235366Y8361197D01*
X1235041Y8362737D01*
X1234628Y8364236D01*
X1234127Y8365682D01*
X1233539Y8367064D01*
X1232864Y8368369D01*
X1232104Y8369585D01*
X1055510Y8626973D01*
X1055129Y8627563D01*
X1054778Y8628171D01*
X1054455Y8628795D01*
X1054163Y8629433D01*
X1053899Y8630085D01*
X1053664Y8630750D01*
X1053282Y8632110D01*
X1053015Y8633503D01*
X1052863Y8634918D01*
X1052823Y8636344D01*
X1052897Y8637771D01*
X1053082Y8639187D01*
X1053379Y8640583D01*
X1053786Y8641947D01*
X1054302Y8643269D01*
X1054927Y8644537D01*
X1055280Y8645149D01*
X1055660Y8645742D01*
X1056066Y8646318D01*
X1056499Y8646873D01*
X1056959Y8647407D01*
X1057445Y8647918D01*
X1278013Y8868486D01*
X1278525Y8868972D01*
X1279058Y8869433D01*
X1279613Y8869866D01*
X1280188Y8870274D01*
X1280782Y8870654D01*
X1281392Y8871008D01*
X1282019Y8871335D01*
X1282660Y8871635D01*
X1283314Y8871908D01*
X1283980Y8872154D01*
X1285343Y8872563D01*
X1286737Y8872862D01*
X1288151Y8873049D01*
X1289576Y8873124D01*
X1291001Y8873086D01*
X1292414Y8872933D01*
X1293113Y8872814D01*
X1293806Y8872666D01*
X1294490Y8872488D01*
X1295164Y8872281D01*
X1295828Y8872046D01*
X1296480Y8871780D01*
X1297118Y8871485D01*
X1297742Y8871161D01*
X1298349Y8870806D01*
X1298939Y8870422D01*
X1560845Y8690693D01*
X1562056Y8689935D01*
X1563359Y8689261D01*
X1564741Y8688670D01*
X1566191Y8688164D01*
X1567695Y8687744D01*
X1569242Y8687409D01*
X1570820Y8687162D01*
X1572417Y8687003D01*
X1574019Y8686932D01*
X1575616Y8686952D01*
X1577194Y8687061D01*
X1578743Y8687262D01*
X1580248Y8687556D01*
X1581700Y8687942D01*
X1583084Y8688422D01*
X1584389Y8688996D01*
X1794503Y8775007D01*
X1795172Y8775245D01*
X1795838Y8775514D01*
X1796501Y8775814D01*
X1797160Y8776144D01*
X1798462Y8776887D01*
X1799737Y8777735D01*
X1800975Y8778678D01*
X1802170Y8779707D01*
X1803313Y8780814D01*
X1804397Y8781988D01*
X1805414Y8783222D01*
X1806356Y8784505D01*
X1807215Y8785830D01*
X1807983Y8787185D01*
X1808653Y8788564D01*
X1809216Y8789956D01*
X1809664Y8791352D01*
X1809843Y8792049D01*
X1809991Y8792744D01*
X1868346Y9106237D01*
X1868491Y9106926D01*
X1868670Y9107607D01*
X1868881Y9108277D01*
X1869124Y9108938D01*
X1869397Y9109587D01*
X1869700Y9110223D01*
X1870032Y9110847D01*
X1870390Y9111457D01*
X1870775Y9112052D01*
X1871186Y9112631D01*
X1871621Y9113194D01*
X1872078Y9113739D01*
X1872559Y9114267D01*
X1873060Y9114775D01*
X1873581Y9115263D01*
X1874122Y9115731D01*
X1874680Y9116176D01*
X1875256Y9116600D01*
X1875847Y9116999D01*
X1876454Y9117375D01*
X1877074Y9117726D01*
X1877707Y9118050D01*
X1878352Y9118348D01*
X1879008Y9118618D01*
X1879673Y9118859D01*
X1880347Y9119072D01*
X1881029Y9119253D01*
X1881717Y9119404D01*
X1882411Y9119523D01*
X1883110Y9119609D01*
X1883812Y9119661D01*
X1884516Y9119678D01*
X2196479Y9119678D01*
X2197182Y9119661D01*
G37*
%TD*%
M02*
