%TF.GenerationSoftware,KiCad,Pcbnew,7.0.6*%
%TF.CreationDate,2023-12-29T14:00:24-07:00*%
%TF.ProjectId,SparkFun_RGB_CBI_Example,53706172-6b46-4756-9e5f-5247425f4342,rev?*%
%TF.SameCoordinates,Original*%
%TF.FileFunction,Copper,L1,Top*%
%TF.FilePolarity,Positive*%
%FSLAX46Y46*%
G04 Gerber Fmt 4.6, Leading zero omitted, Abs format (unit mm)*
G04 Created by KiCad (PCBNEW 7.0.6) date 2023-12-29 14:00:24*
%MOMM*%
%LPD*%
G01*
G04 APERTURE LIST*
G04 Aperture macros list*
%AMRoundRect*
0 Rectangle with rounded corners*
0 $1 Rounding radius*
0 $2 $3 $4 $5 $6 $7 $8 $9 X,Y pos of 4 corners*
0 Add a 4 corners polygon primitive as box body*
4,1,4,$2,$3,$4,$5,$6,$7,$8,$9,$2,$3,0*
0 Add four circle primitives for the rounded corners*
1,1,$1+$1,$2,$3*
1,1,$1+$1,$4,$5*
1,1,$1+$1,$6,$7*
1,1,$1+$1,$8,$9*
0 Add four rect primitives between the rounded corners*
20,1,$1+$1,$2,$3,$4,$5,0*
20,1,$1+$1,$4,$5,$6,$7,0*
20,1,$1+$1,$6,$7,$8,$9,0*
20,1,$1+$1,$8,$9,$2,$3,0*%
G04 Aperture macros list end*
%TA.AperFunction,SMDPad,CuDef*%
%ADD10RoundRect,0.225000X0.225000X0.250000X-0.225000X0.250000X-0.225000X-0.250000X0.225000X-0.250000X0*%
%TD*%
%TA.AperFunction,ComponentPad*%
%ADD11C,1.879600*%
%TD*%
%TA.AperFunction,SMDPad,CuDef*%
%ADD12C,0.500000*%
%TD*%
%TA.AperFunction,Conductor*%
%ADD13C,0.254000*%
%TD*%
G04 APERTURE END LIST*
D10*
%TO.P,C2,1*%
%TO.N,5V*%
X26175000Y15240000D03*
%TO.P,C2,2*%
%TO.N,GND*%
X24625000Y15240000D03*
%TD*%
D11*
%TO.P,D4,1,DIN*%
%TO.N,Net-(D3-DOUT)*%
X12065000Y10350000D03*
%TO.P,D4,2,VDD*%
%TO.N,5V*%
X10795000Y7810000D03*
%TO.P,D4,3,VSS*%
%TO.N,GND*%
X9525000Y10350000D03*
%TO.P,D4,4,DOUT*%
%TO.N,DOUT*%
X8255000Y7810000D03*
%TD*%
%TO.P,D1,1,DIN*%
%TO.N,DIN*%
X34925000Y10350000D03*
%TO.P,D1,2,VDD*%
%TO.N,5V*%
X33655000Y7810000D03*
%TO.P,D1,3,VSS*%
%TO.N,GND*%
X32385000Y10350000D03*
%TO.P,D1,4,DOUT*%
%TO.N,Net-(D1-DOUT)*%
X31115000Y7810000D03*
%TD*%
%TO.P,D3,1,DIN*%
%TO.N,Net-(D2-DOUT)*%
X19685000Y10350000D03*
%TO.P,D3,2,VDD*%
%TO.N,5V*%
X18415000Y7810000D03*
%TO.P,D3,3,VSS*%
%TO.N,GND*%
X17145000Y10350000D03*
%TO.P,D3,4,DOUT*%
%TO.N,Net-(D3-DOUT)*%
X15875000Y7810000D03*
%TD*%
D10*
%TO.P,C1,1*%
%TO.N,5V*%
X33795000Y15240000D03*
%TO.P,C1,2*%
%TO.N,GND*%
X32245000Y15240000D03*
%TD*%
D12*
%TO.P,FID1,*%
%TO.N,*%
X40640000Y6350000D03*
%TD*%
D11*
%TO.P,J1,4,Pin_4*%
%TO.N,DIN*%
X25400000Y19050000D03*
%TO.P,J1,3,Pin_3*%
%TO.N,5V*%
X22860000Y19050000D03*
%TO.P,J1,2,Pin_2*%
%TO.N,GND*%
X20320000Y19050000D03*
%TO.P,J1,1,Pin_1*%
%TO.N,DOUT*%
X17780000Y19050000D03*
%TD*%
D10*
%TO.P,C4,1*%
%TO.N,5V*%
X10935000Y15240000D03*
%TO.P,C4,2*%
%TO.N,GND*%
X9385000Y15240000D03*
%TD*%
%TO.P,C3,1*%
%TO.N,5V*%
X18555000Y15240000D03*
%TO.P,C3,2*%
%TO.N,GND*%
X17005000Y15240000D03*
%TD*%
D12*
%TO.P,FID2,*%
%TO.N,*%
X6350000Y19050000D03*
%TD*%
D11*
%TO.P,D2,1,DIN*%
%TO.N,Net-(D1-DOUT)*%
X27305000Y10350000D03*
%TO.P,D2,2,VDD*%
%TO.N,5V*%
X26035000Y7810000D03*
%TO.P,D2,3,VSS*%
%TO.N,GND*%
X24765000Y10350000D03*
%TO.P,D2,4,DOUT*%
%TO.N,Net-(D2-DOUT)*%
X23495000Y7810000D03*
%TD*%
D13*
%TO.N,5V*%
X22860000Y16555586D02*
X22905586Y16510000D01*
X22860000Y19050000D02*
X22860000Y16555586D01*
X25418313Y16510000D02*
X22905586Y16510000D01*
X22905586Y16510000D02*
X18592367Y16510000D01*
%TO.N,DOUT*%
X8255000Y17780000D02*
X8255000Y7810000D01*
X9525000Y19050000D02*
X8255000Y17780000D01*
X17780000Y19050000D02*
X9525000Y19050000D01*
%TO.N,DIN*%
X34925000Y17145000D02*
X34925000Y10350000D01*
X25400000Y19050000D02*
X33020000Y19050000D01*
X33020000Y19050000D02*
X34925000Y17145000D01*
%TO.N,Net-(D3-DOUT)*%
X13335000Y10350000D02*
X12065000Y10350000D01*
X15875000Y7810000D02*
X13335000Y10350000D01*
%TO.N,Net-(D2-DOUT)*%
X23495000Y7810000D02*
X20955000Y10350000D01*
X20955000Y10350000D02*
X19685000Y10350000D01*
%TO.N,Net-(D1-DOUT)*%
X28575000Y10350000D02*
X27305000Y10350000D01*
X31115000Y7810000D02*
X28575000Y10350000D01*
%TO.N,5V*%
X26165658Y16510000D02*
X25418313Y16510000D01*
X26175000Y16500658D02*
X26165658Y16510000D01*
X26175000Y15240000D02*
X26175000Y16500658D01*
X33655000Y16510000D02*
X26165658Y16510000D01*
X18555000Y16472633D02*
X18592367Y16510000D01*
X18555000Y15240000D02*
X18555000Y16472633D01*
X18592367Y16510000D02*
X12065000Y16510000D01*
X18415000Y7810000D02*
X18415000Y15100000D01*
X18415000Y15100000D02*
X18555000Y15240000D01*
X10795000Y15100000D02*
X10935000Y15240000D01*
X10795000Y7810000D02*
X10795000Y15100000D01*
X10935000Y15380000D02*
X10935000Y15240000D01*
X12065000Y16510000D02*
X10935000Y15380000D01*
X33795000Y16370000D02*
X33655000Y16510000D01*
X33795000Y15240000D02*
X33795000Y16370000D01*
X33655000Y15100000D02*
X33795000Y15240000D01*
X33655000Y7810000D02*
X33655000Y15100000D01*
X26035000Y15100000D02*
X26175000Y15240000D01*
X26035000Y7810000D02*
X26035000Y15100000D01*
%TD*%
%TA.AperFunction,Conductor*%
%TO.N,GND*%
G36*
X17602296Y20301907D02*
G01*
X17628016Y20257358D01*
X17619083Y20206700D01*
X17579678Y20173635D01*
X17567779Y20170381D01*
X17504958Y20158638D01*
X17466604Y20151468D01*
X17269544Y20075127D01*
X17269543Y20075127D01*
X17089869Y19963876D01*
X16933697Y19821506D01*
X16933694Y19821503D01*
X16806341Y19652859D01*
X16712147Y19463692D01*
X16706973Y19445505D01*
X16703164Y19432121D01*
X16673016Y19390444D01*
X16630836Y19377500D01*
X9540934Y19377500D01*
X9537656Y19377643D01*
X9531801Y19378156D01*
X9496016Y19381286D01*
X9496015Y19381286D01*
X9496013Y19381286D01*
X9455633Y19370467D01*
X9452440Y19369759D01*
X9442004Y19367919D01*
X9411259Y19362498D01*
X9407156Y19360128D01*
X9389030Y19352620D01*
X9384458Y19351395D01*
X9384454Y19351393D01*
X9350215Y19327419D01*
X9347449Y19325657D01*
X9311239Y19304750D01*
X9311238Y19304749D01*
X9284366Y19272724D01*
X9282149Y19270306D01*
X8034701Y18022856D01*
X8032282Y18020639D01*
X8000251Y17993762D01*
X8000248Y17993759D01*
X7979340Y17957548D01*
X7977579Y17954783D01*
X7953606Y17920545D01*
X7953605Y17920542D01*
X7952380Y17915970D01*
X7944872Y17897844D01*
X7942502Y17893740D01*
X7935244Y17852578D01*
X7934534Y17849375D01*
X7923713Y17808987D01*
X7927357Y17767338D01*
X7927500Y17764059D01*
X7927500Y8957518D01*
X7909907Y8909180D01*
X7879466Y8887396D01*
X7744546Y8835128D01*
X7564869Y8723876D01*
X7408697Y8581506D01*
X7408694Y8581503D01*
X7281341Y8412859D01*
X7187150Y8223697D01*
X7187144Y8223681D01*
X7129315Y8020436D01*
X7129314Y8020427D01*
X7109815Y7810003D01*
X7109815Y7809998D01*
X7129314Y7599574D01*
X7129315Y7599565D01*
X7187144Y7396320D01*
X7187150Y7396304D01*
X7281341Y7207142D01*
X7408694Y7038498D01*
X7408697Y7038495D01*
X7564869Y6896125D01*
X7744543Y6784874D01*
X7744545Y6784874D01*
X7744547Y6784872D01*
X7941605Y6708532D01*
X8149336Y6669700D01*
X8149340Y6669700D01*
X8360660Y6669700D01*
X8360664Y6669700D01*
X8568395Y6708532D01*
X8765453Y6784872D01*
X8945128Y6896123D01*
X9101302Y7038494D01*
X9228656Y7207138D01*
X9322853Y7396311D01*
X9380686Y7599573D01*
X9400185Y7810000D01*
X9380686Y8020427D01*
X9380684Y8020433D01*
X9380684Y8020436D01*
X9322855Y8223681D01*
X9322853Y8223689D01*
X9319880Y8229659D01*
X9228658Y8412859D01*
X9101305Y8581503D01*
X9101302Y8581506D01*
X8945130Y8723876D01*
X8765453Y8835128D01*
X8630534Y8887396D01*
X8591816Y8921263D01*
X8582500Y8957518D01*
X8582500Y9606664D01*
X8600093Y9655002D01*
X8644642Y9680722D01*
X8695300Y9671789D01*
X8695952Y9671236D01*
X8702242Y9670927D01*
X9174343Y10143029D01*
X9192117Y10108146D01*
X9283146Y10017117D01*
X9318026Y9999345D01*
X8845925Y9527244D01*
X8929448Y9458698D01*
X8929454Y9458694D01*
X9114774Y9359638D01*
X9114773Y9359638D01*
X9315873Y9298635D01*
X9315872Y9298635D01*
X9524999Y9278039D01*
X9734127Y9298635D01*
X9935225Y9359638D01*
X10120545Y9458694D01*
X10120551Y9458698D01*
X10204073Y9527244D01*
X9731972Y9999345D01*
X9766854Y10017117D01*
X9857883Y10108146D01*
X9875655Y10143028D01*
X10347756Y9670927D01*
X10363435Y9671697D01*
X10378434Y9680576D01*
X10429187Y9672197D01*
X10462680Y9633155D01*
X10467500Y9606665D01*
X10467500Y8957518D01*
X10449907Y8909180D01*
X10419466Y8887396D01*
X10284546Y8835128D01*
X10104869Y8723876D01*
X9948697Y8581506D01*
X9948694Y8581503D01*
X9821341Y8412859D01*
X9727150Y8223697D01*
X9727144Y8223681D01*
X9669315Y8020436D01*
X9669314Y8020427D01*
X9649815Y7810003D01*
X9649815Y7809998D01*
X9669314Y7599574D01*
X9669315Y7599565D01*
X9727144Y7396320D01*
X9727150Y7396304D01*
X9821341Y7207142D01*
X9948694Y7038498D01*
X9948697Y7038495D01*
X10104869Y6896125D01*
X10284543Y6784874D01*
X10284545Y6784874D01*
X10284547Y6784872D01*
X10481605Y6708532D01*
X10689336Y6669700D01*
X10689340Y6669700D01*
X10900660Y6669700D01*
X10900664Y6669700D01*
X11108395Y6708532D01*
X11305453Y6784872D01*
X11485128Y6896123D01*
X11641302Y7038494D01*
X11768656Y7207138D01*
X11862853Y7396311D01*
X11920686Y7599573D01*
X11940185Y7810000D01*
X11920686Y8020427D01*
X11920684Y8020433D01*
X11920684Y8020436D01*
X11862855Y8223681D01*
X11862853Y8223689D01*
X11859880Y8229659D01*
X11768658Y8412859D01*
X11641305Y8581503D01*
X11641302Y8581506D01*
X11485130Y8723876D01*
X11305453Y8835128D01*
X11170534Y8887396D01*
X11131816Y8921263D01*
X11122500Y8957518D01*
X11122500Y9495879D01*
X11140093Y9544217D01*
X11184642Y9569937D01*
X11235300Y9561004D01*
X11248362Y9551452D01*
X11374869Y9436125D01*
X11554543Y9324874D01*
X11554545Y9324874D01*
X11554547Y9324872D01*
X11751605Y9248532D01*
X11959336Y9209700D01*
X11959340Y9209700D01*
X12170660Y9209700D01*
X12170664Y9209700D01*
X12378395Y9248532D01*
X12575453Y9324872D01*
X12755128Y9436123D01*
X12911302Y9578494D01*
X13038656Y9747138D01*
X13132853Y9936311D01*
X13132856Y9936320D01*
X13133797Y9938747D01*
X13167664Y9977464D01*
X13218495Y9985354D01*
X13257092Y9964754D01*
X14832381Y8389464D01*
X14854121Y8342844D01*
X14846524Y8302772D01*
X14807148Y8223693D01*
X14807144Y8223681D01*
X14749315Y8020436D01*
X14749314Y8020427D01*
X14729815Y7810003D01*
X14729815Y7809998D01*
X14749314Y7599574D01*
X14749315Y7599565D01*
X14807144Y7396320D01*
X14807150Y7396304D01*
X14901341Y7207142D01*
X15028694Y7038498D01*
X15028697Y7038495D01*
X15184869Y6896125D01*
X15364543Y6784874D01*
X15364545Y6784874D01*
X15364547Y6784872D01*
X15561605Y6708532D01*
X15769336Y6669700D01*
X15769340Y6669700D01*
X15980660Y6669700D01*
X15980664Y6669700D01*
X16188395Y6708532D01*
X16385453Y6784872D01*
X16565128Y6896123D01*
X16721302Y7038494D01*
X16848656Y7207138D01*
X16942853Y7396311D01*
X17000686Y7599573D01*
X17020185Y7810000D01*
X17000686Y8020427D01*
X17000684Y8020433D01*
X17000684Y8020436D01*
X16942855Y8223681D01*
X16942853Y8223689D01*
X16939880Y8229659D01*
X16848658Y8412859D01*
X16721305Y8581503D01*
X16721302Y8581506D01*
X16565130Y8723876D01*
X16385456Y8835127D01*
X16188395Y8911468D01*
X16188394Y8911468D01*
X15980664Y8950300D01*
X15769336Y8950300D01*
X15614003Y8921263D01*
X15561604Y8911468D01*
X15373103Y8838443D01*
X15321674Y8837387D01*
X15292764Y8855391D01*
X14870116Y9278039D01*
X13577844Y10570310D01*
X13575638Y10572718D01*
X13548761Y10604749D01*
X13548760Y10604750D01*
X13530610Y10615229D01*
X13512549Y10625657D01*
X13509782Y10627420D01*
X13475546Y10651392D01*
X13475545Y10651393D01*
X13475543Y10651394D01*
X13470968Y10652620D01*
X13452843Y10660128D01*
X13448737Y10662498D01*
X13448739Y10662498D01*
X13420476Y10667481D01*
X13407565Y10669758D01*
X13404373Y10670465D01*
X13378117Y10677500D01*
X13363984Y10681287D01*
X13363983Y10681287D01*
X13322336Y10677643D01*
X13319058Y10677500D01*
X13214164Y10677500D01*
X13165826Y10695093D01*
X13141835Y10732121D01*
X13132853Y10763689D01*
X13132852Y10763692D01*
X13038658Y10952859D01*
X12911305Y11121503D01*
X12911302Y11121506D01*
X12755130Y11263876D01*
X12575456Y11375127D01*
X12378395Y11451468D01*
X12170664Y11490300D01*
X11959336Y11490300D01*
X11804003Y11461263D01*
X11751604Y11451468D01*
X11554544Y11375127D01*
X11554543Y11375127D01*
X11374869Y11263876D01*
X11248362Y11148549D01*
X11200787Y11128985D01*
X11151768Y11144580D01*
X11124241Y11188034D01*
X11122500Y11204122D01*
X11122500Y14489400D01*
X11140093Y14537738D01*
X11184642Y14563458D01*
X11191811Y14564369D01*
X11193470Y14564500D01*
X11193488Y14564500D01*
X11293126Y14580281D01*
X11413220Y14641472D01*
X11508528Y14736780D01*
X11569719Y14856874D01*
X11585500Y14956512D01*
X11585500Y15138400D01*
X16428001Y15138400D01*
X16428001Y14956597D01*
X16437969Y14888173D01*
X16489563Y14782633D01*
X16572630Y14699566D01*
X16678173Y14647970D01*
X16678172Y14647970D01*
X16746591Y14638001D01*
X16903400Y14638001D01*
X16903400Y15138400D01*
X17106600Y15138400D01*
X17106600Y14638001D01*
X17263401Y14638001D01*
X17263403Y14638002D01*
X17331827Y14647970D01*
X17437367Y14699564D01*
X17520434Y14782631D01*
X17572030Y14888173D01*
X17581999Y14956587D01*
X17582000Y14956597D01*
X17582000Y15138400D01*
X17106600Y15138400D01*
X16903400Y15138400D01*
X16428001Y15138400D01*
X11585500Y15138400D01*
X11585500Y15341600D01*
X16428000Y15341600D01*
X16903400Y15341600D01*
X16903400Y15842000D01*
X17106600Y15842000D01*
X17106600Y15341600D01*
X17581999Y15341600D01*
X17581999Y15523401D01*
X17581998Y15523404D01*
X17572030Y15591828D01*
X17520436Y15697368D01*
X17437369Y15780435D01*
X17331826Y15832031D01*
X17331827Y15832031D01*
X17263413Y15842000D01*
X17106600Y15842000D01*
X16903400Y15842000D01*
X16746598Y15842000D01*
X16746582Y15841998D01*
X16678176Y15832033D01*
X16678174Y15832032D01*
X16572632Y15780437D01*
X16489565Y15697370D01*
X16437969Y15591828D01*
X16428000Y15523414D01*
X16428000Y15341600D01*
X11585500Y15341600D01*
X11585500Y15523488D01*
X11585497Y15523507D01*
X11585497Y15523512D01*
X11585268Y15526429D01*
X11586077Y15526493D01*
X11595312Y15574001D01*
X11606593Y15588441D01*
X12178629Y16160475D01*
X12225250Y16182214D01*
X12231804Y16182500D01*
X18152300Y16182500D01*
X18200638Y16164907D01*
X18226358Y16120358D01*
X18227500Y16107300D01*
X18227500Y15961406D01*
X18209907Y15913068D01*
X18186442Y15894404D01*
X18127819Y15864534D01*
X18076777Y15838527D01*
X17981473Y15743223D01*
X17920281Y15623128D01*
X17904500Y15523491D01*
X17904500Y14956510D01*
X17920281Y14856873D01*
X17958109Y14782633D01*
X17981472Y14736780D01*
X18065474Y14652778D01*
X18087214Y14606159D01*
X18087500Y14599604D01*
X18087500Y11093337D01*
X18069907Y11044999D01*
X18025358Y11019279D01*
X17974700Y11028212D01*
X17974047Y11028766D01*
X17967756Y11029075D01*
X17495655Y10556974D01*
X17477883Y10591854D01*
X17386854Y10682883D01*
X17351972Y10700656D01*
X17824073Y11172758D01*
X17740551Y11241303D01*
X17740545Y11241307D01*
X17555225Y11340363D01*
X17555226Y11340363D01*
X17354126Y11401366D01*
X17354127Y11401366D01*
X17145000Y11421962D01*
X16935872Y11401366D01*
X16734774Y11340363D01*
X16549459Y11241310D01*
X16549449Y11241304D01*
X16465925Y11172758D01*
X16938027Y10700656D01*
X16903146Y10682883D01*
X16812117Y10591854D01*
X16794344Y10556973D01*
X16322242Y11029075D01*
X16253696Y10945551D01*
X16253690Y10945541D01*
X16154637Y10760226D01*
X16093634Y10559128D01*
X16073038Y10350001D01*
X16093634Y10140873D01*
X16154637Y9939775D01*
X16253693Y9754455D01*
X16253697Y9754449D01*
X16322242Y9670927D01*
X16794343Y10143029D01*
X16812117Y10108146D01*
X16903146Y10017117D01*
X16938026Y9999345D01*
X16465925Y9527244D01*
X16549448Y9458698D01*
X16549454Y9458694D01*
X16734774Y9359638D01*
X16734773Y9359638D01*
X16935873Y9298635D01*
X16935872Y9298635D01*
X17145000Y9278039D01*
X17354127Y9298635D01*
X17555225Y9359638D01*
X17740545Y9458694D01*
X17740551Y9458698D01*
X17824073Y9527244D01*
X17351972Y9999345D01*
X17386854Y10017117D01*
X17477883Y10108146D01*
X17495655Y10143028D01*
X17967756Y9670927D01*
X17983435Y9671697D01*
X17998434Y9680576D01*
X18049187Y9672197D01*
X18082680Y9633155D01*
X18087500Y9606665D01*
X18087500Y8957518D01*
X18069907Y8909180D01*
X18039466Y8887396D01*
X17904546Y8835128D01*
X17724869Y8723876D01*
X17568697Y8581506D01*
X17568694Y8581503D01*
X17441341Y8412859D01*
X17347150Y8223697D01*
X17347144Y8223681D01*
X17289315Y8020436D01*
X17289314Y8020427D01*
X17269815Y7810003D01*
X17269815Y7809998D01*
X17289314Y7599574D01*
X17289315Y7599565D01*
X17347144Y7396320D01*
X17347150Y7396304D01*
X17441341Y7207142D01*
X17568694Y7038498D01*
X17568697Y7038495D01*
X17724869Y6896125D01*
X17904543Y6784874D01*
X17904545Y6784874D01*
X17904547Y6784872D01*
X18101605Y6708532D01*
X18309336Y6669700D01*
X18309340Y6669700D01*
X18520660Y6669700D01*
X18520664Y6669700D01*
X18728395Y6708532D01*
X18925453Y6784872D01*
X19105128Y6896123D01*
X19261302Y7038494D01*
X19388656Y7207138D01*
X19482853Y7396311D01*
X19540686Y7599573D01*
X19560185Y7810000D01*
X19540686Y8020427D01*
X19540684Y8020433D01*
X19540684Y8020436D01*
X19482855Y8223681D01*
X19482853Y8223689D01*
X19479880Y8229659D01*
X19388658Y8412859D01*
X19261305Y8581503D01*
X19261302Y8581506D01*
X19105130Y8723876D01*
X18925453Y8835128D01*
X18790534Y8887396D01*
X18751816Y8921263D01*
X18742500Y8957518D01*
X18742500Y9495879D01*
X18760093Y9544217D01*
X18804642Y9569937D01*
X18855300Y9561004D01*
X18868362Y9551452D01*
X18994869Y9436125D01*
X19174543Y9324874D01*
X19174545Y9324874D01*
X19174547Y9324872D01*
X19371605Y9248532D01*
X19579336Y9209700D01*
X19579340Y9209700D01*
X19790660Y9209700D01*
X19790664Y9209700D01*
X19998395Y9248532D01*
X20195453Y9324872D01*
X20375128Y9436123D01*
X20531302Y9578494D01*
X20658656Y9747138D01*
X20752853Y9936311D01*
X20752856Y9936320D01*
X20753797Y9938747D01*
X20787664Y9977464D01*
X20838495Y9985354D01*
X20877092Y9964754D01*
X22452381Y8389464D01*
X22474121Y8342844D01*
X22466524Y8302772D01*
X22427148Y8223693D01*
X22427144Y8223681D01*
X22369315Y8020436D01*
X22369314Y8020427D01*
X22349815Y7810003D01*
X22349815Y7809998D01*
X22369314Y7599574D01*
X22369315Y7599565D01*
X22427144Y7396320D01*
X22427150Y7396304D01*
X22521341Y7207142D01*
X22648694Y7038498D01*
X22648697Y7038495D01*
X22804869Y6896125D01*
X22984543Y6784874D01*
X22984545Y6784874D01*
X22984547Y6784872D01*
X23181605Y6708532D01*
X23389336Y6669700D01*
X23389340Y6669700D01*
X23600660Y6669700D01*
X23600664Y6669700D01*
X23808395Y6708532D01*
X24005453Y6784872D01*
X24185128Y6896123D01*
X24341302Y7038494D01*
X24468656Y7207138D01*
X24562853Y7396311D01*
X24620686Y7599573D01*
X24640185Y7810000D01*
X24620686Y8020427D01*
X24620684Y8020433D01*
X24620684Y8020436D01*
X24562855Y8223681D01*
X24562853Y8223689D01*
X24559880Y8229659D01*
X24468658Y8412859D01*
X24341305Y8581503D01*
X24341302Y8581506D01*
X24185130Y8723876D01*
X24005456Y8835127D01*
X23808395Y8911468D01*
X23808394Y8911468D01*
X23600664Y8950300D01*
X23389336Y8950300D01*
X23234003Y8921263D01*
X23181604Y8911468D01*
X22993103Y8838443D01*
X22941674Y8837387D01*
X22912764Y8855391D01*
X22490116Y9278039D01*
X21197844Y10570310D01*
X21195638Y10572718D01*
X21168761Y10604749D01*
X21168760Y10604750D01*
X21150610Y10615229D01*
X21132549Y10625657D01*
X21129782Y10627420D01*
X21095546Y10651392D01*
X21095545Y10651393D01*
X21095543Y10651394D01*
X21090968Y10652620D01*
X21072843Y10660128D01*
X21068737Y10662498D01*
X21068739Y10662498D01*
X21040476Y10667481D01*
X21027565Y10669758D01*
X21024373Y10670465D01*
X20998117Y10677500D01*
X20983984Y10681287D01*
X20983983Y10681287D01*
X20942336Y10677643D01*
X20939058Y10677500D01*
X20834164Y10677500D01*
X20785826Y10695093D01*
X20761835Y10732121D01*
X20752853Y10763689D01*
X20752852Y10763692D01*
X20658658Y10952859D01*
X20531305Y11121503D01*
X20531302Y11121506D01*
X20375130Y11263876D01*
X20195456Y11375127D01*
X19998395Y11451468D01*
X19790664Y11490300D01*
X19579336Y11490300D01*
X19424003Y11461263D01*
X19371604Y11451468D01*
X19174544Y11375127D01*
X19174543Y11375127D01*
X18994869Y11263876D01*
X18868362Y11148549D01*
X18820787Y11128985D01*
X18771768Y11144580D01*
X18744241Y11188034D01*
X18742500Y11204122D01*
X18742500Y14489400D01*
X18760093Y14537738D01*
X18804642Y14563458D01*
X18811811Y14564369D01*
X18813470Y14564500D01*
X18813488Y14564500D01*
X18913126Y14580281D01*
X19033220Y14641472D01*
X19128528Y14736780D01*
X19189719Y14856874D01*
X19205500Y14956512D01*
X19205500Y15138400D01*
X24048001Y15138400D01*
X24048001Y14956597D01*
X24057969Y14888173D01*
X24109563Y14782633D01*
X24192630Y14699566D01*
X24298173Y14647970D01*
X24298172Y14647970D01*
X24366591Y14638001D01*
X24523400Y14638001D01*
X24523400Y15138400D01*
X24726600Y15138400D01*
X24726600Y14638001D01*
X24883401Y14638001D01*
X24883403Y14638002D01*
X24951827Y14647970D01*
X25057367Y14699564D01*
X25140434Y14782631D01*
X25192030Y14888173D01*
X25201999Y14956587D01*
X25202000Y14956597D01*
X25202000Y15138400D01*
X24726600Y15138400D01*
X24523400Y15138400D01*
X24048001Y15138400D01*
X19205500Y15138400D01*
X19205500Y15341600D01*
X24048000Y15341600D01*
X24523400Y15341600D01*
X24523400Y15842000D01*
X24726600Y15842000D01*
X24726600Y15341600D01*
X25201999Y15341600D01*
X25201999Y15523401D01*
X25201998Y15523404D01*
X25192030Y15591828D01*
X25140436Y15697368D01*
X25057369Y15780435D01*
X24951826Y15832031D01*
X24951827Y15832031D01*
X24883413Y15842000D01*
X24726600Y15842000D01*
X24523400Y15842000D01*
X24366598Y15842000D01*
X24366582Y15841998D01*
X24298176Y15832033D01*
X24298174Y15832032D01*
X24192632Y15780437D01*
X24109565Y15697370D01*
X24057969Y15591828D01*
X24048000Y15523414D01*
X24048000Y15341600D01*
X19205500Y15341600D01*
X19205500Y15523488D01*
X19189719Y15623126D01*
X19128528Y15743220D01*
X19128527Y15743221D01*
X19128526Y15743223D01*
X19033222Y15838527D01*
X19026406Y15842000D01*
X18923558Y15894404D01*
X18888478Y15932023D01*
X18882500Y15961406D01*
X18882500Y16107300D01*
X18900093Y16155638D01*
X18944642Y16181358D01*
X18957700Y16182500D01*
X22852573Y16182500D01*
X22872035Y16179938D01*
X22876601Y16178714D01*
X22918240Y16182357D01*
X22921519Y16182500D01*
X25389661Y16182500D01*
X25772300Y16182500D01*
X25820638Y16164907D01*
X25846358Y16120358D01*
X25847500Y16107300D01*
X25847500Y15961406D01*
X25829907Y15913068D01*
X25806442Y15894404D01*
X25747819Y15864534D01*
X25696777Y15838527D01*
X25601473Y15743223D01*
X25540281Y15623128D01*
X25524500Y15523491D01*
X25524500Y14956510D01*
X25540281Y14856873D01*
X25578109Y14782633D01*
X25601472Y14736780D01*
X25685474Y14652778D01*
X25707214Y14606159D01*
X25707500Y14599604D01*
X25707500Y11093337D01*
X25689907Y11044999D01*
X25645358Y11019279D01*
X25594700Y11028212D01*
X25594047Y11028766D01*
X25587756Y11029075D01*
X25115655Y10556974D01*
X25097883Y10591854D01*
X25006854Y10682883D01*
X24971972Y10700656D01*
X25444073Y11172758D01*
X25360551Y11241303D01*
X25360545Y11241307D01*
X25175225Y11340363D01*
X25175226Y11340363D01*
X24974126Y11401366D01*
X24974127Y11401366D01*
X24764999Y11421962D01*
X24555872Y11401366D01*
X24354774Y11340363D01*
X24169459Y11241310D01*
X24169449Y11241304D01*
X24085925Y11172758D01*
X24558027Y10700656D01*
X24523146Y10682883D01*
X24432117Y10591854D01*
X24414344Y10556973D01*
X23942242Y11029075D01*
X23873696Y10945551D01*
X23873690Y10945541D01*
X23774637Y10760226D01*
X23713634Y10559128D01*
X23693038Y10350001D01*
X23713634Y10140873D01*
X23774637Y9939775D01*
X23873693Y9754455D01*
X23873697Y9754449D01*
X23942242Y9670927D01*
X24414343Y10143029D01*
X24432117Y10108146D01*
X24523146Y10017117D01*
X24558026Y9999345D01*
X24085925Y9527244D01*
X24169448Y9458698D01*
X24169454Y9458694D01*
X24354774Y9359638D01*
X24354773Y9359638D01*
X24555873Y9298635D01*
X24555872Y9298635D01*
X24765000Y9278039D01*
X24974127Y9298635D01*
X25175225Y9359638D01*
X25360545Y9458694D01*
X25360551Y9458698D01*
X25444073Y9527244D01*
X24971972Y9999345D01*
X25006854Y10017117D01*
X25097883Y10108146D01*
X25115655Y10143028D01*
X25587756Y9670927D01*
X25603435Y9671697D01*
X25618434Y9680576D01*
X25669187Y9672197D01*
X25702680Y9633155D01*
X25707500Y9606665D01*
X25707500Y8957518D01*
X25689907Y8909180D01*
X25659466Y8887396D01*
X25524546Y8835128D01*
X25344869Y8723876D01*
X25188697Y8581506D01*
X25188694Y8581503D01*
X25061341Y8412859D01*
X24967150Y8223697D01*
X24967144Y8223681D01*
X24909315Y8020436D01*
X24909314Y8020427D01*
X24889815Y7810003D01*
X24889815Y7809998D01*
X24909314Y7599574D01*
X24909315Y7599565D01*
X24967144Y7396320D01*
X24967150Y7396304D01*
X25061341Y7207142D01*
X25188694Y7038498D01*
X25188697Y7038495D01*
X25344869Y6896125D01*
X25524543Y6784874D01*
X25524545Y6784874D01*
X25524547Y6784872D01*
X25721605Y6708532D01*
X25929336Y6669700D01*
X25929340Y6669700D01*
X26140660Y6669700D01*
X26140664Y6669700D01*
X26348395Y6708532D01*
X26545453Y6784872D01*
X26725128Y6896123D01*
X26881302Y7038494D01*
X27008656Y7207138D01*
X27102853Y7396311D01*
X27160686Y7599573D01*
X27180185Y7810000D01*
X27160686Y8020427D01*
X27160684Y8020433D01*
X27160684Y8020436D01*
X27102855Y8223681D01*
X27102853Y8223689D01*
X27099880Y8229659D01*
X27008658Y8412859D01*
X26881305Y8581503D01*
X26881302Y8581506D01*
X26725130Y8723876D01*
X26545453Y8835128D01*
X26410534Y8887396D01*
X26371816Y8921263D01*
X26362500Y8957518D01*
X26362500Y9495879D01*
X26380093Y9544217D01*
X26424642Y9569937D01*
X26475300Y9561004D01*
X26488362Y9551452D01*
X26614869Y9436125D01*
X26794543Y9324874D01*
X26794545Y9324874D01*
X26794547Y9324872D01*
X26991605Y9248532D01*
X27199336Y9209700D01*
X27199340Y9209700D01*
X27410660Y9209700D01*
X27410664Y9209700D01*
X27618395Y9248532D01*
X27815453Y9324872D01*
X27995128Y9436123D01*
X28151302Y9578494D01*
X28278656Y9747138D01*
X28372853Y9936311D01*
X28372856Y9936320D01*
X28373797Y9938747D01*
X28407664Y9977464D01*
X28458495Y9985354D01*
X28497092Y9964754D01*
X30072381Y8389464D01*
X30094121Y8342844D01*
X30086524Y8302772D01*
X30047148Y8223693D01*
X30047144Y8223681D01*
X29989315Y8020436D01*
X29989314Y8020427D01*
X29969815Y7810003D01*
X29969815Y7809998D01*
X29989314Y7599574D01*
X29989315Y7599565D01*
X30047144Y7396320D01*
X30047150Y7396304D01*
X30141341Y7207142D01*
X30268694Y7038498D01*
X30268697Y7038495D01*
X30424869Y6896125D01*
X30604543Y6784874D01*
X30604545Y6784874D01*
X30604547Y6784872D01*
X30801605Y6708532D01*
X31009336Y6669700D01*
X31009340Y6669700D01*
X31220660Y6669700D01*
X31220664Y6669700D01*
X31428395Y6708532D01*
X31625453Y6784872D01*
X31805128Y6896123D01*
X31961302Y7038494D01*
X32088656Y7207138D01*
X32182853Y7396311D01*
X32240686Y7599573D01*
X32260185Y7810000D01*
X32240686Y8020427D01*
X32240684Y8020433D01*
X32240684Y8020436D01*
X32182855Y8223681D01*
X32182853Y8223689D01*
X32179880Y8229659D01*
X32088658Y8412859D01*
X31961305Y8581503D01*
X31961302Y8581506D01*
X31805130Y8723876D01*
X31625456Y8835127D01*
X31428395Y8911468D01*
X31428394Y8911468D01*
X31220664Y8950300D01*
X31009336Y8950300D01*
X30854003Y8921263D01*
X30801604Y8911468D01*
X30613103Y8838443D01*
X30561674Y8837387D01*
X30532764Y8855391D01*
X30110116Y9278039D01*
X28817844Y10570310D01*
X28815638Y10572718D01*
X28788761Y10604749D01*
X28788760Y10604750D01*
X28770610Y10615229D01*
X28752549Y10625657D01*
X28749782Y10627420D01*
X28715546Y10651392D01*
X28715545Y10651393D01*
X28715543Y10651394D01*
X28710968Y10652620D01*
X28692843Y10660128D01*
X28688737Y10662498D01*
X28688739Y10662498D01*
X28660476Y10667481D01*
X28647565Y10669758D01*
X28644373Y10670465D01*
X28618117Y10677500D01*
X28603984Y10681287D01*
X28603983Y10681287D01*
X28562336Y10677643D01*
X28559058Y10677500D01*
X28454164Y10677500D01*
X28405826Y10695093D01*
X28381835Y10732121D01*
X28372853Y10763689D01*
X28372852Y10763692D01*
X28278658Y10952859D01*
X28151305Y11121503D01*
X28151302Y11121506D01*
X27995130Y11263876D01*
X27815456Y11375127D01*
X27618395Y11451468D01*
X27410664Y11490300D01*
X27199336Y11490300D01*
X27044003Y11461263D01*
X26991604Y11451468D01*
X26794544Y11375127D01*
X26794543Y11375127D01*
X26614869Y11263876D01*
X26488362Y11148549D01*
X26440787Y11128985D01*
X26391768Y11144580D01*
X26364241Y11188034D01*
X26362500Y11204122D01*
X26362500Y14489400D01*
X26380093Y14537738D01*
X26424642Y14563458D01*
X26431811Y14564369D01*
X26433470Y14564500D01*
X26433488Y14564500D01*
X26533126Y14580281D01*
X26653220Y14641472D01*
X26748528Y14736780D01*
X26809719Y14856874D01*
X26825500Y14956512D01*
X26825500Y15138400D01*
X31668001Y15138400D01*
X31668001Y14956597D01*
X31677969Y14888173D01*
X31729563Y14782633D01*
X31812630Y14699566D01*
X31918173Y14647970D01*
X31918172Y14647970D01*
X31986591Y14638001D01*
X32143400Y14638001D01*
X32143400Y15138400D01*
X32346600Y15138400D01*
X32346600Y14638001D01*
X32503401Y14638001D01*
X32503403Y14638002D01*
X32571827Y14647970D01*
X32677367Y14699564D01*
X32760434Y14782631D01*
X32812030Y14888173D01*
X32821999Y14956587D01*
X32822000Y14956597D01*
X32822000Y15138400D01*
X32346600Y15138400D01*
X32143400Y15138400D01*
X31668001Y15138400D01*
X26825500Y15138400D01*
X26825500Y15341600D01*
X31668000Y15341600D01*
X32143400Y15341600D01*
X32143400Y15842000D01*
X32346600Y15842000D01*
X32346600Y15341600D01*
X32821999Y15341600D01*
X32821999Y15523401D01*
X32821998Y15523404D01*
X32812030Y15591828D01*
X32760436Y15697368D01*
X32677369Y15780435D01*
X32571826Y15832031D01*
X32571827Y15832031D01*
X32503413Y15842000D01*
X32346600Y15842000D01*
X32143400Y15842000D01*
X31986598Y15842000D01*
X31986582Y15841998D01*
X31918176Y15832033D01*
X31918174Y15832032D01*
X31812632Y15780437D01*
X31729565Y15697370D01*
X31677969Y15591828D01*
X31668000Y15523414D01*
X31668000Y15341600D01*
X26825500Y15341600D01*
X26825500Y15523488D01*
X26809719Y15623126D01*
X26748528Y15743220D01*
X26748527Y15743221D01*
X26748526Y15743223D01*
X26653222Y15838527D01*
X26646406Y15842000D01*
X26543558Y15894404D01*
X26508478Y15932023D01*
X26502500Y15961406D01*
X26502500Y16107300D01*
X26520093Y16155638D01*
X26564642Y16181358D01*
X26577700Y16182500D01*
X33392300Y16182500D01*
X33440638Y16164907D01*
X33466358Y16120358D01*
X33467500Y16107300D01*
X33467500Y15961406D01*
X33449907Y15913068D01*
X33426442Y15894404D01*
X33367819Y15864534D01*
X33316777Y15838527D01*
X33221473Y15743223D01*
X33160281Y15623128D01*
X33144500Y15523491D01*
X33144500Y14956510D01*
X33160281Y14856873D01*
X33198109Y14782633D01*
X33221472Y14736780D01*
X33305474Y14652778D01*
X33327214Y14606159D01*
X33327500Y14599604D01*
X33327500Y11093337D01*
X33309907Y11044999D01*
X33265358Y11019279D01*
X33214700Y11028212D01*
X33214047Y11028766D01*
X33207756Y11029075D01*
X32735655Y10556974D01*
X32717883Y10591854D01*
X32626854Y10682883D01*
X32591972Y10700656D01*
X33064073Y11172758D01*
X32980551Y11241303D01*
X32980545Y11241307D01*
X32795225Y11340363D01*
X32795226Y11340363D01*
X32594126Y11401366D01*
X32594127Y11401366D01*
X32384999Y11421962D01*
X32175872Y11401366D01*
X31974774Y11340363D01*
X31789459Y11241310D01*
X31789449Y11241304D01*
X31705925Y11172758D01*
X32178027Y10700656D01*
X32143146Y10682883D01*
X32052117Y10591854D01*
X32034344Y10556974D01*
X31562242Y11029075D01*
X31493696Y10945551D01*
X31493690Y10945541D01*
X31394637Y10760226D01*
X31333634Y10559128D01*
X31313038Y10350000D01*
X31333634Y10140873D01*
X31394637Y9939775D01*
X31493693Y9754455D01*
X31493697Y9754449D01*
X31562242Y9670927D01*
X32034343Y10143029D01*
X32052117Y10108146D01*
X32143146Y10017117D01*
X32178026Y9999345D01*
X31705925Y9527244D01*
X31789448Y9458698D01*
X31789454Y9458694D01*
X31974774Y9359638D01*
X31974773Y9359638D01*
X32175873Y9298635D01*
X32175872Y9298635D01*
X32384999Y9278039D01*
X32594127Y9298635D01*
X32795225Y9359638D01*
X32980545Y9458694D01*
X32980551Y9458698D01*
X33064073Y9527244D01*
X32591972Y9999345D01*
X32626854Y10017117D01*
X32717883Y10108146D01*
X32735655Y10143028D01*
X33207756Y9670927D01*
X33223435Y9671697D01*
X33238434Y9680576D01*
X33289187Y9672197D01*
X33322680Y9633155D01*
X33327500Y9606665D01*
X33327500Y8957518D01*
X33309907Y8909180D01*
X33279466Y8887396D01*
X33144546Y8835128D01*
X32964869Y8723876D01*
X32808697Y8581506D01*
X32808694Y8581503D01*
X32681341Y8412859D01*
X32587150Y8223697D01*
X32587144Y8223681D01*
X32529315Y8020436D01*
X32529314Y8020427D01*
X32509815Y7810003D01*
X32509815Y7809998D01*
X32529314Y7599574D01*
X32529315Y7599565D01*
X32587144Y7396320D01*
X32587150Y7396304D01*
X32681341Y7207142D01*
X32808694Y7038498D01*
X32808697Y7038495D01*
X32964869Y6896125D01*
X33144543Y6784874D01*
X33144545Y6784874D01*
X33144547Y6784872D01*
X33341605Y6708532D01*
X33549336Y6669700D01*
X33549340Y6669700D01*
X33760660Y6669700D01*
X33760664Y6669700D01*
X33968395Y6708532D01*
X34165453Y6784872D01*
X34345128Y6896123D01*
X34501302Y7038494D01*
X34628656Y7207138D01*
X34722853Y7396311D01*
X34780686Y7599573D01*
X34800185Y7810000D01*
X34780686Y8020427D01*
X34780684Y8020433D01*
X34780684Y8020436D01*
X34722855Y8223681D01*
X34722853Y8223689D01*
X34719880Y8229659D01*
X34628658Y8412859D01*
X34501305Y8581503D01*
X34501302Y8581506D01*
X34345130Y8723876D01*
X34165453Y8835128D01*
X34030534Y8887396D01*
X33991816Y8921263D01*
X33982500Y8957518D01*
X33982500Y9495879D01*
X34000093Y9544217D01*
X34044642Y9569937D01*
X34095300Y9561004D01*
X34108362Y9551452D01*
X34234869Y9436125D01*
X34414543Y9324874D01*
X34414545Y9324874D01*
X34414547Y9324872D01*
X34611605Y9248532D01*
X34819336Y9209700D01*
X34819340Y9209700D01*
X35030660Y9209700D01*
X35030664Y9209700D01*
X35238395Y9248532D01*
X35435453Y9324872D01*
X35615128Y9436123D01*
X35771302Y9578494D01*
X35898656Y9747138D01*
X35992853Y9936311D01*
X36050686Y10139573D01*
X36070185Y10350000D01*
X36050686Y10560427D01*
X36050684Y10560433D01*
X36050684Y10560436D01*
X36011939Y10696607D01*
X35992853Y10763689D01*
X35989880Y10769659D01*
X35898658Y10952859D01*
X35771305Y11121503D01*
X35771302Y11121506D01*
X35615130Y11263876D01*
X35435453Y11375128D01*
X35300534Y11427396D01*
X35261816Y11461263D01*
X35252500Y11497518D01*
X35252500Y17129059D01*
X35252643Y17132337D01*
X35252743Y17133484D01*
X35256287Y17173984D01*
X35245461Y17214383D01*
X35244759Y17217547D01*
X35237497Y17258739D01*
X35235128Y17262842D01*
X35227617Y17280978D01*
X35226394Y17285543D01*
X35202410Y17319796D01*
X35200660Y17322543D01*
X35179750Y17358760D01*
X35179748Y17358762D01*
X35147716Y17385641D01*
X35145308Y17387847D01*
X34822787Y17710368D01*
X38099686Y17710368D01*
X38130129Y17433691D01*
X38200531Y17164401D01*
X38309393Y16908227D01*
X38309395Y16908224D01*
X38454388Y16670643D01*
X38454394Y16670634D01*
X38632438Y16456692D01*
X38632442Y16456688D01*
X38839745Y16270944D01*
X39071883Y16117363D01*
X39323909Y15999218D01*
X39590451Y15919027D01*
X39865828Y15878500D01*
X39865832Y15878500D01*
X40074493Y15878500D01*
X40282592Y15893731D01*
X40282594Y15893732D01*
X40282601Y15893732D01*
X40554286Y15954252D01*
X40814263Y16053685D01*
X41056993Y16189911D01*
X41277301Y16360028D01*
X41470492Y16560408D01*
X41632449Y16786782D01*
X41759719Y17034325D01*
X41822232Y17217564D01*
X41849589Y17297754D01*
X41849589Y17297757D01*
X41849591Y17297761D01*
X41900148Y17571474D01*
X41910314Y17849632D01*
X41879871Y18126306D01*
X41809469Y18395599D01*
X41700607Y18651772D01*
X41690791Y18667856D01*
X41555611Y18889358D01*
X41555605Y18889367D01*
X41377561Y19103309D01*
X41377557Y19103313D01*
X41188489Y19272718D01*
X41170255Y19289056D01*
X41009980Y19395093D01*
X40938116Y19442638D01*
X40686089Y19560783D01*
X40534246Y19606466D01*
X40419549Y19640973D01*
X40247672Y19666268D01*
X40144173Y19681500D01*
X40144172Y19681500D01*
X39935511Y19681500D01*
X39935507Y19681500D01*
X39727407Y19666270D01*
X39455709Y19605747D01*
X39195739Y19506316D01*
X39195735Y19506314D01*
X38953010Y19370092D01*
X38732699Y19199973D01*
X38539512Y18999597D01*
X38539504Y18999587D01*
X38377553Y18773223D01*
X38250278Y18525670D01*
X38160410Y18262247D01*
X38160408Y18262237D01*
X38109852Y17988529D01*
X38099686Y17710372D01*
X38099686Y17710368D01*
X34822787Y17710368D01*
X33262844Y19270310D01*
X33260638Y19272718D01*
X33233761Y19304749D01*
X33233760Y19304750D01*
X33215610Y19315229D01*
X33197549Y19325657D01*
X33194782Y19327420D01*
X33160546Y19351392D01*
X33160545Y19351393D01*
X33160543Y19351394D01*
X33155968Y19352620D01*
X33137843Y19360128D01*
X33133737Y19362498D01*
X33133739Y19362498D01*
X33105476Y19367481D01*
X33092565Y19369758D01*
X33089373Y19370465D01*
X33063117Y19377500D01*
X33048984Y19381287D01*
X33048983Y19381287D01*
X33007336Y19377643D01*
X33004058Y19377500D01*
X26549164Y19377500D01*
X26500826Y19395093D01*
X26476835Y19432121D01*
X26467853Y19463689D01*
X26467852Y19463692D01*
X26373658Y19652859D01*
X26352029Y19681500D01*
X26256507Y19807993D01*
X26246305Y19821503D01*
X26246302Y19821506D01*
X26090130Y19963876D01*
X25910456Y20075127D01*
X25713395Y20151468D01*
X25713394Y20151468D01*
X25612223Y20170381D01*
X25567942Y20196556D01*
X25550846Y20245072D01*
X25568935Y20293226D01*
X25613745Y20318488D01*
X25626042Y20319500D01*
X42469300Y20319500D01*
X42517638Y20301907D01*
X42543358Y20257358D01*
X42544500Y20244300D01*
X42544500Y75700D01*
X42526907Y27362D01*
X42482358Y1642D01*
X42469300Y500D01*
X75700Y500D01*
X27362Y18093D01*
X1642Y62642D01*
X500Y75700D01*
X500Y2470368D01*
X634686Y2470368D01*
X665129Y2193691D01*
X735531Y1924401D01*
X844393Y1668227D01*
X844395Y1668224D01*
X989388Y1430643D01*
X989394Y1430634D01*
X1167438Y1216692D01*
X1167442Y1216688D01*
X1374745Y1030944D01*
X1606883Y877363D01*
X1858909Y759218D01*
X2125451Y679027D01*
X2400828Y638500D01*
X2400832Y638500D01*
X2609493Y638500D01*
X2817592Y653731D01*
X2817594Y653732D01*
X2817601Y653732D01*
X3089286Y714252D01*
X3349263Y813685D01*
X3591993Y949911D01*
X3812301Y1120028D01*
X4005492Y1320408D01*
X4167449Y1546782D01*
X4294719Y1794325D01*
X4384591Y2057761D01*
X4435148Y2331474D01*
X4440224Y2470368D01*
X38099686Y2470368D01*
X38130129Y2193691D01*
X38200531Y1924401D01*
X38309393Y1668227D01*
X38309395Y1668224D01*
X38454388Y1430643D01*
X38454394Y1430634D01*
X38632438Y1216692D01*
X38632442Y1216688D01*
X38839745Y1030944D01*
X39071883Y877363D01*
X39323909Y759218D01*
X39590451Y679027D01*
X39865828Y638500D01*
X39865832Y638500D01*
X40074493Y638500D01*
X40282592Y653731D01*
X40282594Y653732D01*
X40282601Y653732D01*
X40554286Y714252D01*
X40814263Y813685D01*
X41056993Y949911D01*
X41277301Y1120028D01*
X41470492Y1320408D01*
X41632449Y1546782D01*
X41759719Y1794325D01*
X41849591Y2057761D01*
X41900148Y2331474D01*
X41910314Y2609632D01*
X41879871Y2886306D01*
X41809469Y3155599D01*
X41700607Y3411772D01*
X41555607Y3649364D01*
X41555605Y3649367D01*
X41377561Y3863309D01*
X41377557Y3863313D01*
X41170257Y4049054D01*
X41170255Y4049056D01*
X41015496Y4151444D01*
X40938116Y4202638D01*
X40686089Y4320783D01*
X40534246Y4366466D01*
X40419549Y4400973D01*
X40247672Y4426268D01*
X40144173Y4441500D01*
X40144172Y4441500D01*
X39935511Y4441500D01*
X39935507Y4441500D01*
X39727407Y4426270D01*
X39455709Y4365747D01*
X39195739Y4266316D01*
X39195735Y4266314D01*
X38953010Y4130092D01*
X38732699Y3959973D01*
X38539512Y3759597D01*
X38539504Y3759587D01*
X38377553Y3533223D01*
X38250278Y3285670D01*
X38160410Y3022247D01*
X38160408Y3022237D01*
X38109852Y2748529D01*
X38099686Y2470372D01*
X38099686Y2470368D01*
X4440224Y2470368D01*
X4445314Y2609632D01*
X4414871Y2886306D01*
X4344469Y3155599D01*
X4235607Y3411772D01*
X4090607Y3649364D01*
X4090605Y3649367D01*
X3917244Y3857682D01*
X9280630Y3857682D01*
X9290939Y3667524D01*
X9341886Y3484034D01*
X9341888Y3484028D01*
X9431083Y3315788D01*
X9431087Y3315783D01*
X9554369Y3170643D01*
X9554371Y3170641D01*
X9574159Y3155599D01*
X9705971Y3055398D01*
X9878803Y2975438D01*
X10064784Y2934500D01*
X10064786Y2934500D01*
X10207463Y2934500D01*
X10207465Y2934500D01*
X10349316Y2949927D01*
X10529780Y3010733D01*
X10692954Y3108911D01*
X10831207Y3239871D01*
X10938075Y3397490D01*
X11008562Y3574398D01*
X11039370Y3762322D01*
X11034200Y3857682D01*
X16900630Y3857682D01*
X16910939Y3667524D01*
X16961886Y3484034D01*
X16961888Y3484028D01*
X17051083Y3315788D01*
X17051087Y3315783D01*
X17174369Y3170643D01*
X17174371Y3170641D01*
X17194159Y3155599D01*
X17325971Y3055398D01*
X17498803Y2975438D01*
X17684784Y2934500D01*
X17684786Y2934500D01*
X17827463Y2934500D01*
X17827465Y2934500D01*
X17969316Y2949927D01*
X18149780Y3010733D01*
X18312954Y3108911D01*
X18451207Y3239871D01*
X18558075Y3397490D01*
X18628562Y3574398D01*
X18659370Y3762322D01*
X18654200Y3857682D01*
X24520630Y3857682D01*
X24530939Y3667524D01*
X24581886Y3484034D01*
X24581888Y3484028D01*
X24671083Y3315788D01*
X24671087Y3315783D01*
X24794369Y3170643D01*
X24794371Y3170641D01*
X24814159Y3155599D01*
X24945971Y3055398D01*
X25118803Y2975438D01*
X25304784Y2934500D01*
X25304786Y2934500D01*
X25447463Y2934500D01*
X25447465Y2934500D01*
X25589316Y2949927D01*
X25769780Y3010733D01*
X25932954Y3108911D01*
X26071207Y3239871D01*
X26178075Y3397490D01*
X26248562Y3574398D01*
X26279370Y3762322D01*
X26274200Y3857682D01*
X32140630Y3857682D01*
X32150939Y3667524D01*
X32201886Y3484034D01*
X32201888Y3484028D01*
X32291083Y3315788D01*
X32291087Y3315783D01*
X32414369Y3170643D01*
X32414371Y3170641D01*
X32434159Y3155599D01*
X32565971Y3055398D01*
X32738803Y2975438D01*
X32924784Y2934500D01*
X32924786Y2934500D01*
X33067463Y2934500D01*
X33067465Y2934500D01*
X33209316Y2949927D01*
X33389780Y3010733D01*
X33552954Y3108911D01*
X33691207Y3239871D01*
X33798075Y3397490D01*
X33868562Y3574398D01*
X33899370Y3762322D01*
X33889061Y3952475D01*
X33838114Y4135967D01*
X33802768Y4202637D01*
X33748916Y4304213D01*
X33748912Y4304218D01*
X33696648Y4365748D01*
X33625631Y4449357D01*
X33625630Y4449358D01*
X33625628Y4449360D01*
X33474029Y4564602D01*
X33301199Y4644561D01*
X33301197Y4644562D01*
X33115216Y4685500D01*
X32972535Y4685500D01*
X32937918Y4681736D01*
X32830687Y4670074D01*
X32830684Y4670073D01*
X32650220Y4609268D01*
X32487047Y4511090D01*
X32487042Y4511086D01*
X32348792Y4380129D01*
X32348791Y4380127D01*
X32241927Y4222515D01*
X32241923Y4222506D01*
X32171437Y4045601D01*
X32140630Y3857684D01*
X32140630Y3857682D01*
X26274200Y3857682D01*
X26269061Y3952475D01*
X26218114Y4135967D01*
X26182768Y4202637D01*
X26128916Y4304213D01*
X26128912Y4304218D01*
X26076648Y4365748D01*
X26005631Y4449357D01*
X26005630Y4449358D01*
X26005628Y4449360D01*
X25854029Y4564602D01*
X25681199Y4644561D01*
X25681197Y4644562D01*
X25495216Y4685500D01*
X25352535Y4685500D01*
X25317918Y4681736D01*
X25210687Y4670074D01*
X25210684Y4670073D01*
X25030220Y4609268D01*
X24867047Y4511090D01*
X24867042Y4511086D01*
X24728792Y4380129D01*
X24728791Y4380127D01*
X24621927Y4222515D01*
X24621923Y4222506D01*
X24551437Y4045601D01*
X24520630Y3857684D01*
X24520630Y3857682D01*
X18654200Y3857682D01*
X18649061Y3952475D01*
X18598114Y4135967D01*
X18562768Y4202637D01*
X18508916Y4304213D01*
X18508912Y4304218D01*
X18456648Y4365748D01*
X18385631Y4449357D01*
X18385630Y4449358D01*
X18385628Y4449360D01*
X18234029Y4564602D01*
X18061199Y4644561D01*
X18061197Y4644562D01*
X17875216Y4685500D01*
X17732535Y4685500D01*
X17697918Y4681736D01*
X17590687Y4670074D01*
X17590684Y4670073D01*
X17410220Y4609268D01*
X17247047Y4511090D01*
X17247042Y4511086D01*
X17108792Y4380129D01*
X17108791Y4380127D01*
X17001927Y4222515D01*
X17001923Y4222506D01*
X16931437Y4045601D01*
X16900630Y3857684D01*
X16900630Y3857682D01*
X11034200Y3857682D01*
X11029061Y3952475D01*
X10978114Y4135967D01*
X10942768Y4202637D01*
X10888916Y4304213D01*
X10888912Y4304218D01*
X10836648Y4365748D01*
X10765631Y4449357D01*
X10765630Y4449358D01*
X10765628Y4449360D01*
X10614029Y4564602D01*
X10441199Y4644561D01*
X10441197Y4644562D01*
X10255216Y4685500D01*
X10112535Y4685500D01*
X10077918Y4681736D01*
X9970687Y4670074D01*
X9970684Y4670073D01*
X9790220Y4609268D01*
X9627047Y4511090D01*
X9627042Y4511086D01*
X9488792Y4380129D01*
X9488791Y4380127D01*
X9381927Y4222515D01*
X9381923Y4222506D01*
X9311437Y4045601D01*
X9280630Y3857684D01*
X9280630Y3857682D01*
X3917244Y3857682D01*
X3912561Y3863309D01*
X3912557Y3863313D01*
X3705257Y4049054D01*
X3705255Y4049056D01*
X3550496Y4151444D01*
X3473116Y4202638D01*
X3221089Y4320783D01*
X3069246Y4366466D01*
X2954549Y4400973D01*
X2782672Y4426268D01*
X2679173Y4441500D01*
X2679172Y4441500D01*
X2470511Y4441500D01*
X2470507Y4441500D01*
X2262407Y4426270D01*
X1990709Y4365747D01*
X1730739Y4266316D01*
X1730735Y4266314D01*
X1488010Y4130092D01*
X1267699Y3959973D01*
X1074512Y3759597D01*
X1074504Y3759587D01*
X912553Y3533223D01*
X785278Y3285670D01*
X695410Y3022247D01*
X695408Y3022237D01*
X644852Y2748529D01*
X634686Y2470372D01*
X634686Y2470368D01*
X500Y2470368D01*
X500Y6350000D01*
X40134353Y6350000D01*
X40154835Y6207541D01*
X40214622Y6076628D01*
X40214624Y6076625D01*
X40308872Y5967858D01*
X40308872Y5967857D01*
X40429947Y5890047D01*
X40568039Y5849500D01*
X40568042Y5849500D01*
X40711958Y5849500D01*
X40711961Y5849500D01*
X40850053Y5890047D01*
X40971128Y5967857D01*
X41065377Y6076627D01*
X41125165Y6207543D01*
X41145647Y6350000D01*
X41125165Y6492457D01*
X41065377Y6623373D01*
X41065375Y6623376D01*
X40971127Y6732144D01*
X40971125Y6732145D01*
X40850051Y6809954D01*
X40850052Y6809954D01*
X40711963Y6850500D01*
X40711961Y6850500D01*
X40568039Y6850500D01*
X40568036Y6850500D01*
X40429948Y6809954D01*
X40308874Y6732145D01*
X40308872Y6732144D01*
X40214624Y6623376D01*
X40214622Y6623373D01*
X40154835Y6492460D01*
X40134353Y6350000D01*
X500Y6350000D01*
X500Y17710368D01*
X634686Y17710368D01*
X665129Y17433691D01*
X735531Y17164401D01*
X844393Y16908227D01*
X844395Y16908224D01*
X989388Y16670643D01*
X989394Y16670634D01*
X1167438Y16456692D01*
X1167442Y16456688D01*
X1374745Y16270944D01*
X1606883Y16117363D01*
X1858909Y15999218D01*
X2125451Y15919027D01*
X2400828Y15878500D01*
X2400832Y15878500D01*
X2609493Y15878500D01*
X2817592Y15893731D01*
X2817594Y15893732D01*
X2817601Y15893732D01*
X3089286Y15954252D01*
X3349263Y16053685D01*
X3591993Y16189911D01*
X3812301Y16360028D01*
X4005492Y16560408D01*
X4167449Y16786782D01*
X4294719Y17034325D01*
X4357232Y17217564D01*
X4384589Y17297754D01*
X4384589Y17297757D01*
X4384591Y17297761D01*
X4435148Y17571474D01*
X4445314Y17849632D01*
X4414871Y18126306D01*
X4344469Y18395599D01*
X4235607Y18651772D01*
X4225791Y18667856D01*
X4090611Y18889358D01*
X4090605Y18889367D01*
X3956924Y19050001D01*
X5844353Y19050001D01*
X5864835Y18907541D01*
X5924622Y18776628D01*
X5924624Y18776625D01*
X5978967Y18713910D01*
X6018872Y18667857D01*
X6139947Y18590047D01*
X6278039Y18549500D01*
X6278042Y18549500D01*
X6421958Y18549500D01*
X6421961Y18549500D01*
X6560053Y18590047D01*
X6681128Y18667857D01*
X6775377Y18776627D01*
X6835165Y18907543D01*
X6855647Y19050000D01*
X6835165Y19192457D01*
X6804717Y19259127D01*
X6775377Y19323373D01*
X6775375Y19323376D01*
X6681127Y19432144D01*
X6681125Y19432145D01*
X6632029Y19463697D01*
X6560053Y19509953D01*
X6560052Y19509954D01*
X6421963Y19550500D01*
X6421961Y19550500D01*
X6278039Y19550500D01*
X6278036Y19550500D01*
X6139948Y19509954D01*
X6018874Y19432145D01*
X6018872Y19432144D01*
X5924624Y19323376D01*
X5924622Y19323373D01*
X5864835Y19192460D01*
X5844353Y19050001D01*
X3956924Y19050001D01*
X3912561Y19103309D01*
X3912557Y19103313D01*
X3723489Y19272718D01*
X3705255Y19289056D01*
X3544980Y19395093D01*
X3473116Y19442638D01*
X3221089Y19560783D01*
X3069246Y19606466D01*
X2954549Y19640973D01*
X2782672Y19666268D01*
X2679173Y19681500D01*
X2679172Y19681500D01*
X2470511Y19681500D01*
X2470507Y19681500D01*
X2262407Y19666270D01*
X1990709Y19605747D01*
X1730739Y19506316D01*
X1730735Y19506314D01*
X1488010Y19370092D01*
X1267699Y19199973D01*
X1074512Y18999597D01*
X1074504Y18999587D01*
X912553Y18773223D01*
X785278Y18525670D01*
X695410Y18262247D01*
X695408Y18262237D01*
X644852Y17988529D01*
X634686Y17710372D01*
X634686Y17710368D01*
X500Y17710368D01*
X500Y20244300D01*
X18093Y20292638D01*
X62642Y20318358D01*
X75700Y20319500D01*
X17553958Y20319500D01*
X17602296Y20301907D01*
G37*
%TD.AperFunction*%
%TA.AperFunction,Conductor*%
G36*
X22682296Y20301907D02*
G01*
X22708016Y20257358D01*
X22699083Y20206700D01*
X22659678Y20173635D01*
X22647779Y20170381D01*
X22584958Y20158638D01*
X22546604Y20151468D01*
X22349544Y20075127D01*
X22349543Y20075127D01*
X22169869Y19963876D01*
X22013697Y19821506D01*
X22013694Y19821503D01*
X21886341Y19652859D01*
X21792150Y19463697D01*
X21792144Y19463681D01*
X21734315Y19260436D01*
X21734314Y19260427D01*
X21714815Y19050003D01*
X21714815Y19049998D01*
X21719486Y18999592D01*
X21734193Y18840874D01*
X21734314Y18839574D01*
X21734315Y18839565D01*
X21792144Y18636320D01*
X21792150Y18636304D01*
X21886341Y18447142D01*
X22013694Y18278498D01*
X22013697Y18278495D01*
X22169869Y18136125D01*
X22169871Y18136124D01*
X22169872Y18136123D01*
X22185727Y18126306D01*
X22349543Y18024874D01*
X22349545Y18024874D01*
X22349547Y18024872D01*
X22484466Y17972606D01*
X22523183Y17938740D01*
X22532500Y17902484D01*
X22532500Y16912700D01*
X22514907Y16864362D01*
X22470358Y16838642D01*
X22457300Y16837500D01*
X18608309Y16837500D01*
X18605031Y16837643D01*
X18563384Y16841287D01*
X18563381Y16841287D01*
X18558808Y16840061D01*
X18539349Y16837500D01*
X12080933Y16837500D01*
X12077655Y16837643D01*
X12071800Y16838156D01*
X12036015Y16841286D01*
X12036014Y16841286D01*
X12036012Y16841286D01*
X11995633Y16830467D01*
X11992431Y16829758D01*
X11951260Y16822498D01*
X11947156Y16820128D01*
X11929030Y16812620D01*
X11924458Y16811395D01*
X11924454Y16811393D01*
X11890215Y16787419D01*
X11887449Y16785657D01*
X11851239Y16764750D01*
X11851238Y16764749D01*
X11824366Y16732724D01*
X11822149Y16730306D01*
X11490831Y16398986D01*
X11029371Y15937526D01*
X10982752Y15915786D01*
X10976198Y15915500D01*
X10676509Y15915500D01*
X10576872Y15899719D01*
X10456777Y15838527D01*
X10361473Y15743223D01*
X10300281Y15623128D01*
X10284500Y15523491D01*
X10284500Y14956510D01*
X10300281Y14856873D01*
X10338109Y14782633D01*
X10361472Y14736780D01*
X10445474Y14652778D01*
X10467214Y14606159D01*
X10467500Y14599604D01*
X10467500Y11093337D01*
X10449907Y11044999D01*
X10405358Y11019279D01*
X10354700Y11028212D01*
X10354047Y11028766D01*
X10347756Y11029075D01*
X9875655Y10556974D01*
X9857883Y10591854D01*
X9766854Y10682883D01*
X9731972Y10700656D01*
X10204073Y11172758D01*
X10120551Y11241303D01*
X10120545Y11241307D01*
X9935225Y11340363D01*
X9935226Y11340363D01*
X9734126Y11401366D01*
X9734127Y11401366D01*
X9525000Y11421962D01*
X9315872Y11401366D01*
X9114774Y11340363D01*
X8929459Y11241310D01*
X8929449Y11241304D01*
X8845925Y11172758D01*
X9318027Y10700656D01*
X9283146Y10682883D01*
X9192117Y10591854D01*
X9174344Y10556974D01*
X8702242Y11029075D01*
X8686558Y11028305D01*
X8671564Y11019428D01*
X8620811Y11027809D01*
X8587319Y11066851D01*
X8582500Y11093339D01*
X8582500Y15138400D01*
X8808001Y15138400D01*
X8808001Y14956597D01*
X8817969Y14888173D01*
X8869563Y14782633D01*
X8952630Y14699566D01*
X9058173Y14647970D01*
X9058172Y14647970D01*
X9126591Y14638001D01*
X9283400Y14638001D01*
X9283400Y15138400D01*
X9486600Y15138400D01*
X9486600Y14638001D01*
X9643401Y14638001D01*
X9643403Y14638002D01*
X9711827Y14647970D01*
X9817367Y14699564D01*
X9900434Y14782631D01*
X9952030Y14888173D01*
X9961999Y14956587D01*
X9962000Y14956597D01*
X9962000Y15138400D01*
X9486600Y15138400D01*
X9283400Y15138400D01*
X8808001Y15138400D01*
X8582500Y15138400D01*
X8582500Y15341600D01*
X8808000Y15341600D01*
X9283400Y15341600D01*
X9283400Y15842000D01*
X9486600Y15842000D01*
X9486600Y15341600D01*
X9961999Y15341600D01*
X9961999Y15523401D01*
X9961998Y15523404D01*
X9952030Y15591828D01*
X9900436Y15697368D01*
X9817369Y15780435D01*
X9711826Y15832031D01*
X9711827Y15832031D01*
X9643413Y15842000D01*
X9486600Y15842000D01*
X9283400Y15842000D01*
X9126598Y15842000D01*
X9126582Y15841998D01*
X9058176Y15832033D01*
X9058174Y15832032D01*
X8952632Y15780437D01*
X8869565Y15697370D01*
X8817969Y15591828D01*
X8808000Y15523414D01*
X8808000Y15341600D01*
X8582500Y15341600D01*
X8582500Y17613198D01*
X8600093Y17661536D01*
X8604526Y17666372D01*
X9638629Y18700474D01*
X9685249Y18722214D01*
X9691803Y18722500D01*
X16630836Y18722500D01*
X16679174Y18704907D01*
X16703164Y18667880D01*
X16703172Y18667856D01*
X16712147Y18636309D01*
X16806341Y18447142D01*
X16933694Y18278498D01*
X16933697Y18278495D01*
X17089869Y18136125D01*
X17089871Y18136124D01*
X17089872Y18136123D01*
X17105727Y18126306D01*
X17269543Y18024874D01*
X17269545Y18024874D01*
X17269547Y18024872D01*
X17466605Y17948532D01*
X17674336Y17909700D01*
X17674340Y17909700D01*
X17885660Y17909700D01*
X17885664Y17909700D01*
X18093395Y17948532D01*
X18290453Y18024872D01*
X18470128Y18136123D01*
X18626302Y18278494D01*
X18753656Y18447138D01*
X18847853Y18636311D01*
X18905686Y18839573D01*
X18915770Y18948400D01*
X19258045Y18948400D01*
X19268634Y18840874D01*
X19329637Y18639775D01*
X19428693Y18454455D01*
X19428701Y18454443D01*
X19562007Y18292008D01*
X19724442Y18158702D01*
X19724454Y18158694D01*
X19909774Y18059638D01*
X19909773Y18059638D01*
X20110873Y17998635D01*
X20218400Y17988046D01*
X20218400Y18551384D01*
X20283666Y18542000D01*
X20356334Y18542000D01*
X20421600Y18551384D01*
X20421600Y17988046D01*
X20529126Y17998635D01*
X20730225Y18059638D01*
X20915545Y18158694D01*
X20915557Y18158702D01*
X21077992Y18292008D01*
X21211298Y18454443D01*
X21211306Y18454455D01*
X21310362Y18639775D01*
X21371365Y18840874D01*
X21381955Y18948400D01*
X20819614Y18948400D01*
X20828000Y18976961D01*
X20828000Y19123039D01*
X20819614Y19151600D01*
X21381955Y19151600D01*
X21371365Y19259127D01*
X21310362Y19460226D01*
X21211306Y19645546D01*
X21211298Y19645558D01*
X21077992Y19807993D01*
X20915557Y19941299D01*
X20915545Y19941307D01*
X20730225Y20040363D01*
X20730226Y20040363D01*
X20529126Y20101366D01*
X20421600Y20111956D01*
X20421600Y19548617D01*
X20356334Y19558000D01*
X20283666Y19558000D01*
X20218400Y19548617D01*
X20218400Y20111956D01*
X20218399Y20111956D01*
X20110874Y20101366D01*
X20110872Y20101366D01*
X19909774Y20040363D01*
X19724454Y19941307D01*
X19724442Y19941299D01*
X19562007Y19807993D01*
X19428701Y19645558D01*
X19428693Y19645546D01*
X19329637Y19460226D01*
X19268634Y19259127D01*
X19258045Y19151600D01*
X19820386Y19151600D01*
X19812000Y19123039D01*
X19812000Y18976961D01*
X19820386Y18948400D01*
X19258045Y18948400D01*
X18915770Y18948400D01*
X18925185Y19050000D01*
X18905686Y19260427D01*
X18905684Y19260433D01*
X18905684Y19260436D01*
X18866939Y19396607D01*
X18847853Y19463689D01*
X18800892Y19558000D01*
X18753658Y19652859D01*
X18732029Y19681500D01*
X18636507Y19807993D01*
X18626305Y19821503D01*
X18626302Y19821506D01*
X18470130Y19963876D01*
X18290456Y20075127D01*
X18093395Y20151468D01*
X18093394Y20151468D01*
X17992223Y20170381D01*
X17947942Y20196556D01*
X17930846Y20245072D01*
X17948935Y20293226D01*
X17993745Y20318488D01*
X18006042Y20319500D01*
X22633958Y20319500D01*
X22682296Y20301907D01*
G37*
%TD.AperFunction*%
%TD*%
M02*
