%TF.GenerationSoftware,KiCad,Pcbnew,7.0.6*%
%TF.CreationDate,2023-12-29T14:00:24-07:00*%
%TF.ProjectId,SparkFun_RGB_CBI_Example,53706172-6b46-4756-9e5f-5247425f4342,rev?*%
%TF.SameCoordinates,Original*%
%TF.FileFunction,Soldermask,Top*%
%TF.FilePolarity,Negative*%
%FSLAX46Y46*%
G04 Gerber Fmt 4.6, Leading zero omitted, Abs format (unit mm)*
G04 Created by KiCad (PCBNEW 7.0.6) date 2023-12-29 14:00:24*
%MOMM*%
%LPD*%
G01*
G04 APERTURE LIST*
G04 Aperture macros list*
%AMRoundRect*
0 Rectangle with rounded corners*
0 $1 Rounding radius*
0 $2 $3 $4 $5 $6 $7 $8 $9 X,Y pos of 4 corners*
0 Add a 4 corners polygon primitive as box body*
4,1,4,$2,$3,$4,$5,$6,$7,$8,$9,$2,$3,0*
0 Add four circle primitives for the rounded corners*
1,1,$1+$1,$2,$3*
1,1,$1+$1,$4,$5*
1,1,$1+$1,$6,$7*
1,1,$1+$1,$8,$9*
0 Add four rect primitives between the rounded corners*
20,1,$1+$1,$2,$3,$4,$5,0*
20,1,$1+$1,$4,$5,$6,$7,0*
20,1,$1+$1,$6,$7,$8,$9,0*
20,1,$1+$1,$8,$9,$2,$3,0*%
G04 Aperture macros list end*
%ADD10RoundRect,0.225000X0.225000X0.250000X-0.225000X0.250000X-0.225000X-0.250000X0.225000X-0.250000X0*%
%ADD11C,3.302000*%
%ADD12C,1.250000*%
%ADD13C,2.082800*%
%ADD14C,1.000000*%
G04 APERTURE END LIST*
D10*
%TO.C,C2*%
X26175000Y15240000D03*
X24625000Y15240000D03*
%TD*%
D11*
%TO.C,ST1*%
X40005000Y17780000D03*
%TD*%
D12*
%TO.C,D4*%
X10160000Y3810000D03*
D13*
X12065000Y10350000D03*
X10795000Y7810000D03*
X9525000Y10350000D03*
X8255000Y7810000D03*
%TD*%
D12*
%TO.C,D1*%
X33020000Y3810000D03*
D13*
X34925000Y10350000D03*
X33655000Y7810000D03*
X32385000Y10350000D03*
X31115000Y7810000D03*
%TD*%
D12*
%TO.C,D3*%
X17780000Y3810000D03*
D13*
X19685000Y10350000D03*
X18415000Y7810000D03*
X17145000Y10350000D03*
X15875000Y7810000D03*
%TD*%
D10*
%TO.C,C1*%
X33795000Y15240000D03*
X32245000Y15240000D03*
%TD*%
D14*
%TO.C,FID1*%
X40640000Y6350000D03*
%TD*%
D13*
%TO.C,J1*%
X25400000Y19050000D03*
X22860000Y19050000D03*
X20320000Y19050000D03*
X17780000Y19050000D03*
%TD*%
D10*
%TO.C,C4*%
X10935000Y15240000D03*
X9385000Y15240000D03*
%TD*%
D11*
%TO.C,ST2*%
X2540000Y17780000D03*
%TD*%
D10*
%TO.C,C3*%
X18555000Y15240000D03*
X17005000Y15240000D03*
%TD*%
D11*
%TO.C,ST4*%
X2540000Y2540000D03*
%TD*%
D14*
%TO.C,FID2*%
X6350000Y19050000D03*
%TD*%
D11*
%TO.C,ST3*%
X40005000Y2540000D03*
%TD*%
D12*
%TO.C,D2*%
X25400000Y3810000D03*
D13*
X27305000Y10350000D03*
X26035000Y7810000D03*
X24765000Y10350000D03*
X23495000Y7810000D03*
%TD*%
M02*
